<svg xmlns="http://www.w3.org/2000/svg" xmlns:xlink="http://www.w3.org/1999/xlink" viewBox="0 0 2807.99 2800"><defs><style>.cls-1,.cls-11{opacity:0.3;}.cls-1{fill:url(#linear-gradient);}.cls-2{fill:url(#linear-gradient-2);}.cls-3{fill:url(#linear-gradient-3);}.cls-10,.cls-18,.cls-4,.cls-8{fill:#fff;}.cls-5{fill:url(#linear-gradient-4);}.cls-6{fill:url(#linear-gradient-5);}.cls-7{fill:url(#linear-gradient-6);}.cls-8{opacity:0.78;}.cls-9{opacity:0.8;}.cls-10{opacity:0.81;}.cls-12{fill:url(#linear-gradient-7);}.cls-13{fill:url(#linear-gradient-8);}.cls-14{fill:url(#linear-gradient-9);}.cls-15{fill:url(#linear-gradient-10);}.cls-16{fill:url(#linear-gradient-11);}.cls-17{fill:url(#linear-gradient-12);}.cls-18{opacity:0.56;}.cls-19{fill:url(#linear-gradient-13);}.cls-20{fill:url(#linear-gradient-14);}.cls-21{fill:url(#linear-gradient-15);}.cls-22{fill:url(#linear-gradient-16);}.cls-23{fill:url(#linear-gradient-17);}.cls-24{fill:url(#linear-gradient-18);}.cls-25{fill:url(#linear-gradient-19);}.cls-26{fill:url(#linear-gradient-20);}.cls-27{fill:url(#linear-gradient-21);}.cls-28{fill:url(#linear-gradient-22);}.cls-29{fill:url(#linear-gradient-23);}.cls-30{fill:url(#linear-gradient-24);}.cls-31{fill:url(#linear-gradient-25);}.cls-32{fill:url(#linear-gradient-26);}.cls-33{fill:url(#linear-gradient-27);}.cls-34{fill:url(#linear-gradient-28);}.cls-35{fill:url(#linear-gradient-29);}.cls-36{fill:url(#linear-gradient-30);}.cls-37{fill:url(#linear-gradient-31);}.cls-38{fill:url(#linear-gradient-32);}.cls-39{fill:url(#linear-gradient-33);}.cls-40{fill:url(#linear-gradient-34);}</style><linearGradient id="linear-gradient" x1="2995.44" y1="2798.31" x2="942.15" y2="1001.68" gradientUnits="userSpaceOnUse"><stop offset="0" stop-color="#b37cff"/><stop offset="1" stop-color="#f895e7"/></linearGradient><linearGradient id="linear-gradient-2" x1="1501.31" y1="505.9" x2="1345.36" y2="2377.42" gradientUnits="userSpaceOnUse"><stop offset="0" stop-color="#2b3582"/><stop offset="1" stop-color="#150e42"/></linearGradient><linearGradient id="linear-gradient-3" x1="168.64" y1="2666.89" x2="3856.74" y2="-632.64" gradientUnits="userSpaceOnUse"><stop offset="0" stop-color="#fdf53f"/><stop offset="1" stop-color="#d93c65"/></linearGradient><linearGradient id="linear-gradient-4" x1="1406.53" y1="2135.31" x2="1392.94" y2="3405.78" gradientTransform="translate(2807.99 4744.7) rotate(-180)" xlink:href="#linear-gradient-2"/><linearGradient id="linear-gradient-5" x1="1644.94" y1="271.31" x2="1249.3" y2="2852.11" gradientUnits="userSpaceOnUse"><stop offset="0" stop-color="#53d8ff"/><stop offset="0.21" stop-color="#4db9fd"/><stop offset="1" stop-color="#3840f7"/></linearGradient><linearGradient id="linear-gradient-6" x1="2492.65" y1="-21.06" x2="1853.57" y2="1001.48" xlink:href="#linear-gradient-5"/><linearGradient id="linear-gradient-7" x1="-3084.57" y1="3282.05" x2="-2564.2" y2="3282.05" gradientTransform="matrix(-0.31, 0.95, 0.95, 0.31, -3730.87, 2131.35)" xlink:href="#linear-gradient"/><linearGradient id="linear-gradient-8" x1="-2538.91" y1="3145" x2="-2508.52" y2="3145" gradientTransform="matrix(-0.31, 0.95, 0.95, 0.31, -3730.87, 2131.35)" xlink:href="#linear-gradient"/><linearGradient id="linear-gradient-9" x1="-2381.17" y1="3377.22" x2="-2360.31" y2="3377.22" gradientTransform="matrix(-0.31, 0.95, 0.95, 0.31, -3730.87, 2131.35)" xlink:href="#linear-gradient"/><linearGradient id="linear-gradient-10" x1="-2891.85" y1="3614.44" x2="-2355.86" y2="3614.44" gradientTransform="matrix(-0.31, 0.95, 0.95, 0.31, -3730.87, 2131.35)" xlink:href="#linear-gradient"/><linearGradient id="linear-gradient-11" x1="-2945.28" y1="3727.4" x2="-2915.27" y2="3727.4" gradientTransform="matrix(-0.31, 0.95, 0.95, 0.31, -3730.87, 2131.35)" xlink:href="#linear-gradient"/><linearGradient id="linear-gradient-12" x1="2477.83" y1="2078.3" x2="4472.21" y2="4761.39" gradientTransform="translate(-3870.49 2520.28) rotate(-68.36)" gradientUnits="userSpaceOnUse"><stop offset="0" stop-color="#a737d5"/><stop offset="1" stop-color="#ef497a"/></linearGradient><linearGradient id="linear-gradient-13" x1="-3394.11" y1="3715.44" x2="-3379.28" y2="3715.44" gradientTransform="matrix(-0.31, 0.95, 0.95, 0.31, -3730.87, 2131.35)" xlink:href="#linear-gradient"/><linearGradient id="linear-gradient-14" x1="-3400.12" y1="3548.82" x2="-3109.42" y2="3548.82" gradientTransform="matrix(-0.31, 0.95, 0.95, 0.31, -3730.87, 2131.35)" xlink:href="#linear-gradient"/><linearGradient id="linear-gradient-15" x1="-3270.39" y1="3827.5" x2="-2938.6" y2="3827.5" gradientTransform="matrix(-0.31, 0.95, 0.95, 0.31, -3730.87, 2131.35)" xlink:href="#linear-gradient"/><linearGradient id="linear-gradient-16" x1="-3306.86" y1="3848.25" x2="-3284.17" y2="3848.25" gradientTransform="matrix(-0.31, 0.95, 0.95, 0.31, -3730.87, 2131.35)" xlink:href="#linear-gradient"/><linearGradient id="linear-gradient-17" x1="2677.61" y1="1929.79" x2="4672" y2="4612.89" xlink:href="#linear-gradient-12"/><linearGradient id="linear-gradient-18" x1="1454.61" y1="1062.74" x2="790.43" y2="2381.83" gradientUnits="userSpaceOnUse"><stop offset="0" stop-color="#cb236d"/><stop offset="1" stop-color="#4c246d"/></linearGradient><linearGradient id="linear-gradient-19" x1="1729.8" y1="271.04" x2="1222.42" y2="1529.06" gradientTransform="matrix(1, 0, 0, 1, 0, 0)" xlink:href="#linear-gradient-12"/><linearGradient id="linear-gradient-20" x1="17670.59" y1="2186.24" x2="17218.34" y2="2444.38" gradientTransform="matrix(-1, 0, 0, 1, 19045.56, 0)" gradientUnits="userSpaceOnUse"><stop offset="0" stop-color="#f9b776"/><stop offset="1" stop-color="#f47960"/></linearGradient><linearGradient id="linear-gradient-21" x1="-8644.51" y1="-3660.68" x2="-8679.23" y2="-3128.35" gradientTransform="translate(10806.77 1915.48) rotate(-26.18)" xlink:href="#linear-gradient-18"/><linearGradient id="linear-gradient-22" x1="17626.84" y1="2250.62" x2="19174.2" y2="1281.95" xlink:href="#linear-gradient-20"/><linearGradient id="linear-gradient-23" x1="-7224.53" y1="-5926.87" x2="-7259.24" y2="-5394.58" gradientTransform="matrix(0.79, -0.61, 0.61, 0.79, 10854.18, 2818.54)" xlink:href="#linear-gradient-18"/><linearGradient id="linear-gradient-24" x1="9415.28" y1="1862.13" x2="9043.32" y2="2269.75" gradientTransform="matrix(-1, 0, 0, 1, 11213.86, 0)" xlink:href="#linear-gradient-12"/><linearGradient id="linear-gradient-25" x1="-11490.9" y1="-625.53" x2="-11379.69" y2="-346.57" gradientTransform="translate(12936.43 -1872.44) rotate(-19.17)" xlink:href="#linear-gradient-2"/><linearGradient id="linear-gradient-26" x1="17019.13" y1="1823.24" x2="15953.01" y2="2851.62" gradientTransform="matrix(-1, 0, 0, 1, 19045.56, 0)" xlink:href="#linear-gradient-3"/><linearGradient id="linear-gradient-27" x1="-9384.05" y1="2037.45" x2="-8933.55" y2="2037.45" gradientTransform="translate(11551.11)" xlink:href="#linear-gradient-20"/><linearGradient id="linear-gradient-28" x1="-11361.56" y1="938.46" x2="-11339.54" y2="777.35" gradientTransform="translate(13248.43 71.49) rotate(-4.11)" xlink:href="#linear-gradient-20"/><linearGradient id="linear-gradient-29" x1="-10420.92" y1="-3923.64" x2="-10213.56" y2="-4292.67" gradientTransform="translate(10974.39 -4905.33) rotate(-56.92)" xlink:href="#linear-gradient-20"/><linearGradient id="linear-gradient-30" x1="-10376.33" y1="-4245" x2="-10272.65" y2="-3984.93" gradientTransform="translate(10974.39 -4905.33) rotate(-56.92)" xlink:href="#linear-gradient-2"/><linearGradient id="linear-gradient-31" x1="-10376.78" y1="-3898.85" x2="-10169.42" y2="-4267.87" gradientTransform="translate(10974.39 -4905.33) rotate(-56.92)" xlink:href="#linear-gradient-20"/><linearGradient id="linear-gradient-32" x1="-9477.76" y1="1643.88" x2="-9713.43" y2="1708.47" gradientTransform="translate(11531.58 -77.86) rotate(-2.83)" xlink:href="#linear-gradient-2"/><linearGradient id="linear-gradient-33" x1="1600.66" y1="1873.63" x2="1971.67" y2="2213.14" xlink:href="#linear-gradient-2"/><linearGradient id="linear-gradient-34" x1="-9824.77" y1="1924.01" x2="-9900.65" y2="2038.26" gradientTransform="translate(11551.11)" xlink:href="#linear-gradient-5"/></defs><g id="Camada_2" data-name="Camada 2"><g id="Illustration"><path class="cls-1" d="M2646.49,1865.24c-265.37,624.84-972.25,974.88-1585.26,880.46-99.75-15.37-373.21-61.14-615.33-277C-20.18,2053-119.86,1229.94,256.12,649.92,529.77,227.76,1020.3-11.54,1486.41.43c100.4,2.58,485.18,18.47,823.32,297.3C2359.4,338.68,2469,436,2567.68,590.39,2799.51,952.93,2819.43,1458,2646.49,1865.24Z"/><path class="cls-2" d="M193.22,2274.86a44.15,44.15,0,0,0,44,44H2619a44.15,44.15,0,0,0,44-44l19.82-1368.73c0-24.2-28.51-71.45-80.77-67.9L274.4,778A111,111,0,0,0,160.51,891.52Z"/><path class="cls-3" d="M236.7,2232.64a41.79,41.79,0,0,0,41.67,41.67h2283.2a41.79,41.79,0,0,0,41.67-41.67l18.7-1242.54c-2.2-74.77-67.75-101.65-107.49-100.06L283.55,830.19a78,78,0,0,0-80,79.82Z"/><path class="cls-4" d="M2578.57,1642.35h-.09a6.11,6.11,0,0,1-6-6.2l1.48-100.77a6.11,6.11,0,0,1,6.1-6h.09a6.11,6.11,0,0,1,6,6.2l-1.48,100.77A6.11,6.11,0,0,1,2578.57,1642.35Z"/><path class="cls-4" d="M2582.2,1395.41h-.1a6.11,6.11,0,0,1-6-6.2l5.66-385.94c-.1-22.92-7.06-41.23-20.68-54.28-25.42-24.36-65.79-23.11-67.49-23l-713-19.12a6.11,6.11,0,0,1-5.94-6.27,5.85,5.85,0,0,1,6.27-5.94l712.62,19.12c4.43-.26,47.41-1,76,26.42,16.1,15.43,24.32,36.68,24.45,63.16l-5.67,386.07A6.11,6.11,0,0,1,2582.2,1395.41Z"/><rect class="cls-5" y="2312.22" width="2807.99" height="120.26" rx="5.65" transform="translate(2807.99 4744.7) rotate(180)"/><path class="cls-6" d="M2198.82,75.28,702.75,66.12A85.64,85.64,0,0,0,616.69,156L719.62,2281.55H2384.47l92.44-1899.07Z"/><path class="cls-7" d="M2261,373.37a85.63,85.63,0,0,1-82.36-92.32l16-203L2477.2,381.23Z"/><path class="cls-8" d="M1554.54,611.42c119.16,1.69,576.61,7.64,692.12,9.14,14.57.19,26.25,9.82,25.81,21.26h0c-.42,10.9-11.73,19.41-25.6,19.28l-691.78-6.49c-13.33-.13-24.53-8.22-25.84-18.66l-.33-2.64C1527.42,621.37,1539.3,611.21,1554.54,611.42Z"/><path class="cls-8" d="M1542.15,738.37h0a11.89,11.89,0,0,0,9.49,4.57l474.8,10.2c6,.13,10.87-3.51,11-8.2l1-24.57c.19-4.88-4.82-9-11-9l-461.77-4.24C1545.06,706.9,1532.16,724.09,1542.15,738.37Z"/><path class="cls-8" d="M1545.17,833.69c119.16,1.69,576.61,7.64,692.12,9.14,14.57.19,26.25,9.82,25.81,21.27h0c-.42,10.89-11.73,19.4-25.6,19.27l-691.78-6.49c-13.33-.13-24.53-8.21-25.84-18.66l-.33-2.64C1518.05,843.64,1529.93,833.48,1545.17,833.69Z"/><path class="cls-8" d="M1532.78,960.64h0a11.9,11.9,0,0,0,9.5,4.57l474.79,10.2c6,.13,10.87-3.51,11-8.19l1-24.58c.19-4.88-4.82-9-11-9l-461.77-4.24C1535.69,929.17,1522.79,946.36,1532.78,960.64Z"/><g class="cls-9"><path class="cls-4" d="M1341.15,595.61c-2.44-3-6.27-4.25-10.33-4.16l-369.94,7.76-9.34-29.69a9.63,9.63,0,0,0-9.59-6.66l-50.79,1.33c-5.44.14-9.85,3.93-9.85,9.37s4.41,9,9.85,8.87l43.41-1,78.54,251a10.36,10.36,0,0,0,9.78,7.19l259.65,3.49c6.1.08,11-3.75,11-9.51s-4.94-9.7-11-9.77l-252.07-2.72-20.24-65.16,277,.42a12.83,12.83,0,0,0,12.26-8.85l43.72-141.36A11.12,11.12,0,0,0,1341.15,595.61Z"/><path class="cls-4" d="M1060.87,855c-21.36-.33-38.64,16.3-38.64,37.07s17.28,38.11,38.64,38.68S1100,914.73,1100,893.73,1082.37,855.37,1060.87,855Zm0,55.55c-10-.24-18.09-8.33-18.09-18.05a17.49,17.49,0,0,1,18.09-17.3c10,.18,18.19,8.28,18.19,18A17.5,17.5,0,0,1,1060.87,910.59Z"/><path class="cls-4" d="M1234,857.73c-22.42-.35-40.56,16.68-40.56,37.95s18.14,39.06,40.56,39.65,41-16.42,41-37.94S1256.52,858.08,1234,857.73Zm0,56.91c-10.48-.25-19-8.55-19-18.5s8.5-17.91,19-17.71,19.09,8.49,19.09,18.5S1244.47,914.88,1234,914.64Z"/></g><path class="cls-10" d="M1129.3,1029.45c-178.32,0-323.39-145.07-323.39-323.38S951,382.69,1129.3,382.69s323.38,145.07,323.38,323.38S1307.61,1029.45,1129.3,1029.45Zm0-619.49C966,410,833.18,542.79,833.18,706.07S966,1002.18,1129.3,1002.18s296.11-132.83,296.11-296.11S1292.57,410,1129.3,410Z"/><g class="cls-11"><path class="cls-12" d="M535.74,287.59a9.12,9.12,0,0,1-12,4.63c-8.94-4-18.19-7.63-27.49-10.85a9.13,9.13,0,0,1-5.69-11.44l.06-.17a9.11,9.11,0,0,1,11.6-5.63c9.79,3.39,19.53,7.23,28.94,11.42a9.11,9.11,0,0,1,5,11.14A8.79,8.79,0,0,1,535.74,287.59ZM449.86,268.8c-9.64-1.92-19.46-3.45-29.19-4.54a9.12,9.12,0,0,1,2-18.13c10.24,1.15,20.58,2.75,30.73,4.77a9.12,9.12,0,0,1,7.16,10.73,9,9,0,0,1-.27,1.05A9.13,9.13,0,0,1,449.86,268.8Zm-77.13-6.55c-9.81.27-19.72,1-29.47,2.09a9.12,9.12,0,1,1-2.07-18.13c10.27-1.18,20.71-1.92,31-2.2a9.12,9.12,0,0,1,9.37,8.86,9,9,0,0,1-.44,3.08A9.13,9.13,0,0,1,372.73,262.25Zm-76.67,10.86c-9.51,2.46-19,5.36-28.27,8.62a9.12,9.12,0,1,1-6.07-17.21c9.75-3.43,19.76-6.48,29.76-9.08a9.13,9.13,0,0,1,4.58,17.67Zm-72.33,27.67c-8.71,4.5-17.34,9.44-25.66,14.68A9.13,9.13,0,0,1,188.35,300c8.75-5.51,17.84-10.7,27-15.44a9.12,9.12,0,0,1,8.38,16.21Zm-64.41,43c-7.51,6.32-14.83,13-21.77,20a9.13,9.13,0,0,1-12.9-12.91c7.3-7.3,15-14.37,22.91-21a9.13,9.13,0,0,1,11.76,14ZM30.44,657.07a9.12,9.12,0,0,1-10.09-8c-1.15-10.26-1.88-20.71-2.14-31a9.12,9.12,0,1,1,18.23-.48c.26,9.83,1,19.75,2,29.49a9.1,9.1,0,0,1-8,10.08Zm75.63-257.14c-5.91,7.83-11.54,16-16.76,24.31a9.12,9.12,0,1,1-15.45-9.7c5.49-8.74,11.43-17.36,17.65-25.6a9.13,9.13,0,0,1,16,8.32A9.24,9.24,0,0,1,106.07,399.93ZM28.45,577.58a9.12,9.12,0,0,1-8-10.09c1.18-10.26,2.81-20.6,4.84-30.73a9.12,9.12,0,0,1,17.89,3.59c-1.94,9.64-3.49,19.46-4.6,29.21a8.77,8.77,0,0,1-.39,1.79A9.11,9.11,0,0,1,28.45,577.58Zm38.27-111c-4,8.95-7.67,18.18-10.91,27.46a9.12,9.12,0,0,1-17.29-5.82,1,1,0,0,1,.07-.18c3.4-9.77,7.26-19.5,11.47-28.91a9.12,9.12,0,0,1,17,6.53C67,466,66.85,466.27,66.72,466.57Z"/><path class="cls-13" d="M51,713.57a9.12,9.12,0,0,0,0-5.45c-1.36-4.5-2.64-9.11-3.83-13.69A9.12,9.12,0,1,0,29.56,699c1.24,4.82,2.6,9.67,4,14.41a9.12,9.12,0,0,0,17.41.17Z"/></g><g class="cls-11"><path class="cls-14" d="M229,927.29a9.14,9.14,0,0,0-4.52-10.94c-4.19-2.14-8.4-4.41-12.52-6.73a9.12,9.12,0,1,0-9,15.88c4.34,2.45,8.77,4.84,13.18,7.1a9.13,9.13,0,0,0,12.28-4A10.28,10.28,0,0,0,229,927.29Z"/><path class="cls-15" d="M723,738.28a9.12,9.12,0,0,1-17-6.49c3.41-9,6.49-18.22,9.19-27.6a9.13,9.13,0,0,1,17.54,5.06q-1.77,6.09-3.71,12.09C727.12,727,725.11,732.73,723,738.28Zm9.83-69.92a9.12,9.12,0,0,1-7.7-10.34c1.39-9.58,2.4-19.31,3-28.93a9.12,9.12,0,0,1,18.21,1.11c-.62,10.13-1.68,20.38-3.15,30.45a9.24,9.24,0,0,1-.36,1.51A9.12,9.12,0,0,1,732.83,668.36ZM702.19,783.43c-4.87,8.9-10.18,17.72-15.81,26.21a9.12,9.12,0,1,1-15.21-10.08c5.34-8.06,10.39-16.43,15-24.89a9.13,9.13,0,0,1,16.69,7.19A9,9,0,0,1,702.19,783.43Zm35.36-193.17a9.12,9.12,0,0,1-9.79-8.4c-.74-9.63-1.89-19.34-3.44-28.87a9.12,9.12,0,0,1,18-2.92c1.63,10,2.85,20.26,3.62,30.4a9.09,9.09,0,0,1-8.4,9.79ZM656.17,849.07c-6.71,7.61-13.83,15-21.18,22.09A9.12,9.12,0,1,1,622.36,858c7-6.7,13.75-13.75,20.12-21A9.12,9.12,0,0,1,658,845.86,9,9,0,0,1,656.17,849.07Zm-59.31,54c-8.22,6-16.8,11.67-25.48,16.93a9.12,9.12,0,0,1-9.46-15.6c8.25-5,16.4-10.42,24.22-16.09A9.12,9.12,0,1,1,596.86,903Zm-69.65,39.75c-9.34,4.05-19,7.74-28.57,11a9.12,9.12,0,1,1-5.83-17.28C502,933.4,511.08,929.88,520,926a9.12,9.12,0,1,1,7.25,16.74Zm-76.67,23.61c-10,1.91-20.19,3.41-30.3,4.46a9.12,9.12,0,1,1-1.88-18.15c9.59-1,19.27-2.42,28.76-4.23a9.12,9.12,0,1,1,3.42,17.92Zm-80,6.19c-10.14-.34-20.41-1.12-30.51-2.32a9.12,9.12,0,0,1,2.15-18.12c9.6,1.14,19.35,1.88,29,2.21a9.12,9.12,0,1,1-.62,18.23Zm-79.35-11.52c-7.24-1.87-14.51-4-21.61-6.3q-3.85-1.26-7.67-2.59a9,9,0,0,1-5.6-11.62A9.12,9.12,0,0,1,267.9,935q3.63,1.26,7.29,2.46c6.75,2.19,13.66,4.21,20.55,6a9.13,9.13,0,0,1,6.54,11.12c0,.18-.1.36-.16.54A9.11,9.11,0,0,1,291.16,961.06Z"/><path class="cls-16" d="M730.9,506.92a9.13,9.13,0,0,0,0-5.5c-1.45-4.72-3-9.5-4.69-14.21A9.13,9.13,0,0,0,709,493.29c1.58,4.47,3.08,9,4.46,13.49a9.13,9.13,0,0,0,17.4.14Z"/></g><path class="cls-17" d="M592.76,433.57a4.27,4.27,0,0,0-4.6-1.84l-50.4,12.34a226,226,0,0,0-60.19-41.74l-6.14-51.5a4.24,4.24,0,0,0-3.33-3.66L407.27,334a4.25,4.25,0,0,0-4.55,1.95l-26.91,44.34a226.06,226.06,0,0,0-72.06,13.08L263,361.27a4.27,4.27,0,0,0-5-.23l-52.33,33.69a4.28,4.28,0,0,0-1.84,4.6l12.34,50.41a226,226,0,0,0-41.75,60.18L123,516.06a4.29,4.29,0,0,0-3.67,3.33L106.1,580.23a4.27,4.27,0,0,0,2,4.55l44.33,26.91a226.35,226.35,0,0,0,13.09,72.06l-32.09,40.78a4.26,4.26,0,0,0-.23,4.94l33.69,52.34a4.27,4.27,0,0,0,4.6,1.84l50.41-12.34A225.94,225.94,0,0,0,282,813.05l6.14,51.5a4.25,4.25,0,0,0,3.33,3.66l60.84,13.19a4.27,4.27,0,0,0,4.55-2l26.9-44.34A226.12,226.12,0,0,0,455.87,822l40.78,32.09a4.26,4.26,0,0,0,4.94.23l52.34-33.69a4.26,4.26,0,0,0,1.83-4.6l-12.33-50.41a225.94,225.94,0,0,0,41.74-60.18l51.5-6.14a4.27,4.27,0,0,0,3.66-3.33l13.18-60.84a4.26,4.26,0,0,0-2-4.55l-44.34-26.9a226.13,226.13,0,0,0-13.09-72.07l32.1-40.78a4.27,4.27,0,0,0,.23-4.94Z"/><path class="cls-18" d="M435.86,635.5a62.54,62.54,0,1,1,3.47-8.5A62.64,62.64,0,0,1,435.86,635.5ZM334.34,623a48,48,0,1,0,2.49-36.64,48.42,48.42,0,0,0-2.68,6.59A47.6,47.6,0,0,0,334.34,623Z"/><path class="cls-18" d="M524.88,656.16A156,156,0,0,0,529,640.89h0c.36-1.63.68-3.27,1-4.91a155.72,155.72,0,0,0,2.5-24.52c0-.11,0-.22,0-.33,0-.32,0-.63,0-1,0-.62,0-1.24,0-1.85a3.65,3.65,0,0,0-2.51-3.48,3.87,3.87,0,0,0-1.13-.18,3.65,3.65,0,0,0-3.65,3.65A146.73,146.73,0,0,1,333,747.61a146.59,146.59,0,0,1-97.63-170.33c17.13-79,95.29-129.31,174.26-112.2q7.31,1.59,14.38,3.89a146,146,0,0,1,54.77,32.35,3.48,3.48,0,0,0,1.37.8,3.65,3.65,0,0,0,3.62-6.13,153.95,153.95,0,0,0-72.59-38c-82.91-18-165,34.9-182.94,117.78A153.89,153.89,0,0,0,330.77,754.55q7.49,2.43,15.29,4.13A153.91,153.91,0,0,0,524.88,656.16Z"/><g class="cls-11"><path class="cls-19" d="M861,65a5.61,5.61,0,0,0-2.18-6.39c-3.95-2.7-8-5.32-12.14-7.78a5.63,5.63,0,1,0-5.79,9.66c3.91,2.35,7.81,4.84,11.57,7.42A5.62,5.62,0,0,0,861,65Z"/><path class="cls-20" d="M822.9,44.42a5.65,5.65,0,0,1-7.44,2.87,234.5,234.5,0,0,0-22.08-8.44c-1.58-.51-3.16-1-4.76-1.49a5.63,5.63,0,0,1-3.76-7,5.84,5.84,0,0,1,7-3.77q2.5.76,5,1.56A246.47,246.47,0,0,1,820,37a5.64,5.64,0,0,1,3.08,6.89C823,44.06,823,44.24,822.9,44.42ZM760.77,30.77a234.51,234.51,0,0,0-28.43-3.14,5.64,5.64,0,1,1,.55-11.26,243.31,243.31,0,0,1,29.81,3.3,5.63,5.63,0,0,1,4.59,6.51,6.52,6.52,0,0,1-.2.79A5.64,5.64,0,0,1,760.77,30.77Zm-57-2.74A231.58,231.58,0,0,0,675.38,32a5.63,5.63,0,1,1-2.24-11,242.38,242.38,0,0,1,29.73-4.14,5.63,5.63,0,0,1,6,5.19,5.41,5.41,0,0,1-.26,2.17A5.64,5.64,0,0,1,703.72,28Zm-56,11.36a234.48,234.48,0,0,0-26.51,10.75A5.63,5.63,0,0,1,616.36,40a243.89,243.89,0,0,1,27.8-11.28,5.64,5.64,0,0,1,3.58,10.69ZM596.23,64.07a235.74,235.74,0,0,0-23.1,16.87,5.64,5.64,0,1,1-7.19-8.68,248.76,248.76,0,0,1,24.21-17.69,5.64,5.64,0,0,1,6.08,9.5Zm-44,36.44a232.27,232.27,0,0,0-18.27,22,5.64,5.64,0,0,1-9.1-6.65,242.46,242.46,0,0,1,19.17-23,5.64,5.64,0,0,1,9.46,5.61A5.72,5.72,0,0,1,552.27,100.51Zm-33.7,46.06a233.1,233.1,0,0,0-12.32,25.81,5.64,5.64,0,0,1-10.46-4.22,245.21,245.21,0,0,1,12.93-27.07A5.64,5.64,0,0,1,519,145.57,5.85,5.85,0,0,1,518.57,146.57Zm-33.42,85.8a5.63,5.63,0,0,1-4.81-6.35,245.15,245.15,0,0,1,5-25.58c.32-1.29.65-2.56,1-3.83a5.63,5.63,0,1,1,10.88,2.92c-.32,1.2-.63,2.39-.93,3.62a235.91,235.91,0,0,0-4.76,24.42,5.07,5.07,0,0,1-.22,1A5.63,5.63,0,0,1,485.15,232.37Z"/></g><g class="cls-11"><path class="cls-21" d="M951.77,338a243.7,243.7,0,0,1-11.15,27.3,5.63,5.63,0,1,1-10.15-4.88,234.25,234.25,0,0,0,10.63-26.05,5.64,5.64,0,0,1,10.7,3.55Zm1.12-24.12a5.63,5.63,0,0,1-4.35-6.67,235.82,235.82,0,0,0,4.13-27.85,5.64,5.64,0,0,1,11.23,1,247.81,247.81,0,0,1-4.33,29.19c-.05.2-.1.4-.16.59A5.63,5.63,0,0,1,952.89,313.85ZM926.22,391a242.89,242.89,0,0,1-17.42,23.81,5.64,5.64,0,0,1-8.68-7.2A235.13,235.13,0,0,0,916.75,385a5.63,5.63,0,0,1,10.09,4.78A5.4,5.4,0,0,1,926.22,391Zm33-134.41a5.63,5.63,0,0,1-5.83-5.43,232.7,232.7,0,0,0-2.72-28,5.63,5.63,0,0,1,11.13-1.77,241.22,241.22,0,0,1,2.85,29.39,5.92,5.92,0,0,1-.27,1.94A5.64,5.64,0,0,1,959.23,256.63ZM888.61,436.35A245.23,245.23,0,0,1,866,455.27a5.64,5.64,0,0,1-6.69-9.08,230,230,0,0,0,21.59-18A5.64,5.64,0,0,1,890.1,434,5.57,5.57,0,0,1,888.61,436.35Zm-47.38,35a247.08,247.08,0,0,1-26.52,13,5.64,5.64,0,0,1-4.32-10.41,236.37,236.37,0,0,0,25.29-12.36,5.64,5.64,0,0,1,5.55,9.81Zm-54.41,22.62A244.19,244.19,0,0,1,758,500.16a5.63,5.63,0,1,1-1.7-11.14,232,232,0,0,0,27.51-5.93,5.63,5.63,0,0,1,3,10.85Z"/><path class="cls-22" d="M955.29,195.64a5.7,5.7,0,0,0,.05-3.3c-1.33-4.64-2.81-9.25-4.39-13.72a5.64,5.64,0,0,0-10.63,3.75c1.51,4.26,2.92,8.67,4.19,13.09a5.64,5.64,0,0,0,10.78.18Z"/></g><path class="cls-23" d="M862.07,142.56a2.88,2.88,0,0,0-3.08-1.23l-33.73,8.26A151.23,151.23,0,0,0,785,121.66L780.88,87.2a2.85,2.85,0,0,0-2.23-2.45l-40.71-8.82a2.84,2.84,0,0,0-3,1.3l-18,29.67a151.29,151.29,0,0,0-48.22,8.76L641.38,94.19a2.84,2.84,0,0,0-3.31-.16l-35,22.55a2.85,2.85,0,0,0-1.22,3.07l8.25,33.73a151.12,151.12,0,0,0-27.93,40.28l-34.46,4.1a2.85,2.85,0,0,0-2.45,2.23l-8.82,40.71a2.86,2.86,0,0,0,1.3,3.05l29.67,18A151.23,151.23,0,0,0,576.15,310l-21.48,27.29a2.86,2.86,0,0,0-.15,3.31l22.55,35a2.85,2.85,0,0,0,3.07,1.23l33.74-8.25a151.14,151.14,0,0,0,40.27,27.93l4.1,34.46a2.86,2.86,0,0,0,2.23,2.45l40.71,8.82a2.87,2.87,0,0,0,3-1.31l18-29.67a151.23,151.23,0,0,0,48.22-8.76L797.75,424a2.86,2.86,0,0,0,3.31.15l35-22.54a2.85,2.85,0,0,0,1.23-3.08l-8.25-33.73A151.46,151.46,0,0,0,857,324.5l34.46-4.11a2.86,2.86,0,0,0,2.45-2.23l8.82-40.71a2.85,2.85,0,0,0-1.31-3l-29.67-18A151.29,151.29,0,0,0,863,208.18l21.48-27.29a2.87,2.87,0,0,0,.16-3.31Z"/><path class="cls-18" d="M757.75,278a42.61,42.61,0,1,1,2.38-5.85A43.22,43.22,0,0,1,757.75,278Zm-52.12,9.14a31.35,31.35,0,0,0,42-14.15h0a31.35,31.35,0,0,0-56.17-27.87,31.75,31.75,0,0,0-1.74,4.26A31.41,31.41,0,0,0,705.63,287.16Z"/><path class="cls-18" d="M819.71,292.39a107.29,107.29,0,0,0,5.23-31.91v-1a5.64,5.64,0,0,0-11.27,0,95.73,95.73,0,0,1-2.17,20.09h0c-.08.36-.17.73-.25,1.08a93.91,93.91,0,0,1-21.1,41.4,95.21,95.21,0,0,1-19.3,16.74l-.17.11c-.19.12-.36.24-.55.35a94.22,94.22,0,0,1-71.45,12.95,95.3,95.3,0,0,1-9.42-2.54,94.88,94.88,0,1,1,94.37-159.45,5.38,5.38,0,0,0,2.11,1.25,5.64,5.64,0,0,0,5.6-9.47A106.15,106.15,0,1,0,685.76,360.38a109,109,0,0,0,10.54,2.85A106.31,106.31,0,0,0,819.71,292.39Z"/><circle class="cls-24" cx="1232.77" cy="1503.31" r="378.8"/><circle class="cls-25" cx="1232.13" cy="1504.98" r="366.94"/><path class="cls-4" d="M1400.8,1748.2a46.22,46.22,0,0,1-35.53-16.57L1037.83,1341.1a46.34,46.34,0,1,1,71-59.54l327.44,390.53a46.34,46.34,0,0,1-35.49,76.11Z"/><path class="cls-4" d="M1032.4,1745.35a46.34,46.34,0,0,1-32.12-79.74l386.34-371.48a46.34,46.34,0,0,1,64.24,66.8l-386.35,371.48A46.12,46.12,0,0,1,1032.4,1745.35Z"/><path class="cls-26" d="M1443.72,2607.06c.54-.2,287.39-502.55,326.16-549.83a30,30,0,0,1,26.82-10.78l80.07,9.54,94.06,203.49-156.7-91.26c15.5,107.23-185.8,266.6-254.84,324.76a15.86,15.86,0,0,0-1.26,23.09l27.57,28.85c-45.25,45.87-97.47,75.32-156.4,88.95Z"/><path class="cls-27" d="M1569.65,2529.35s17.59,5.69,23.55,21.35c2.85,7.5-.22,16-6.74,20.66-29,20.75-124.51,87.75-168.6,100.87a5,5,0,0,1-6.24-5.87c2.26-10.25,9.58-30.7,33.16-60.64l-2.12,4.27a6.13,6.13,0,0,0,8.48,8.09C1480.63,2601.43,1540.7,2565,1569.65,2529.35Z"/><path class="cls-28" d="M1555.46,2730.36c.48-.31,43.52-104,44-104.31,39.46-240.25,135.73-446,164.13-500.15a30,30,0,0,1,24.08-16l80.34-6.86,133.3,180.24-171.93-57.66c36.89,101.88-128,298.69-183.84,369.61a15.86,15.86,0,0,0,3.45,22.88l32.83,22.67c-35,54.08-80.21,93.49-135.17,118.75Z"/><path class="cls-29" d="M1663.05,2628.77s18.38,2,27.38,16.14c4.31,6.77,3,15.7-2.42,21.6-24.17,26.18-104.17,111.13-144.7,132.9a5,5,0,0,1-7.3-4.49c.14-10.49,3.17-32,20.2-66.1l-1.2,4.62a6.13,6.13,0,0,0,9.94,6.2C1590.46,2717.37,1641.91,2669.53,1663.05,2628.77Z"/><path class="cls-30" d="M2244.08,2065.09s72.67,108.1,78.64,157.41-20.1,66.36-96.17,72.65c-226.37,18.71-338-49.13-338-49.13-15.49-98.74-26.5-123.85-155.83-177.54,0,0,163.58,13,196.5.21S2244.08,2065.09,2244.08,2065.09Z"/><path class="cls-31" d="M1954.26,1459.45s50.62-59.89,104.43,13.59c9.75,13.31,47.19,2.33,60.91,30.18,7.09,14.39,22.39,22.56,38.16,19.65,39.27-7.24,103.46-7.85,135.15,53.68,24.19,47,5.51,74.47-18.67,90.14-17.76,11.51-24.1,34.88-13.36,53.12,10.3,17.49,12.24,41.17-14.36,69.68-59.6,63.88-177.59-40.54-177.59-40.54l-93.69-221.37Z"/><path class="cls-32" d="M2047.53,2050.78s-84.64-80.59-126.3-134a113.26,113.26,0,0,1-19.18-101.92c19-64.08,52.83-130.45,55.91-140.78,4.72-15.84,99.62-15.18,99.62-15.18s186.74,121.2,260.11,326.49l-82.4,25.65s-48.76-81.79-96.93-133.8c0,0,83.36,110.12,86.29,155.2Z"/><path class="cls-33" d="M1886.27,2082.58l63.59-69.19,73.45,19.78s85.62,13.26,134.63,0l49-13.27,110.75-34.48,17.39,49.16a29.59,29.59,0,0,1-10.81,34c-9.58,6.81-20.81,14.29-28,17.42-14.58,6.38-336,2-336,2Z"/><path class="cls-34" d="M1992.36,1544.83l63.78,118.61c-4.21,25.89-69.42,26.62-79.49,11.16a15.34,15.34,0,0,1-2-5.23l-38.15-79.25c-1.64-7.73,19.54-33.77,26.51-37.48l25.36-13.49C1998.13,1534,1957.39,1533.54,1992.36,1544.83Z"/><path class="cls-35" d="M1863.28,1517s-7.2,40.07,24.29,91,62.86,48.64,78.79,30.47,35-48.43,26.34-99.24S1874.16,1465.9,1863.28,1517Z"/><path class="cls-36" d="M1954.57,1544.77s-51-67-90.15-8.59l.66,20.17s-50.91-2.38-45.39-49.3,47.09-79,104.71-63,91.3,34.3,97.81,74.3-26.16,33.48-26.16,33.48-12.48-27.61-27.55-29.49-9.62,19.95-9.62,19.95Z"/><path class="cls-37" d="M1966.28,1543s-26.42-34.28-2.38-41.4,23.15,33.59,21.59,48.73Z"/><path class="cls-38" d="M2096.77,2110l-.67,0-292.5-.32a13.09,13.09,0,1,1,0-26.18l292.5.32a13.09,13.09,0,0,1,.64,26.16Z"/><path class="cls-39" d="M1540.65,1844.39h243.6a46.42,46.42,0,0,1,42,26.62l112.62,238.8H1636.13a28.21,28.21,0,0,1-26.24-17.85l-87.33-221A19.45,19.45,0,0,1,1540.65,1844.39Z"/><path class="cls-40" d="M1712.27,1966.83c5.28,16.4,1.38,32.32-8.71,35.57s-22.55-7.41-27.83-23.81-1.38-32.33,8.71-35.58S1707,1950.42,1712.27,1966.83Z"/></g></g></svg>