<svg xmlns="http://www.w3.org/2000/svg" width="25.946" height="25.946" viewBox="0 0 25.946 25.946">
  <g id="instagram" transform="translate(0.001)">
    <path id="Caminho_15" data-name="Caminho 15" d="M18.921,0H7.022A7.031,7.031,0,0,0,0,7.023v11.9a7.031,7.031,0,0,0,7.023,7.023h11.9a7.031,7.031,0,0,0,7.023-7.023V7.023A7.031,7.031,0,0,0,18.921,0Zm5.5,18.923a5.508,5.508,0,0,1-5.5,5.5H7.022a5.508,5.508,0,0,1-5.5-5.5V7.023a5.508,5.508,0,0,1,5.5-5.5h11.9a5.508,5.508,0,0,1,5.5,5.5Zm0,0" transform="translate(0 0)" fill="#fff"/>
    <path id="Caminho_16" data-name="Caminho 16" d="M123.1,116a7.094,7.094,0,1,0,7.094,7.094A7.1,7.1,0,0,0,123.1,116Zm0,12.668a5.573,5.573,0,1,1,5.573-5.573A5.58,5.58,0,0,1,123.1,128.672Zm0,0" transform="translate(-110.126 -110.125)" fill="#fff"/>
    <path id="Caminho_17" data-name="Caminho 17" d="M360.073,66.285a2.1,2.1,0,1,0,2.1,2.1A2.1,2.1,0,0,0,360.073,66.285Zm0,2.672a.575.575,0,1,1,.575-.575A.576.576,0,0,1,360.073,68.957Zm0,0" transform="translate(-339.837 -62.926)" fill="#fff"/>
  </g>
</svg>
