<svg id="tools-and-utensils_1_" data-name="tools-and-utensils (1)" xmlns="http://www.w3.org/2000/svg" width="44.779" height="54.588" viewBox="0 0 44.779 54.588">
  <g id="Grupo_127" data-name="Grupo 127" transform="translate(21.325 4.266)">
    <g id="Grupo_126" data-name="Grupo 126">
      <path id="Caminho_617" data-name="Caminho 617" d="M247.075,40.01a1.065,1.065,0,1,0,1.065,1.065A1.063,1.063,0,0,0,247.075,40.01Z" transform="translate(-246.01 -40.01)" fill="#fff"/>
    </g>
  </g>
  <g id="Grupo_129" data-name="Grupo 129" transform="translate(0)">
    <g id="Grupo_128" data-name="Grupo 128">
      <path id="Caminho_618" data-name="Caminho 618" d="M89.713,6.4a5.337,5.337,0,0,1-5.331-5.331A1.066,1.066,0,0,0,83.316,0H53.463A1.066,1.066,0,0,0,52.4,1.066,5.337,5.337,0,0,1,47.066,6.4,1.066,1.066,0,0,0,46,7.463v17.4A30.969,30.969,0,0,0,68.084,54.543a1.066,1.066,0,0,0,.613,0A30.972,30.972,0,0,0,90.779,24.862V7.463A1.066,1.066,0,0,0,89.713,6.4ZM88.647,24.862A28.673,28.673,0,0,1,68.39,52.407,28.829,28.829,0,0,1,48.132,24.862V8.454a7.481,7.481,0,0,0,6.321-6.321H82.326a7.481,7.481,0,0,0,6.321,6.321Z" transform="translate(-46)" fill="#fff"/>
    </g>
  </g>
  <g id="Grupo_131" data-name="Grupo 131" transform="translate(4.265 4.265)">
    <g id="Grupo_130" data-name="Grupo 130">
      <path id="Caminho_619" data-name="Caminho 619" d="M121.612,45.6a9.6,9.6,0,0,1-4.958-4.958,1.066,1.066,0,0,0-.977-.638h-7.289a1.066,1.066,0,1,0,0,2.132H115a11.721,11.721,0,0,0,5.115,5.115V60.6a24.287,24.287,0,0,1-15.993,23.041A24.288,24.288,0,0,1,88.132,60.6V47.247a11.721,11.721,0,0,0,5.115-5.115h6.615a1.066,1.066,0,0,0,0-2.132H92.573a1.066,1.066,0,0,0-.977.638A9.6,9.6,0,0,1,86.638,45.6a1.066,1.066,0,0,0-.638.977V60.6a26.541,26.541,0,0,0,17.769,25.18,1.066,1.066,0,0,0,.711,0A26.541,26.541,0,0,0,122.25,60.6V46.573A1.066,1.066,0,0,0,121.612,45.6Z" transform="translate(-86 -40)" fill="#fff"/>
    </g>
  </g>
  <g id="Grupo_133" data-name="Grupo 133" transform="translate(12.794 15.566)">
    <g id="Grupo_132" data-name="Grupo 132">
      <path id="Caminho_620" data-name="Caminho 620" d="M175.6,146a9.6,9.6,0,1,0,9.6,9.6A9.607,9.607,0,0,0,175.6,146Zm0,17.059a7.463,7.463,0,1,1,7.463-7.463A7.472,7.472,0,0,1,175.6,163.059Z" transform="translate(-166 -146)" fill="#fff"/>
    </g>
  </g>
  <g id="Grupo_135" data-name="Grupo 135" transform="translate(18.125 21.963)">
    <g id="Grupo_134" data-name="Grupo 134" transform="translate(0)">
      <path id="Caminho_621" data-name="Caminho 621" d="M225.283,206.312a1.067,1.067,0,0,0-1.508,0l-4.577,4.577-1.378-1.378a1.066,1.066,0,0,0-1.508,1.508l2.132,2.132a1.066,1.066,0,0,0,1.508,0l5.331-5.331A1.066,1.066,0,0,0,225.283,206.312Z" transform="translate(-215.999 -206)" fill="#fff"/>
    </g>
  </g>
</svg>
