<svg xmlns="http://www.w3.org/2000/svg" width="77.51" height="49.03" viewBox="0 0 77.51 49.03">
  <g id="load-carriage" transform="translate(0 -94.062)">
    <g id="Grupo_111" data-name="Grupo 111" transform="translate(0 94.062)">
      <g id="Grupo_110" data-name="Grupo 110">
        <path id="Caminho_606" data-name="Caminho 606" d="M72.084,114.848l-2.007-8.029a1.214,1.214,0,0,0,.961-1.187v-1.295a5.1,5.1,0,0,0-5.1-5.1H56.8V96.57a2.511,2.511,0,0,0-2.508-2.508H7.686A2.511,2.511,0,0,0,5.178,96.57v22.007a1.214,1.214,0,0,0,2.427,0V96.57a.081.081,0,0,1,.081-.081h46.6a.081.081,0,0,1,.081.081v22.008a1.214,1.214,0,1,0,2.427,0V117.2H71.121a3.971,3.971,0,0,1,3.771,2.751H71.118a1.214,1.214,0,0,0-1.214,1.214v2.589a3.807,3.807,0,0,0,3.8,3.8h1.376v5.34H71.91a7.684,7.684,0,0,0-14.528,0H56.8v-9.143a1.214,1.214,0,0,0-2.427,0V132.9H29.19a7.684,7.684,0,0,0-14.528,0H7.686a.081.081,0,0,1-.081-.081v-2.67h5.259a1.214,1.214,0,1,0,0-2.427H1.214a1.214,1.214,0,1,0,0,2.427H5.178v2.67a2.511,2.511,0,0,0,2.508,2.508h6.556c0,.027,0,.054,0,.081a7.686,7.686,0,0,0,15.373,0c0-.027,0-.054,0-.081H56.962c0,.027,0,.054,0,.081a7.686,7.686,0,0,0,15.373,0c0-.027,0-.054,0-.081H76.3a1.214,1.214,0,0,0,1.214-1.214V121.166A6.4,6.4,0,0,0,72.084,114.848ZM56.8,101.668h9.143a2.673,2.673,0,0,1,2.67,2.67v.081H56.8Zm0,13.107v-7.929H67.582l1.982,7.929H56.8ZM21.926,140.665a5.259,5.259,0,1,1,5.259-5.259A5.265,5.265,0,0,1,21.926,140.665Zm42.72,0a5.259,5.259,0,1,1,5.259-5.259A5.265,5.265,0,0,1,64.646,140.665Zm10.437-15.534H73.708a1.377,1.377,0,0,1-1.376-1.376V122.38h2.751v2.751Z" transform="translate(0 -94.062)" fill="#fff"/>
      </g>
    </g>
    <g id="Grupo_113" data-name="Grupo 113" transform="translate(19.418 132.898)">
      <g id="Grupo_112" data-name="Grupo 112" transform="translate(0 0)">
        <path id="Caminho_607" data-name="Caminho 607" d="M130.775,350.6a2.508,2.508,0,1,0,2.508,2.508A2.511,2.511,0,0,0,130.775,350.6Z" transform="translate(-128.267 -350.597)" fill="#fff"/>
      </g>
    </g>
    <g id="Grupo_115" data-name="Grupo 115" transform="translate(62.138 132.898)">
      <g id="Grupo_114" data-name="Grupo 114" transform="translate(0 0)">
        <path id="Caminho_608" data-name="Caminho 608" d="M412.963,350.6a2.508,2.508,0,1,0,2.508,2.508A2.511,2.511,0,0,0,412.963,350.6Z" transform="translate(-410.455 -350.597)" fill="#fff"/>
      </g>
    </g>
    <g id="Grupo_117" data-name="Grupo 117" transform="translate(31.069 127.72)">
      <g id="Grupo_116" data-name="Grupo 116" transform="translate(0 0)">
        <path id="Caminho_609" data-name="Caminho 609" d="M224.564,316.393H206.441a1.214,1.214,0,0,0,0,2.427h18.124a1.214,1.214,0,1,0,0-2.427Z" transform="translate(-205.227 -316.393)" fill="#fff"/>
      </g>
    </g>
    <g id="Grupo_119" data-name="Grupo 119" transform="translate(2.589 122.542)">
      <g id="Grupo_118" data-name="Grupo 118" transform="translate(0 0)">
        <path id="Caminho_610" data-name="Caminho 610" d="M33.85,282.188H18.316a1.214,1.214,0,1,0,0,2.427H33.85a1.214,1.214,0,1,0,0-2.427Z" transform="translate(-17.102 -282.188)" fill="#fff"/>
      </g>
    </g>
    <g id="Grupo_121" data-name="Grupo 121" transform="translate(22.007 105.713)">
      <g id="Grupo_120" data-name="Grupo 120" transform="translate(0 0)">
        <path id="Caminho_611" data-name="Caminho 611" d="M165.565,171.378a1.214,1.214,0,0,0-1.716,0l-10.793,10.793-5.615-5.615a1.214,1.214,0,0,0-1.716,1.716l6.473,6.473a1.213,1.213,0,0,0,1.716,0l11.651-11.651A1.214,1.214,0,0,0,165.565,171.378Z" transform="translate(-145.37 -171.023)" fill="#fff"/>
      </g>
    </g>
  </g>
</svg>
