<svg xmlns="http://www.w3.org/2000/svg" width="68" height="49.418" viewBox="0 0 68 49.418">
  <g id="business-and-finance" transform="translate(0 -69.408)">
    <g id="Grupo_95" data-name="Grupo 95" transform="translate(6.586 90.301)">
      <g id="Grupo_94" data-name="Grupo 94">
        <rect id="Retângulo_61" data-name="Retângulo 61" width="10.963" height="2.195" fill="#fff"/>
      </g>
    </g>
    <g id="Grupo_97" data-name="Grupo 97" transform="translate(6.586 96.887)">
      <g id="Grupo_96" data-name="Grupo 96">
        <rect id="Retângulo_62" data-name="Retângulo 62" width="16.451" height="2.195" fill="#fff"/>
      </g>
    </g>
    <g id="Grupo_99" data-name="Grupo 99" transform="translate(6.586 103.473)">
      <g id="Grupo_98" data-name="Grupo 98" transform="translate(0 0)">
        <rect id="Retângulo_63" data-name="Retângulo 63" width="39.488" height="2.195" fill="#fff"/>
      </g>
    </g>
    <g id="Grupo_101" data-name="Grupo 101" transform="translate(6.586 110.045)">
      <g id="Grupo_100" data-name="Grupo 100">
        <rect id="Retângulo_64" data-name="Retângulo 64" width="6.586" height="2.195" fill="#fff"/>
      </g>
    </g>
    <g id="Grupo_103" data-name="Grupo 103" transform="translate(17.549 110.045)">
      <g id="Grupo_102" data-name="Grupo 102">
        <rect id="Retângulo_65" data-name="Retângulo 65" width="6.586" height="2.195" fill="#fff"/>
      </g>
    </g>
    <g id="Grupo_105" data-name="Grupo 105" transform="translate(28.525 110.045)">
      <g id="Grupo_104" data-name="Grupo 104">
        <rect id="Retângulo_66" data-name="Retângulo 66" width="6.586" height="2.195" fill="#fff"/>
      </g>
    </g>
    <g id="Grupo_107" data-name="Grupo 107" transform="translate(36.196 89.203)">
      <g id="Grupo_106" data-name="Grupo 106" transform="translate(0 0)">
        <path id="Caminho_604" data-name="Caminho 604" d="M279.181,217.288a4.3,4.3,0,0,0-2.182.6,4.391,4.391,0,1,0,0,7.576,4.3,4.3,0,0,0,2.182.6,4.391,4.391,0,1,0,0-8.781Zm-3.828,6.506a2.039,2.039,0,0,1-.562.08,2.2,2.2,0,0,1,0-4.391,2.589,2.589,0,0,1,.562.08,4.259,4.259,0,0,0,0,4.23Zm3.828.08a2.2,2.2,0,1,1,2.2-2.2A2.205,2.205,0,0,1,279.181,223.874Z" transform="translate(-270.4 -217.288)" fill="#fff"/>
      </g>
    </g>
    <g id="Grupo_109" data-name="Grupo 109" transform="translate(0 69.408)">
      <g id="Grupo_108" data-name="Grupo 108">
        <path id="Caminho_605" data-name="Caminho 605" d="M65.712,84.13,19.691,69.593c-.321-.107-2.891-.95-4.123,2.142L11.78,83.715H3.293A3.308,3.308,0,0,0,0,87.008v28.525a3.291,3.291,0,0,0,3.293,3.293h48.27a3.27,3.27,0,0,0,2.744-1.486,15.372,15.372,0,0,0,1.82.415,3.261,3.261,0,0,0,3.132-2.3l8.594-27.2A3.18,3.18,0,0,0,65.712,84.13ZM16.331,76.58,38.94,83.715H24.362l-9.357-2.958ZM14.35,82.858l2.744.87H14.082ZM52.66,115.533h-.013a1.1,1.1,0,0,1-1.1,1.1H3.293a1.1,1.1,0,0,1-1.1-1.1V87.008a1.1,1.1,0,0,1,1.1-1.1h48.27a1.1,1.1,0,0,1,1.1,1.1v28.525Zm4.511-.736a1.108,1.108,0,0,1-1.379.709l-.95-.295V95.655l7.617,2.409Zm5.943-18.834-8.273-2.61v-4.6l9.6,3.025Zm2.65-8.366-.656,2.088L54.789,86.432a3.289,3.289,0,0,0-3.226-2.7H46.222L16.987,74.492l.656-2.088a1.1,1.1,0,0,1,1.379-.709L65.042,86.218A1.034,1.034,0,0,1,65.765,87.6Z" transform="translate(0 -69.408)" fill="#fff"/>
      </g>
    </g>
  </g>
</svg>
