<svg xmlns="http://www.w3.org/2000/svg" width="25.164" height="25.167" viewBox="0 0 25.164 25.167">
  <path id="social-media_1_" data-name="social-media (1)" d="M24.988,10.946l0,0L14.72.678a2.317,2.317,0,0,0-3.277,0L1.183,10.939l-.01.011A2.316,2.316,0,0,0,2.714,14.9c.024,0,.048,0,.072,0h.409v7.555a2.715,2.715,0,0,0,2.712,2.712H9.923a.737.737,0,0,0,.737-.737V18.506A1.239,1.239,0,0,1,11.9,17.269h2.369A1.238,1.238,0,0,1,15.5,18.506v5.923a.737.737,0,0,0,.737.737h4.016a2.715,2.715,0,0,0,2.712-2.712V14.9h.379a2.317,2.317,0,0,0,1.64-3.954Zm-1.044,2.233a.837.837,0,0,1-.6.247H22.232a.737.737,0,0,0-.737.737v8.292a1.238,1.238,0,0,1-1.237,1.237H16.978V18.506a2.715,2.715,0,0,0-2.712-2.712H11.9a2.715,2.715,0,0,0-2.712,2.712v5.186H5.907a1.239,1.239,0,0,1-1.237-1.237V14.163a.737.737,0,0,0-.737-.737h-1.1l-.035,0a.841.841,0,0,1-.58-1.437h0L12.487,1.721a.842.842,0,0,1,1.191,0L23.941,11.984l0,0a.844.844,0,0,1,0,1.19Zm0,0" transform="translate(-0.5 0.001)" fill="#fff"/>
</svg>
