<svg xmlns="http://www.w3.org/2000/svg" width="26.123" height="26.123" viewBox="0 0 26.123 26.123">
  <g id="social-media" transform="translate(0)">
    <path id="Caminho_623" data-name="Caminho 623" d="M22.412,3.71A12.584,12.584,0,0,0,13.455,0h0A12.67,12.67,0,0,0,2.2,18.478L.067,24.561a1.175,1.175,0,0,0,1.1,1.562,1.183,1.183,0,0,0,.391-.067l6.083-2.129A12.669,12.669,0,0,0,22.413,3.71ZM21.329,20.543a11.14,11.14,0,0,1-13.1,1.96,1.18,1.18,0,0,0-.941-.073L1.759,24.364l1.934-5.527a1.18,1.18,0,0,0-.073-.941A11.137,11.137,0,0,1,13.454,1.532h0a11.136,11.136,0,0,1,7.874,19.011Zm0,0" transform="translate(0)" fill="#fff"/>
    <path id="Caminho_624" data-name="Caminho 624" d="M139.013,121.78a1.5,1.5,0,0,0-2.114,0l-.637.637a9.278,9.278,0,0,1-3.726-3.726l.637-.637a1.5,1.5,0,0,0,0-2.114l-1.718-1.718a1.5,1.5,0,0,0-2.114,0l-1.374,1.374c-.787.787-.826,2.14-.111,3.81a16.723,16.723,0,0,0,7.689,7.689,5.546,5.546,0,0,0,2.139.51,2.278,2.278,0,0,0,1.671-.62l1.374-1.374h0a1.494,1.494,0,0,0,0-2.114Zm-.74,4.122c-.225.225-.915.3-2.123-.214a15.232,15.232,0,0,1-6.885-6.885c-.518-1.208-.439-1.9-.214-2.123l1.348-1.348L132.063,117l-.8.8a1.169,1.169,0,0,0-.216,1.361A10.809,10.809,0,0,0,135.8,123.9a1.169,1.169,0,0,0,1.362-.216l.8-.8,1.665,1.665Zm0,0" transform="translate(-120.85 -107.98)" fill="#fff"/>
  </g>
</svg>
