<svg id="bacteria" xmlns="http://www.w3.org/2000/svg" width="90.423" height="88.679" viewBox="0 0 90.423 88.679">
  <g id="Grupo_85" data-name="Grupo 85">
    <path id="Caminho_589" data-name="Caminho 589" d="M120.9,154.9a4.08,4.08,0,0,0-4.644,2.68L111.6,155.55c.01-.318.014-.631.014-.937a32.457,32.457,0,0,0-1.017-8.073l2.084-1.414a4.643,4.643,0,0,0,7.389-5.187l-.981-2.633a4.671,4.671,0,0,0-5.825-2.866,4.654,4.654,0,0,0-3.2,4.407l-2.365.33c-.324-.594-.678-1.2-1.056-1.8A1.327,1.327,0,0,0,104.4,138.8c.446.708.855,1.417,1.215,2.108a1.855,1.855,0,0,0,1.9.978l4.264-.6a1.327,1.327,0,0,0,1.066-1.763,1.989,1.989,0,0,1,1.254-2.563,2.049,2.049,0,0,1,2.51,1.271l.981,2.633a2.059,2.059,0,0,1-1.037,2.6,2,2,0,0,1-2.5-.789,1.327,1.327,0,0,0-1.88-.41l-3.537,2.4a1.849,1.849,0,0,0-.743,2.024,29.768,29.768,0,0,1,1.07,7.924c0,.44-.011.9-.033,1.368a1.86,1.86,0,0,0,1.106,1.781l6.631,2.9a1.327,1.327,0,0,0,1.833-.961l.21-1.071a1.424,1.424,0,0,1,2.8.548l-1.087,5.542a1.424,1.424,0,0,1-1.741,1.108,1.481,1.481,0,0,1-1.039-1.732l.029-.148a1.328,1.328,0,0,0-1.363-1.581l-7.173.327a1.861,1.861,0,0,0-1.671,1.268,29.608,29.608,0,0,1-2.622,5.762,1.852,1.852,0,0,0,.175,2.134l3.173,3.77a1.327,1.327,0,0,0,1.93.107,1.985,1.985,0,0,1,2.942,2.646l-.919,1.2a2.052,2.052,0,0,1-2.75.5,2,2,0,0,1-.757-2.272,1.327,1.327,0,0,0-.724-1.639l-4.571-2.008a1.848,1.848,0,0,0-2.112.45,29.8,29.8,0,0,1-7,5.668,1.86,1.86,0,0,0-.894,1.9l1.17,7.136a1.327,1.327,0,0,0,1.8,1.018l1.013-.405a1.425,1.425,0,0,1,1.876.86,1.481,1.481,0,0,1-.89,1.814l-5.171,2.069a1.424,1.424,0,0,1-1.876-.859,1.481,1.481,0,0,1,.89-1.814l.14-.056a1.327,1.327,0,0,0,.587-2l-4.172-5.845a1.861,1.861,0,0,0-1.971-.715,29.875,29.875,0,0,1-13.435.35,1.862,1.862,0,0,0-1.931.817l-4.176,6.549a1.328,1.328,0,0,0,.665,1.961l.148.054a2.02,2.02,0,0,1,1.206,2.59,1.324,1.324,0,0,0-.08.455,1.034,1.034,0,0,1-1.566,1.1l-5.13-1.87a2.03,2.03,0,0,1-1.219-2.553,1.957,1.957,0,0,1,1.027-1.128A2.16,2.16,0,0,1,63.9,191.6l.117.043a1.327,1.327,0,0,0,1.774-1.1l.85-7.675a1.86,1.86,0,0,0-.992-1.847,29.713,29.713,0,0,1-8.251-6.3,1.856,1.856,0,0,0-2.063-.461l-6.26,2.567a1.327,1.327,0,0,0-.667,1.853,1.613,1.613,0,0,1-.541,2.118,1.677,1.677,0,0,1-2.27-.5L44,177.991a1.666,1.666,0,0,1,.279-2.262,1.62,1.62,0,0,1,2.3.294,1.327,1.327,0,0,0,2.053.079l4.409-4.984A1.854,1.854,0,0,0,53.268,169a29.717,29.717,0,0,1-1.31-2.676,1.327,1.327,0,0,0-2.439,1.048c.354.825.743,1.635,1.157,2.416l-3.158,3.57a4.284,4.284,0,0,0-4.884.292,4.323,4.323,0,0,0-.815,5.862l1.6,2.308a4.347,4.347,0,0,0,5.908,1.2,4.256,4.256,0,0,0,1.887-4.2l4.615-1.893a32.35,32.35,0,0,0,8.114,6.194l-.631,5.7a4.831,4.831,0,0,0-2.213.467,4.591,4.591,0,0,0-2.394,2.662,4.7,4.7,0,0,0,2.82,5.91l5.13,1.87a4.472,4.472,0,0,0,1.53.28,3.543,3.543,0,0,0,2.05-.625,3.807,3.807,0,0,0,1.544-3.013A4.684,4.684,0,0,0,70.2,191.31l3.116-4.888a32.659,32.659,0,0,0,13.552-.353l3.029,4.243a4.07,4.07,0,0,0,4.23,6.811l5.171-2.069a4.113,4.113,0,0,0,2.413-5.147,4.047,4.047,0,0,0-2.161-2.378,4.1,4.1,0,0,0-2.681-.247l-.82-5a32.44,32.44,0,0,0,6.751-5.465l3.088,1.356a4.638,4.638,0,0,0,8.364,3.02l.92-1.2A4.642,4.642,0,0,0,109.448,173l-2.036-2.419a32.293,32.293,0,0,0,2.393-5.261l5.206-.237a4.07,4.07,0,0,0,8.016.148l1.087-5.542A4.083,4.083,0,0,0,120.9,154.9Z" transform="translate(-33.767 -111.332)" fill="#fff"/>
    <path id="Caminho_590" data-name="Caminho 590" d="M8.551,52.079l4.975,1.149c.108.692.242,1.394.4,2.095a1.327,1.327,0,1,0,2.59-.582c-.183-.815-.331-1.631-.441-2.425a1.86,1.86,0,0,0-1.415-1.551L7.614,49.138a1.327,1.327,0,0,0-1.626,1.281l-.007.825a1.7,1.7,0,0,1-1.69,1.675,1.636,1.636,0,0,1-1.636-1.651L2.7,46.15a1.785,1.785,0,0,1,.547-1.26,1.594,1.594,0,0,1,1.162-.466A1.671,1.671,0,0,1,6.026,46.1a1.327,1.327,0,0,0,1.63,1.3l7-1.64A1.86,1.86,0,0,0,16.062,44.2a29.392,29.392,0,0,1,3.692-10.817,1.854,1.854,0,0,0-.192-2.124l-3.336-3.918a1.327,1.327,0,0,0-2.069.06l-.289.382A1.3,1.3,0,0,1,12,27.995a1.351,1.351,0,0,1-.157-1.836l2.222-2.938A1.3,1.3,0,0,1,16.194,24.7a1.327,1.327,0,0,0,.593,1.93l4.665,2.018a1.851,1.851,0,0,0,2.1-.452,29.779,29.779,0,0,1,7.318-5.84,1.862,1.862,0,0,0,.918-1.884l-1.075-7.151a1.328,1.328,0,0,0-1.789-1.042l-1.018.392a1.424,1.424,0,0,1-1.864-.884,1.481,1.481,0,0,1,.914-1.8l5.2-2a1.424,1.424,0,0,1,1.864.884,1.481,1.481,0,0,1-.915,1.8l-.141.054a1.327,1.327,0,0,0-.614,2l4.092,5.9a1.86,1.86,0,0,0,1.96.741,29.847,29.847,0,0,1,7.094-.851h0a1.857,1.857,0,0,0,1.747-1.227L48.6,13.487a1.327,1.327,0,0,0-.854-1.713,2.15,2.15,0,0,1-1.493-2.3,2.09,2.09,0,0,1,.808-1.4A2.285,2.285,0,0,1,48.743,7.6l1.861.234a2.208,2.208,0,0,1,1.959,2.378,2.138,2.138,0,0,1-1.6,1.849,1.327,1.327,0,0,0-.982,1.435l.471,4.109A1.85,1.85,0,0,0,51.9,19.2a29.483,29.483,0,0,1,8.442,3.28,1.86,1.86,0,0,0,2.092-.163l5.615-4.558a1.327,1.327,0,0,0-.011-2.07l-.854-.678A1.424,1.424,0,0,1,67,12.954a1.481,1.481,0,0,1,2.017-.127l4.362,3.463a1.424,1.424,0,0,1,.185,2.055,1.481,1.481,0,0,1-2.016.128l-.118-.093a1.327,1.327,0,0,0-2.031.484l-3.007,6.528a1.861,1.861,0,0,0,.358,2.066c.189.193.375.393.6.634a1.327,1.327,0,1,0,1.953-1.8c-.094-.1-.182-.2-.268-.289l2.184-4.742a4.07,4.07,0,0,0,3.813-7.052l-4.362-3.463a4.113,4.113,0,0,0-5.666.46A4.046,4.046,0,0,0,64,14.264a4.1,4.1,0,0,0,1.116,2.45l-3.933,3.193a32.128,32.128,0,0,0-8.159-3.173l-.292-2.546a4.8,4.8,0,0,0-1.8-8.99l-1.861-.234a4.961,4.961,0,0,0-3.648,1.015,4.724,4.724,0,0,0-1.808,3.178A4.806,4.806,0,0,0,45.7,13.706l-.769,2.15a32.506,32.506,0,0,0-6.623.8l-2.97-4.282A4.07,4.07,0,0,0,31.2,5.5l-5.2,2a4.113,4.113,0,0,0-2.481,5.115,4.046,4.046,0,0,0,2.128,2.407,4.1,4.1,0,0,0,2.677.283l.753,5.011a32.413,32.413,0,0,0-7.1,5.663l-3-1.3a3.974,3.974,0,0,0-1.5-3.834,3.951,3.951,0,0,0-5.535.768L9.726,24.557a3.983,3.983,0,0,0,.575,5.476,3.919,3.919,0,0,0,2.982.892,3.966,3.966,0,0,0,1.881-.737l2.01,2.362A32.006,32.006,0,0,0,13.51,43.3L8.375,44.5a4.343,4.343,0,0,0-3.9-2.729A4.241,4.241,0,0,0,1.4,42.98,4.458,4.458,0,0,0,.046,46.126L0,51.245a4.29,4.29,0,0,0,4.291,4.329,4.361,4.361,0,0,0,4.26-3.495Z" transform="translate(0 -4.927)" fill="#fff"/>
    <path id="Caminho_591" data-name="Caminho 591" d="M156.581,147.6a1.327,1.327,0,1,0-1.243-2.345c-3.172,1.681-6.787,1.237-8.595-1.057a5.71,5.71,0,0,1-.983-4.8,9.137,9.137,0,0,1,8.816-6.949,5.711,5.711,0,0,1,4.44,2.077c1.523,1.933,1.5,4.817-.049,7.349a1.327,1.327,0,0,0,2.262,1.388c2.142-3.49,2.091-7.565-.129-10.381a8.316,8.316,0,0,0-6.449-3.087,11.785,11.785,0,0,0-11.488,9.056,8.317,8.317,0,0,0,1.5,6.992,8.465,8.465,0,0,0,6.758,3.078A11.064,11.064,0,0,0,156.581,147.6Z" transform="translate(-117.656 -107.696)" fill="#fff"/>
    <path id="Caminho_592" data-name="Caminho 592" d="M312.393,139.972c0-2.752-2.561-4.99-5.708-4.99s-5.708,2.239-5.708,4.99,2.561,4.99,5.708,4.99S312.393,142.724,312.393,139.972Zm-8.762,0c0-1.288,1.37-2.336,3.054-2.336s3.054,1.048,3.054,2.336-1.37,2.336-3.054,2.336S303.632,141.26,303.632,139.972Z" transform="translate(-247.716 -111.967)" fill="#fff"/>
    <path id="Caminho_593" data-name="Caminho 593" d="M221.567,263.639a6.116,6.116,0,1,0-6.116,6.116A6.123,6.123,0,0,0,221.567,263.639Zm-9.577,0a3.461,3.461,0,1,1,3.461,3.461A3.465,3.465,0,0,1,211.991,263.639Z" transform="translate(-172.292 -212.823)" fill="#fff"/>
    <path id="Caminho_594" data-name="Caminho 594" d="M331.991,255.866a4.756,4.756,0,1,0-4.756,4.756A4.761,4.761,0,0,0,331.991,255.866Zm-6.857,0a2.1,2.1,0,1,1,2.1,2.1A2.1,2.1,0,0,1,325.134,255.866Z" transform="translate(-265.413 -207.545)" fill="#fff"/>
    <path id="Caminho_595" data-name="Caminho 595" d="M256.126,355.518a4.66,4.66,0,1,0-4.661-4.66A4.666,4.666,0,0,0,256.126,355.518Zm0-6.667a2.006,2.006,0,1,1-2.006,2.006A2.008,2.008,0,0,1,256.126,348.851Z" transform="translate(-206.965 -285.805)" fill="#fff"/>
    <path id="Caminho_596" data-name="Caminho 596" d="M137.618,309.953a4.8,4.8,0,1,0-4.8-4.8A4.8,4.8,0,0,0,137.618,309.953Zm0-6.945a2.145,2.145,0,1,1-2.145,2.145A2.147,2.147,0,0,1,137.618,303.008Z" transform="translate(-109.314 -248.075)" fill="#fff"/>
    <path id="Caminho_597" data-name="Caminho 597" d="M294.861,227.44a1.327,1.327,0,0,0-1.327-1.327H292.36a1.327,1.327,0,1,0,0,2.654h1.173A1.327,1.327,0,0,0,294.861,227.44Z" transform="translate(-239.531 -186.972)" fill="#fff"/>
    <path id="Caminho_598" data-name="Caminho 598" d="M203.852,359.867h1.205a1.327,1.327,0,1,0,0-2.654h-1.205a1.327,1.327,0,0,0,0,2.654Z" transform="translate(-166.686 -294.872)" fill="#fff"/>
    <path id="Caminho_599" data-name="Caminho 599" d="M135.306,250.645a1.327,1.327,0,1,0,0-2.654h-1.161a1.327,1.327,0,1,0,0,2.654Z" transform="translate(-109.314 -204.978)" fill="#fff"/>
    <path id="Caminho_600" data-name="Caminho 600" d="M266.4,119.428a1.327,1.327,0,1,0,0-2.654h-1.616a1.327,1.327,0,1,0,0,2.654Z" transform="translate(-216.834 -96.981)" fill="#fff"/>
    <path id="Caminho_601" data-name="Caminho 601" d="M323.806,332.8a1.327,1.327,0,1,0,0,2.654h1.784a1.327,1.327,0,1,0,0-2.654Z" transform="translate(-265.413 -274.777)" fill="#fff"/>
  </g>
</svg>
