<svg xmlns="http://www.w3.org/2000/svg" width="456.728" height="661.162" viewBox="0 0 456.728 661.162">
  <g id="Camada_2" data-name="Camada 2" transform="translate(-0.011 0.043)">
    <g id="OBJECTS" transform="translate(0.011 -0.043)">
      <g id="Grupo_30" data-name="Grupo 30" transform="translate(0 23.092)" opacity="0.2">
        <path id="Caminho_34" data-name="Caminho 34" d="M427.458,344.267q-42.727,61.112-145.723,83.047-59.517,12.668-107,3.009A196.846,196.846,0,0,1,93.255,394.7a212.221,212.221,0,0,1-55.936-64A277.486,277.486,0,0,1,6.507,250.147Q-4.385,199.326,2.987,160.21a158.511,158.511,0,0,1,28.916-68A176.2,176.2,0,0,1,88.38,44.335a291.355,291.355,0,0,1,80.73-28.976q57.17-12.036,100.017-5.326a215.561,215.561,0,0,1,74.08,24.884A186.194,186.194,0,0,1,394.54,77.945a279.049,279.049,0,0,1,32.316,48.143,226.936,226.936,0,0,1,17.392,41.975c3.49,12.337,5.627,20.25,6.289,23.379Q470.215,283.276,427.458,344.267Z" transform="translate(-0.011 -7.632)" fill="#888cf0"/>
      </g>
      <ellipse id="Elipse_5" data-name="Elipse 5" cx="150.146" cy="23.199" rx="150.146" ry="23.199" transform="translate(66.585 614.765)" fill="#888cf0" opacity="0.2"/>
      <path id="Caminho_35" data-name="Caminho 35" d="M57.87,209.312,62.2,248.338l24.523-7.613-2.257-8.365L81.1,191.92Z" transform="translate(116.224 385.684)" fill="#efd7bc"/>
      <path id="Caminho_36" data-name="Caminho 36" d="M83.476,219.081,81.1,192,57.87,209.392l1.264,10.561C67.017,218.208,75.472,219.833,83.476,219.081Z" transform="translate(116.224 385.845)" fill="#e5ba9c"/>
      <path id="Caminho_37" data-name="Caminho 37" d="M83.984,205.91,90,210.062l21.454-3.009v21.063l-64.993,1.625s-1.535-3.009,2.136-7.823C53.142,215.779,83.984,205.91,83.984,205.91Z" transform="translate(92.668 413.789)" fill="#414074"/>
      <path id="Caminho_38" data-name="Caminho 38" d="M62.881,208.51c-6.5,2.768-12.487,5.807-14.353,8.275-3.671,4.814-2.136,7.823-2.136,7.823l24.072-.6A150.412,150.412,0,0,0,62.881,208.51Z" transform="translate(92.527 419.013)" fill="#fff"/>
      <path id="Caminho_39" data-name="Caminho 39" d="M49.038,214.288,46.18,218.26l64.993-1.625-.03-4.965Z" transform="translate(92.739 425.361)" fill="#fff"/>
      <path id="Caminho_40" data-name="Caminho 40" d="M58.586,213.621,56.51,203.24l14.142,1.835-4,14.353Z" transform="translate(113.492 408.425)" fill="#414074"/>
      <line id="Linha_1" data-name="Linha 1" x2="3.972" y2="5.145" transform="translate(160.734 625.176)" fill="none" stroke="#fff" stroke-linecap="round" stroke-miterlimit="10" stroke-width="0.68"/>
      <line id="Linha_2" data-name="Linha 2" x2="3.972" y2="5.175" transform="translate(165.609 623.099)" fill="none" stroke="#fff" stroke-linecap="round" stroke-miterlimit="10" stroke-width="0.68"/>
      <line id="Linha_3" data-name="Linha 3" x2="3.942" y2="5.175" transform="translate(170.754 621.234)" fill="none" stroke="#fff" stroke-linecap="round" stroke-miterlimit="10" stroke-width="0.68"/>
      <path id="Caminho_41" data-name="Caminho 41" d="M111.344,212,46.08,214.889v.993l65.444-2.317Z" transform="translate(92.539 426.024)" fill="#00344e"/>
      <path id="Caminho_42" data-name="Caminho 42" d="M87.52,210.082l4.333,39.026,24.523-7.583-2.257-8.395-3.37-40.41Z" transform="translate(175.789 387.291)" fill="#efd7bc"/>
      <path id="Caminho_43" data-name="Caminho 43" d="M113.116,220.723l-2.407-28.043L87.48,210.042l1.565,10.682a102.3,102.3,0,0,0,24.072,0Z" transform="translate(175.709 387.211)" fill="#e5ba9c"/>
      <path id="Caminho_44" data-name="Caminho 44" d="M113.623,206.7l6.018,4.182,21.454-3.009v21.213l-64.963,1.595s-1.565-3.009,2.106-7.793C82.781,216.63,113.623,206.7,113.623,206.7Z" transform="translate(152.244 415.376)" fill="#414074"/>
      <path id="Caminho_45" data-name="Caminho 45" d="M92.55,209.31c-6.529,2.768-12.487,5.807-14.383,8.275-3.671,4.784-2.106,7.793-2.106,7.793l24.072-.6A170.757,170.757,0,0,0,92.55,209.31Z" transform="translate(152.103 420.62)" fill="#fff"/>
      <path id="Caminho_46" data-name="Caminho 46" d="M78.668,215.058l-2.828,3.972,64.963-1.595V212.47Z" transform="translate(152.325 426.968)" fill="#fff"/>
      <path id="Caminho_47" data-name="Caminho 47" d="M88.236,214.411,86.16,204.03,100.3,205.9,96.33,220.248Z" transform="translate(173.057 410.012)" fill="#414074"/>
      <line id="Linha_4" data-name="Linha 4" x2="3.972" y2="5.175" transform="translate(249.949 627.553)" fill="none" stroke="#fff" stroke-linecap="round" stroke-miterlimit="10" stroke-width="0.68"/>
      <line id="Linha_5" data-name="Linha 5" x2="3.972" y2="5.145" transform="translate(254.824 625.507)" fill="none" stroke="#fff" stroke-linecap="round" stroke-miterlimit="10" stroke-width="0.68"/>
      <line id="Linha_6" data-name="Linha 6" x2="3.972" y2="5.145" transform="translate(259.969 623.641)" fill="none" stroke="#fff" stroke-linecap="round" stroke-miterlimit="10" stroke-width="0.68"/>
      <path id="Caminho_48" data-name="Caminho 48" d="M140.994,212.79,75.73,215.679v.993l65.444-2.287Z" transform="translate(152.104 427.611)" fill="#00344e"/>
      <path id="Caminho_49" data-name="Caminho 49" d="M50.788,125.7S38.271,264.471,72.362,409.532l33.61.993s-5.175-132.9-2.016-235.69l13.029.993s28.826,168.5,44.653,238.218l32.075,1.5s-18.445-228.168-24.764-293.011S50.788,125.7,50.788,125.7Z" transform="translate(97.489 190.007)" fill="#ffc979"/>
      <path id="Caminho_50" data-name="Caminho 50" d="M104,129.627h.9c-18.054-2.648-46.007-9.96-55.936-12.607-1.414,50.761,0,147.589,23.44,247.245l33.61.993S100.72,232.413,104,129.627Z" transform="translate(97.566 235.214)" fill="#1b242d" opacity="0.1"/>
      <path id="Caminho_51" data-name="Caminho 51" d="M170.191,142.3c-.692-7.583-1.324-14.262-1.835-19.739-6.349-64.843-118.161,3.009-118.161,3.009s-.722,8.214-1.354,22.748C107.635,154.79,151.806,146.726,170.191,142.3Z" transform="translate(98.083 189.983)" fill="#1b242d" opacity="0.1"/>
      <path id="Caminho_52" data-name="Caminho 52" d="M62.876,105.88l-27.5,18.234s-.512,1.685-1.2,4.3c-1.926.963-12.818,6.62-10.471,8.184,1.444.993,5.386,0,8.455-.782-3.731,14.323-8.184,33.911,2.648,9.538,0,0-8.666,47.21,5.266.933,0,0-7.161,46.458,5.446,1.143,0,0-6.379,35.536,4.513,1.685C63.93,105.94,62.876,105.88,62.876,105.88Z" transform="translate(46.916 212.835)" fill="#efd7bc"/>
      <path id="Caminho_53" data-name="Caminho 53" d="M55.665,105.88l-27.5,18.234s-.512,1.685-1.2,4.3L46.4,137.925C56.538,105.94,55.665,105.88,55.665,105.88Z" transform="translate(54.128 212.835)" fill="#e5ba9c"/>
      <path id="Caminho_54" data-name="Caminho 54" d="M217.318,154.929s75.524-118.1,64.722-137.779-109.285-9-109.285-9V29.215l64.211,10.892-43.63,67.7s-66.8,0-91.472,10.712S26.34,327.431,26.34,327.431L52.4,338.173S70.9,288.285,88.5,240.292c-1.565,26.6-1.9,54.672.963,76.668,0,0,64.752,18.054,132.544-1.5C221.921,315.456,208.05,210.985,217.318,154.929Z" transform="translate(52.882 10.691)" fill="#9f5bae"/>
      <path id="Caminho_55" data-name="Caminho 55" d="M46.76,133.547c.361,6.349.873,12.457,1.595,18.054,0,0,64.752,18.054,132.544-1.5,0,0-3.671-27.893-6.018-62.556C137.239,112.454,92.406,125.663,46.76,133.547Z" transform="translate(93.905 175.991)" fill="#1b242d" opacity="0.1"/>
      <path id="Caminho_56" data-name="Caminho 56" d="M99.072,5.58C84.99,6.423,75,7.506,75,7.506V28.568l21.363,3.611C96.935,23.393,98.079,14.486,99.072,5.58Z" transform="translate(150.637 11.338)" fill="#1b242d" opacity="0.1"/>
      <path id="Caminho_57" data-name="Caminho 57" d="M52.438,259.78S70.943,209.892,88.545,161.9c-1.053,17.873,4.122-66.829,8.485-117.62C71.153,74.369,26.32,249.159,26.32,249.159Z" transform="translate(52.842 89.084)" fill="#1b242d" opacity="0.1"/>
      <path id="Caminho_58" data-name="Caminho 58" d="M103.529,24.86,106.3,68.008l14.082.542S87.01,96.112,60.2,72.823l14.714-1.956L72.868,47.728Z" transform="translate(120.905 50.07)" fill="#efd7bc"/>
      <path id="Caminho_59" data-name="Caminho 59" d="M95.893,40.567l-.9-15.707L64.45,47.728l1.5,17.241C75.132,62.983,90.869,56.785,95.893,40.567Z" transform="translate(129.443 50.07)" fill="#e5ba9c"/>
      <path id="Caminho_60" data-name="Caminho 60" d="M81.4,22.07s-2.768,15.045-5.627,16.008S74.9,23.725,74.9,23.725Z" transform="translate(149.084 44.465)" fill="#414074"/>
      <path id="Caminho_61" data-name="Caminho 61" d="M53.55,21.086s0,32.767,1.9,51.874S71,99.228,82.707,98.536c13.811-.842,35.6-13.3,34.874-29.127l-.632-29.1s2.528-24.072-13.691-31.744S56.619,4.447,53.55,21.086Z" transform="translate(107.545 9.583)" fill="#efd7bc"/>
      <path id="Caminho_62" data-name="Caminho 62" d="M76.493,25.946s2.227-12.4,8-9.93,5.567,25.757-6.018,24.553S76.493,25.946,76.493,25.946Z" transform="translate(146.136 31.652)" fill="#efd7bc"/>
      <path id="Caminho_63" data-name="Caminho 63" d="M127.124,51.024v8.395l-4.9-.873-.512-9.538a27.381,27.381,0,0,1-14.022-21.544S98.659,38.477,85.119,38.477l7.011-6.5a74.11,74.11,0,0,1-32.105,8l-.481-8L48.5,38S56.022-.128,86.5.383,109.07,18.918,109.07,18.918,112.079,4.9,129.11,8.9s5.536,39.628,5.536,39.628S128.628,42,127.124,51.024Z" transform="translate(97.4 0.888)" fill="#414074"/>
      <path id="Caminho_64" data-name="Caminho 64" d="M56.63,3.094S94.242-8.941,103.269,14.137s-29.608,3.52-29.608,3.52Z" transform="translate(113.733 0.043)" fill="#414074"/>
      <path id="Caminho_65" data-name="Caminho 65" d="M63.52,20.071a44.654,44.654,0,0,0,2.8,3.731c.963,1.083,2.106,2.227,3.28,2.227s2.166-1.023,3.009-2.2,1.5-2.648,2.317-4.032a10.5,10.5,0,0,1-.481,2.347A20.552,20.552,0,0,1,73.57,24.4a7.822,7.822,0,0,1-.632,1.083,3.731,3.731,0,0,1-.873.963,3.009,3.009,0,0,1-1.143.782,2.648,2.648,0,0,1-1.444.271,6.018,6.018,0,0,1-4.092-3.009,13.239,13.239,0,0,1-1.865-4.423Z" transform="translate(127.575 39.905)" fill="#001228"/>
      <path id="Caminho_66" data-name="Caminho 66" d="M54.84,20.581a45.771,45.771,0,0,0,2.8,3.7c.963,1.113,2.136,2.257,3.28,2.257s2.2-1.023,3.009-2.2,1.5-2.648,2.317-4.032a12.914,12.914,0,0,1-.451,2.347,15.873,15.873,0,0,1-.873,2.257A5.806,5.806,0,0,1,64.258,26a3.73,3.73,0,0,1-.873.963,2.829,2.829,0,0,1-1.143.752,2.377,2.377,0,0,1-1.444.3A6.018,6.018,0,0,1,56.706,25a15.315,15.315,0,0,1-1.866-4.423Z" transform="translate(110.137 40.93)" fill="#001228"/>
      <path id="Caminho_67" data-name="Caminho 67" d="M62.19,17.38a107,107,0,0,1-.752,11.615c-.181,1.926-.421,3.851-.722,5.747s-.542,3.851-.933,5.747l-.181-.421c2.166,1.805,4.273,3.671,6.349,5.627Q62.431,43.317,59,40.82l-.211-.15v-.361a46.873,46.873,0,0,1,.542-5.777c.241-1.926.421-3.851.722-5.777A113.98,113.98,0,0,1,62.19,17.38Z" transform="translate(118.072 35.043)" fill="#ccab8b"/>
      <path id="Caminho_68" data-name="Caminho 68" d="M61.79,15.789a5.567,5.567,0,0,0,5.536,5.025c4.995,0,12.517-1.023,16.038,4.513a6.018,6.018,0,0,0-4.513-8.666,81.513,81.513,0,0,0-17.061-.873Z" transform="translate(124.099 31.61)" fill="#414074"/>
      <path id="Caminho_69" data-name="Caminho 69" d="M71.976,15.593s-.391,5.025-4.544,5.025-10.321-.993-13.209,4.513c0,0-2.467-7.011,3.731-8.515a55.907,55.907,0,0,1,14.022-1.023Z" transform="translate(107.925 31.294)" fill="#414074"/>
      <path id="Caminho_70" data-name="Caminho 70" d="M59.46,33.985A9.418,9.418,0,0,1,63.793,29.2a11.8,11.8,0,0,1,6.469-1.324,18.9,18.9,0,0,1,6.319,1.685c.933.512,1.926.963,2.828,1.535a31.786,31.786,0,0,1,2.618,1.866c-1.986-.812-3.912-1.685-5.867-2.347a22.176,22.176,0,0,0-6.018-1.264A11.675,11.675,0,0,0,59.46,33.985Z" transform="translate(119.418 56.051)" fill="#ccab8b"/>
      <path id="Caminho_71" data-name="Caminho 71" d="M68.185,21.88s-2.648,10.531,1.866,10.531S68.185,21.88,68.185,21.88Z" transform="translate(135.396 44.084)" fill="#fff"/>
      <path id="Caminho_72" data-name="Caminho 72" d="M42.044,62s63.188,4.9,64.121-16.038S84.59,28.121,84.59,28.121s.662-22.6-19.769-21.273S49.235,26.676,49.235,26.676,32.746,17.2,29.466,37.96c0,0-20.1-7.282-17.693,12.758C12.857,59.444,42.044,62,42.044,62Z" transform="translate(23.217 13.772)" fill="#ffc979"/>
    </g>
  </g>
</svg>
