<svg id="Camada_2" data-name="Camada 2" xmlns="http://www.w3.org/2000/svg" width="785.117" height="464.586" viewBox="0 0 785.117 464.586">
  <g id="Character">
    <rect id="Retângulo_38" data-name="Retângulo 38" width="116.814" height="90.098" transform="translate(185.175 312.174) rotate(180)" fill="#f5f5f5"/>
    <path id="Caminho_324" data-name="Caminho 324" d="M87.152,287.488c.157,0,.292-20.077.292-44.864s-.135-44.864-.292-44.864-.292,20.077-.292,44.864S87.017,287.488,87.152,287.488Z" transform="translate(10.483 24.048)" fill="#ebebeb"/>
    <rect id="Retângulo_39" data-name="Retângulo 39" width="8.95" height="10.128" transform="translate(87.227 301.8) rotate(180)" fill="#fafafa"/>
    <rect id="Retângulo_40" data-name="Retângulo 40" width="13.268" height="19.224" transform="translate(136.274 222.301)" fill="#ebebeb"/>
    <rect id="Retângulo_41" data-name="Retângulo 41" width="13.268" height="19.224" transform="translate(136.274 292.681)" fill="#ebebeb"/>
    <rect id="Retângulo_42" data-name="Retângulo 42" width="192.847" height="148.735" transform="translate(36.856 313.442)" fill="#ebebeb"/>
    <path id="Caminho_325" data-name="Caminho 325" d="M161.831,427.191c-.213,0-.381-33.154-.381-74.025s.168-74.025.381-74.025.381,33.143.381,74.025S162.067,427.191,161.831,427.191Z" transform="translate(19.553 33.943)" fill="#e0e0e0"/>
    <rect id="Retângulo_43" data-name="Retângulo 43" width="14.783" height="16.712" transform="translate(198.556 428.327)" fill="#fafafa"/>
    <rect id="Retângulo_44" data-name="Retângulo 44" width="21.905" height="31.741" transform="translate(95.683 313.823)" fill="#e0e0e0"/>
    <rect id="Retângulo_45" data-name="Retângulo 45" width="21.905" height="31.741" transform="translate(95.683 429.998)" fill="#e0e0e0"/>
    <path id="Caminho_326" data-name="Caminho 326" d="M339.808,45.892a13.627,13.627,0,0,1-5.608,0,13.628,13.628,0,0,1,5.608,0Z" transform="translate(40.559 5.546)" fill="#ebebeb"/>
    <path id="Caminho_327" data-name="Caminho 327" d="M349.808,45.892a13.627,13.627,0,0,1-5.608,0,13.627,13.627,0,0,1,5.608,0Z" transform="translate(41.775 5.546)" fill="#ebebeb"/>
    <path id="Caminho_328" data-name="Caminho 328" d="M359.808,45.892a13.627,13.627,0,0,1-5.608,0,13.628,13.628,0,0,1,5.608,0Z" transform="translate(42.991 5.546)" fill="#ebebeb"/>
    <path id="Caminho_329" data-name="Caminho 329" d="M369.808,45.892a13.627,13.627,0,0,1-5.608,0,13.628,13.628,0,0,1,5.608,0Z" transform="translate(44.207 5.546)" fill="#ebebeb"/>
    <path id="Caminho_330" data-name="Caminho 330" d="M379.808,45.892a13.627,13.627,0,0,1-5.608,0,13.628,13.628,0,0,1,5.608,0Z" transform="translate(45.423 5.546)" fill="#ebebeb"/>
    <path id="Caminho_331" data-name="Caminho 331" d="M389.808,45.892a13.627,13.627,0,0,1-5.608,0,13.628,13.628,0,0,1,5.608,0Z" transform="translate(46.639 5.546)" fill="#ebebeb"/>
    <path id="Caminho_332" data-name="Caminho 332" d="M399.808,45.892a13.627,13.627,0,0,1-5.608,0,13.628,13.628,0,0,1,5.608,0Z" transform="translate(47.855 5.546)" fill="#ebebeb"/>
    <path id="Caminho_333" data-name="Caminho 333" d="M409.808,45.892a13.627,13.627,0,0,1-5.608,0,13.627,13.627,0,0,1,5.608,0Z" transform="translate(49.071 5.546)" fill="#ebebeb"/>
    <path id="Caminho_334" data-name="Caminho 334" d="M419.808,45.892a13.627,13.627,0,0,1-5.608,0,13.628,13.628,0,0,1,5.608,0Z" transform="translate(50.287 5.546)" fill="#ebebeb"/>
    <path id="Caminho_335" data-name="Caminho 335" d="M429.808,45.892a13.627,13.627,0,0,1-5.608,0,13.628,13.628,0,0,1,5.608,0Z" transform="translate(51.502 5.546)" fill="#ebebeb"/>
    <path id="Caminho_336" data-name="Caminho 336" d="M439.808,45.892a13.627,13.627,0,0,1-5.608,0,13.628,13.628,0,0,1,5.608,0Z" transform="translate(52.718 5.546)" fill="#ebebeb"/>
    <path id="Caminho_337" data-name="Caminho 337" d="M449.808,45.892a13.627,13.627,0,0,1-5.608,0,13.628,13.628,0,0,1,5.608,0Z" transform="translate(53.934 5.546)" fill="#ebebeb"/>
    <path id="Caminho_338" data-name="Caminho 338" d="M459.808,45.892a13.627,13.627,0,0,1-5.608,0,13.627,13.627,0,0,1,5.608,0Z" transform="translate(55.15 5.546)" fill="#ebebeb"/>
    <path id="Caminho_339" data-name="Caminho 339" d="M469.808,45.892a13.627,13.627,0,0,1-5.608,0,13.628,13.628,0,0,1,5.608,0Z" transform="translate(56.366 5.546)" fill="#ebebeb"/>
    <path id="Caminho_340" data-name="Caminho 340" d="M479.808,45.892a13.627,13.627,0,0,1-5.608,0,13.628,13.628,0,0,1,5.608,0Z" transform="translate(57.582 5.546)" fill="#ebebeb"/>
    <path id="Caminho_341" data-name="Caminho 341" d="M489.808,45.892a13.627,13.627,0,0,1-5.608,0,13.628,13.628,0,0,1,5.608,0Z" transform="translate(58.798 5.546)" fill="#ebebeb"/>
    <path id="Caminho_342" data-name="Caminho 342" d="M499.808,45.892a13.628,13.628,0,0,1-5.608,0,13.628,13.628,0,0,1,5.608,0Z" transform="translate(60.014 5.546)" fill="#ebebeb"/>
    <path id="Caminho_343" data-name="Caminho 343" d="M509.808,45.892a13.627,13.627,0,0,1-5.608,0,13.628,13.628,0,0,1,5.608,0Z" transform="translate(61.23 5.546)" fill="#ebebeb"/>
    <path id="Caminho_344" data-name="Caminho 344" d="M519.808,45.892a13.627,13.627,0,0,1-5.608,0,13.628,13.628,0,0,1,5.608,0Z" transform="translate(62.446 5.546)" fill="#ebebeb"/>
    <path id="Caminho_345" data-name="Caminho 345" d="M529.808,45.892a13.628,13.628,0,0,1-5.608,0,13.628,13.628,0,0,1,5.608,0Z" transform="translate(63.662 5.546)" fill="#ebebeb"/>
    <path id="Caminho_346" data-name="Caminho 346" d="M539.808,45.892a13.628,13.628,0,0,1-5.608,0,13.628,13.628,0,0,1,5.608,0Z" transform="translate(64.878 5.546)" fill="#ebebeb"/>
    <path id="Caminho_347" data-name="Caminho 347" d="M549.808,45.892a13.627,13.627,0,0,1-5.608,0,13.628,13.628,0,0,1,5.608,0Z" transform="translate(66.094 5.546)" fill="#ebebeb"/>
    <path id="Caminho_348" data-name="Caminho 348" d="M559.808,45.892a13.627,13.627,0,0,1-5.608,0,13.628,13.628,0,0,1,5.608,0Z" transform="translate(67.31 5.546)" fill="#ebebeb"/>
    <path id="Caminho_349" data-name="Caminho 349" d="M561.8,53.9a6.81,6.81,0,0,1-.292-2.8,6.854,6.854,0,0,1,.292-2.8,7.077,7.077,0,0,1,.292,2.8A7.033,7.033,0,0,1,561.8,53.9Z" transform="translate(68.194 5.873)" fill="#ebebeb"/>
    <path id="Caminho_350" data-name="Caminho 350" d="M561.8,63.9a6.81,6.81,0,0,1-.292-2.8,6.854,6.854,0,0,1,.292-2.8,7.077,7.077,0,0,1,.292,2.8A7.033,7.033,0,0,1,561.8,63.9Z" transform="translate(68.194 7.089)" fill="#ebebeb"/>
    <path id="Caminho_351" data-name="Caminho 351" d="M561.8,73.9a6.81,6.81,0,0,1-.292-2.8,6.854,6.854,0,0,1,.292-2.8,7.077,7.077,0,0,1,.292,2.8A7.033,7.033,0,0,1,561.8,73.9Z" transform="translate(68.194 8.305)" fill="#ebebeb"/>
    <path id="Caminho_352" data-name="Caminho 352" d="M561.8,83.9a6.81,6.81,0,0,1-.292-2.8,6.854,6.854,0,0,1,.292-2.8,7.077,7.077,0,0,1,.292,2.8A7.033,7.033,0,0,1,561.8,83.9Z" transform="translate(68.194 9.52)" fill="#ebebeb"/>
    <path id="Caminho_353" data-name="Caminho 353" d="M561.8,93.9a6.81,6.81,0,0,1-.292-2.8,6.854,6.854,0,0,1,.292-2.8,7.077,7.077,0,0,1,.292,2.8A7.033,7.033,0,0,1,561.8,93.9Z" transform="translate(68.194 10.736)" fill="#ebebeb"/>
    <path id="Caminho_354" data-name="Caminho 354" d="M563.988,101.711c0,.146-.931.258-2.243.292h-.28v-.908a6.852,6.852,0,0,1,.291-2.8,7.078,7.078,0,0,1,.292,2.8v.617l-.28-.28a5.2,5.2,0,0,1,2.221.28Z" transform="translate(68.189 11.952)" fill="#ebebeb"/>
    <path id="Caminho_355" data-name="Caminho 355" d="M574.318,101.372a13.134,13.134,0,0,1-5.608,0,13.628,13.628,0,0,1,5.608,0Z" transform="translate(69.074 12.292)" fill="#ebebeb"/>
    <path id="Caminho_356" data-name="Caminho 356" d="M584.318,101.372a13.134,13.134,0,0,1-5.608,0,13.628,13.628,0,0,1,5.608,0Z" transform="translate(70.29 12.292)" fill="#ebebeb"/>
    <path id="Caminho_357" data-name="Caminho 357" d="M594.318,101.372a13.134,13.134,0,0,1-5.608,0,13.628,13.628,0,0,1,5.608,0Z" transform="translate(71.506 12.292)" fill="#ebebeb"/>
    <path id="Caminho_358" data-name="Caminho 358" d="M604.318,101.372a13.134,13.134,0,0,1-5.608,0,13.627,13.627,0,0,1,5.608,0Z" transform="translate(72.722 12.292)" fill="#ebebeb"/>
    <path id="Caminho_359" data-name="Caminho 359" d="M614.318,101.372a13.134,13.134,0,0,1-5.608,0,13.628,13.628,0,0,1,5.608,0Z" transform="translate(73.938 12.292)" fill="#ebebeb"/>
    <path id="Caminho_360" data-name="Caminho 360" d="M624.318,101.372a13.134,13.134,0,0,1-5.608,0,13.628,13.628,0,0,1,5.608,0Z" transform="translate(75.154 12.292)" fill="#ebebeb"/>
    <path id="Caminho_361" data-name="Caminho 361" d="M634.318,101.372a13.134,13.134,0,0,1-5.608,0,13.627,13.627,0,0,1,5.608,0Z" transform="translate(76.37 12.292)" fill="#ebebeb"/>
    <path id="Caminho_362" data-name="Caminho 362" d="M644.318,101.372a13.134,13.134,0,0,1-5.608,0,13.628,13.628,0,0,1,5.608,0Z" transform="translate(77.586 12.292)" fill="#ebebeb"/>
    <path id="Caminho_363" data-name="Caminho 363" d="M647.636,108.068a6.854,6.854,0,0,1-.292-2.8,6.854,6.854,0,0,1,.292-2.8,7.078,7.078,0,0,1,.292,2.8A7.077,7.077,0,0,1,647.636,108.068Z" transform="translate(78.631 12.459)" fill="#ebebeb"/>
    <path id="Caminho_364" data-name="Caminho 364" d="M647.636,118.068a6.854,6.854,0,0,1-.292-2.8,6.854,6.854,0,0,1,.292-2.8,7.078,7.078,0,0,1,.292,2.8A7.077,7.077,0,0,1,647.636,118.068Z" transform="translate(78.631 13.675)" fill="#ebebeb"/>
    <path id="Caminho_365" data-name="Caminho 365" d="M647.636,128.068a6.854,6.854,0,0,1-.292-2.8,6.854,6.854,0,0,1,.292-2.8A13.629,13.629,0,0,1,647.636,128.068Z" transform="translate(78.631 14.891)" fill="#ebebeb"/>
    <path id="Caminho_366" data-name="Caminho 366" d="M647.632,138.068a13.627,13.627,0,0,1,0-5.608,13.63,13.63,0,0,1,0,5.608Z" transform="translate(78.635 16.107)" fill="#ebebeb"/>
    <path id="Caminho_367" data-name="Caminho 367" d="M647.632,148.068a13.627,13.627,0,0,1,0-5.608A13.629,13.629,0,0,1,647.632,148.068Z" transform="translate(78.635 17.323)" fill="#ebebeb"/>
    <path id="Caminho_368" data-name="Caminho 368" d="M647.632,158.068a13.627,13.627,0,0,1,0-5.608A13.629,13.629,0,0,1,647.632,158.068Z" transform="translate(78.635 18.539)" fill="#ebebeb"/>
    <path id="Caminho_369" data-name="Caminho 369" d="M647.632,168.068a13.627,13.627,0,0,1,0-5.608A13.629,13.629,0,0,1,647.632,168.068Z" transform="translate(78.635 19.755)" fill="#ebebeb"/>
    <path id="Caminho_370" data-name="Caminho 370" d="M647.632,178.068a13.627,13.627,0,0,1,0-5.608A13.629,13.629,0,0,1,647.632,178.068Z" transform="translate(78.635 20.971)" fill="#ebebeb"/>
    <path id="Caminho_371" data-name="Caminho 371" d="M647.632,188.068a13.627,13.627,0,0,1,0-5.608A13.629,13.629,0,0,1,647.632,188.068Z" transform="translate(78.635 22.187)" fill="#ebebeb"/>
    <path id="Caminho_372" data-name="Caminho 372" d="M647.632,198.068a13.627,13.627,0,0,1,0-5.608,13.63,13.63,0,0,1,0,5.608Z" transform="translate(78.635 23.403)" fill="#ebebeb"/>
    <path id="Caminho_373" data-name="Caminho 373" d="M647.632,208.068a13.627,13.627,0,0,1,0-5.608A13.629,13.629,0,0,1,647.632,208.068Z" transform="translate(78.635 24.619)" fill="#ebebeb"/>
    <path id="Caminho_374" data-name="Caminho 374" d="M401.7,62.973S393,58.15,384.463,78.765,373,111.067,373,111.067s-2.333,4.363-5.395,1.873-7.571-9.87-12.338-8.109c-4.913,1.839-6.124,7.571-4.486,15.7s4.486,26.167,4.711,27.793-.482,4.049-2.838,2.681-16.353-14.67-22.275-7.661,2.243,29.027,3.129,31.4.46,3.511-.673,4.217-5.406-4.217-9.545-7.851-9.567-7.1-12.64-2.77-2.838,21.31,15.388,47.477l9.242,11.575,14.738-1.985c31.293-6.169,43.249-18.215,44.045-23.475s-5.529-6.528-11.014-6.73-12,.3-12.338-.987.146-2.355,2.445-3.511,23.475-11.283,24.092-20.447-18.708-9.3-21.31-9.96-1.469-2.916-.18-3.9,15.882-11.967,22.7-16.723,9.926-9.724,7.672-14.457c-2.243-4.554-10.554-2.367-14.48-2.714s-2.591-5.092-2.591-5.092,6.034-10.464,14.188-31.2-1.716-23.329-1.716-23.329" transform="translate(37.515 7.598)" fill="#ebebeb"/>
    <path id="Caminho_375" data-name="Caminho 375" d="M332.9,222.339c6.045-15.209,14.581-36.149,24.081-59.254s18.091-44.011,24.26-59.187c3.051-7.571,5.529-13.706,7.246-17.946l1.974-4.879.527-1.267c.123-.28.2-.426.2-.426a1.142,1.142,0,0,1-.146.449c-.146.292-.28.729-.482,1.279l-1.884,4.924c-1.649,4.273-4.071,10.431-7.1,18.035C375.532,119.275,367,140.215,357.5,163.309s-18.136,43.989-24.26,59.209" transform="translate(40.401 9.653)" fill="#e0e0e0"/>
    <path id="Caminho_376" data-name="Caminho 376" d="M355.55,109.66a4.718,4.718,0,0,1,.46.965c.269.639.617,1.57,1.054,2.725.852,2.243,1.963,5.518,3.107,9.085l2.894,9.163c.359,1.122.651,2.008.9,2.77a4.194,4.194,0,0,1,.28,1.032,4.341,4.341,0,0,1-.471-.965c-.258-.639-.617-1.57-1.043-2.725-.83-2.31-1.9-5.541-3.04-9.119s-2.165-6.73-2.961-9.13l-.909-2.77A4.42,4.42,0,0,1,355.55,109.66Z" transform="translate(43.155 13.335)" fill="#e0e0e0"/>
    <path id="Caminho_377" data-name="Caminho 377" d="M364.53,133.942c0-.135,6.472-2.7,14.581-5.731s14.715-5.395,14.76-5.26-6.483,2.7-14.581,5.731S364.575,134.077,364.53,133.942Z" transform="translate(44.247 14.95)" fill="#e0e0e0"/>
    <path id="Caminho_378" data-name="Caminho 378" d="M350.09,164.138a4.329,4.329,0,0,1,1.122-.146l2.961-.236c2.5-.191,5.956-.471,9.747-.92s7.234-.953,9.713-1.346l2.927-.46a4.386,4.386,0,0,1,1.122-.1,4.667,4.667,0,0,1-1.043.3c-.684.157-1.682.37-2.916.617-2.468.471-5.9,1.054-9.7,1.492s-7.279.673-9.792.774c-1.256,0-2.243.079-2.972.067A4.992,4.992,0,0,1,350.09,164.138Z" transform="translate(42.491 19.569)" fill="#e0e0e0"/>
    <path id="Caminho_379" data-name="Caminho 379" d="M337.37,144.69a8.333,8.333,0,0,1,.651.774c.393.516.942,1.279,1.615,2.243,1.357,1.9,3.185,4.486,5.182,7.436s3.791,5.608,5.058,7.526c.639.965,1.122,1.761,1.492,2.31a3.61,3.61,0,0,1,.482.886,4.162,4.162,0,0,1-.651-.774c-.393-.516-.942-1.279-1.615-2.243-1.346-1.9-3.185-4.486-5.182-7.436s-3.791-5.608-5.058-7.526c-.639-.965-1.122-1.761-1.48-2.31a3.992,3.992,0,0,1-.493-.886Z" transform="translate(40.944 17.594)" fill="#e0e0e0"/>
    <path id="Caminho_380" data-name="Caminho 380" d="M321.15,170.47a6.732,6.732,0,0,1,.819,1.009l2.075,2.838c1.75,2.411,4.116,5.754,6.73,9.477s4.924,7.1,6.595,9.567l1.952,2.927a6.021,6.021,0,0,1,.651,1.122,6.986,6.986,0,0,1-.819-1l-2.075-2.838c-1.75-2.411-4.116-5.765-6.73-9.477s-4.924-7.1-6.595-9.567c-.774-1.178-1.436-2.153-1.952-2.927A5.845,5.845,0,0,1,321.15,170.47Z" transform="translate(38.972 20.729)" fill="#e0e0e0"/>
    <path id="Caminho_381" data-name="Caminho 381" d="M337.69,194.345a7.255,7.255,0,0,1,1.368-.224l3.746-.415c3.163-.37,7.526-.875,12.338-1.57s9.141-1.436,12.281-1.985l3.712-.651a7.6,7.6,0,0,1,1.368-.179,6.562,6.562,0,0,1-1.335.37c-.864.213-2.12.493-3.679.808-3.129.651-7.459,1.447-12.27,2.131s-9.2,1.122-12.338,1.424c-1.593.135-2.871.224-3.769.269a7.618,7.618,0,0,1-1.424.022Z" transform="translate(40.983 23.021)" fill="#e0e0e0"/>
    <path id="Caminho_382" data-name="Caminho 382" d="M691.273,236.207A39.4,39.4,0,1,0,617.9,256.116h0l.112.146c1.514,2.546,3.365,4.363,5.316,7.044l22.881,30.283a7.111,7.111,0,0,0,11.362,0l22.5-29.8a83.122,83.122,0,0,0,5.72-7.593l.09-.1h0A39.087,39.087,0,0,0,691.273,236.207Zm-39.4,17.16a17.351,17.351,0,1,1,17.34-17.347,17.351,17.351,0,0,1-17.34,17.347Z" transform="translate(74.395 23.925)" fill="#f5f5f5"/>
    <path id="Caminho_383" data-name="Caminho 383" d="M516.84,75.9v46.322a1.806,1.806,0,0,0,1.806,1.806h97.175a1.806,1.806,0,0,0,1.806-1.806l-.224-16.97a1.784,1.784,0,0,0-.359-1.054L603.1,85.553a1.783,1.783,0,0,0-1.424-.718l-16.061-.123a1.806,1.806,0,0,1-1.795-1.806V75.9a1.806,1.806,0,0,0-1.75-1.806H518.7A1.806,1.806,0,0,0,516.84,75.9Z" transform="translate(62.767 9.01)" fill="#f5f5f5"/>
    <path id="Caminho_384" data-name="Caminho 384" d="M580.59,87.306v14.872a1.032,1.032,0,0,0,1.054,1.032l21.445-.381a1.032,1.032,0,0,0,.841-1.615L593.9,86.42a1.122,1.122,0,0,0-.886-.46l-11.418.314a1.032,1.032,0,0,0-1.009,1.032Z" transform="translate(70.519 10.453)" fill="#ebebeb"/>
    <rect id="Retângulo_46" data-name="Retângulo 46" width="104.679" height="3.23" transform="translate(577.644 134.469)" fill="#f5f5f5"/>
    <circle id="Elipse_9" data-name="Elipse 9" cx="10.352" cy="10.352" r="10.352" transform="translate(587.276 135.698) rotate(-45)" fill="#ebebeb"/>
    <path id="Caminho_385" data-name="Caminho 385" d="M543.483,121.66a6.1,6.1,0,1,1-6.09-6.09A6.1,6.1,0,0,1,543.483,121.66Z" transform="translate(64.523 14.054)" fill="#fafafa"/>
    <path id="Caminho_386" data-name="Caminho 386" d="M576.541,124.046c-.269,0-.471-11.216-.471-24.978s.2-24.978.471-24.978.471,11.216.471,24.978S576.8,124.046,576.541,124.046Z" transform="translate(69.969 9.01)" fill="#ebebeb"/>
    <circle id="Elipse_10" data-name="Elipse 10" cx="10.352" cy="10.352" r="10.352" transform="translate(643.689 135.701) rotate(-45)" fill="#ebebeb"/>
    <path id="Caminho_387" data-name="Caminho 387" d="M593.793,121.66a6.1,6.1,0,1,1-6.1-6.09,6.1,6.1,0,0,1,6.1,6.09Z" transform="translate(70.64 14.054)" fill="#fafafa"/>
    <path id="Caminho_388" data-name="Caminho 388" d="M587.79,104.051c0,.258-1.492.471-3.365.471s-3.365-.213-3.365-.471,1.481-.471,3.365-.471S587.79,103.748,587.79,104.051Z" transform="translate(70.576 12.596)" fill="#ebebeb"/>
    <path id="Caminho_389" data-name="Caminho 389" d="M785.187,412.1c0,.168-175.788.292-392.559.292S.07,412.27.07,412.1s175.754-.292,392.615-.292S785.187,411.945,785.187,412.1Z" transform="translate(-0.07 50.075)" fill="#263238"/>
    <path id="Caminho_390" data-name="Caminho 390" d="M146.59,418.973c15.108-10.476,18.6-30.014,18.069-47.6-.09-2.927.247-6.023-1.122-8.6s-4.632-4.341-7.268-3.118c-2.187,1.021-3.14,3.544-4.363,5.608A17.25,17.25,0,0,1,145,371.81c-1.873.953-4.184,1.548-6.023.516-2.524-1.4-2.815-4.9-2.782-7.851q.09-8.154.157-16.308a27.064,27.064,0,0,0-.852-8.67c-.9-2.77-2.894-5.35-5.608-6.146s-6.214.808-6.808,3.656a26.132,26.132,0,0,0-.09,3.634,3.1,3.1,0,0,1-1.806,2.883c-1.122.336-2.333-.493-3.208-1.346-2.995-2.961-5.025-6.73-6.92-10.543s-3.735-7.649-6.46-10.868-6.494-5.787-10.666-6.034-8.647,2.31-9.713,6.4,1.312,8.3,3.914,11.631a65.055,65.055,0,0,0,13.459,12.977,5.384,5.384,0,0,1,2.243,2.445c.628,1.952-1.223,3.869-3.14,4.486-2.176.718-4.542.482-6.819.74s-4.744,1.256-5.608,3.365c-1.2,2.983,1.279,6.113,3.724,8.165a55.5,55.5,0,0,0,16.476,9.59,18.91,18.91,0,0,1,6.124,3.006c1.727,1.514,2.759,4.139,1.716,6.191s-3.746,2.7-5.989,2.243-4.251-1.649-6.393-2.468c-4-1.525-9.186-1.267-11.766,2.187a9.253,9.253,0,0,0-1.009,8.165,21.311,21.311,0,0,0,4.4,7.223A56.08,56.08,0,0,0,119.436,418c9.3,3.264,17.946,4.161,27.165.819" transform="translate(10.13 38.269)" fill="#b6298f"/>
    <path id="Caminho_391" data-name="Caminho 391" d="M145.109,423.647c-.617-6.965-.931-7.111-3.5-15.983a262.728,262.728,0,0,0-10.285-28.186q-1.548-3.668-3.073-7.246c-1.009-2.378-2.019-4.733-3.14-6.976a129.772,129.772,0,0,0-7.212-12.528c-2.49-3.869-4.991-7.459-7.346-10.8s-4.643-6.393-6.831-9.1a103.288,103.288,0,0,0-11.216-11.979c-1.436-1.312-2.591-2.243-3.365-2.939l-.9-.729c-.2-.168-.3-.247-.314-.236a2.447,2.447,0,0,0,.28.28l.864.774c.763.673,1.884,1.671,3.3,3.006a109.831,109.831,0,0,1,11.1,12.068c2.165,2.7,4.408,5.776,6.73,9.119s4.834,6.931,7.3,10.8a131.712,131.712,0,0,1,7.156,12.495c1.122,2.243,2.109,4.576,3.129,6.954l3.062,7.246a268.056,268.056,0,0,1,10.285,28.163c2.591,8.838,2.939,8.973,3.589,15.871" transform="translate(10.613 38.54)" fill="#263238"/>
    <path id="Caminho_392" data-name="Caminho 392" d="M120.94,363.479a6.281,6.281,0,0,0,.292-1.245c.157-.807.348-1.974.55-3.432.426-2.9.875-6.931,1.346-11.373s.987-8.457,1.447-11.351c.236-1.447.426-2.613.572-3.421a5.777,5.777,0,0,0,.168-1.267,6.057,6.057,0,0,0-.37,1.223c-.213.8-.46,1.963-.74,3.365-.561,2.883-1.122,6.909-1.6,11.362s-.875,8.356-1.189,11.384c-.157,1.368-.28,2.524-.381,3.443A6.4,6.4,0,0,0,120.94,363.479Z" transform="translate(14.627 40.296)" fill="#263238"/>
    <path id="Caminho_393" data-name="Caminho 393" d="M87.52,353.633a7.481,7.481,0,0,0,1.492.191c.965.09,2.355.2,4.071.415,3.432.381,8.165,1.122,13.347,2.075s9.825,2.109,13.168,3.006c1.671.437,3.017.83,3.948,1.122A9.137,9.137,0,0,0,125,360.8a7.841,7.841,0,0,0-1.4-.561c-.909-.336-2.243-.774-3.9-1.267-3.365-1-7.975-2.165-13.168-3.174a130.784,130.784,0,0,0-13.459-1.918c-1.727-.157-3.129-.224-4.105-.247A8.235,8.235,0,0,0,87.52,353.633Z" transform="translate(10.564 42.997)" fill="#263238"/>
    <path id="Caminho_394" data-name="Caminho 394" d="M135.38,402.407a2.353,2.353,0,0,0,.258-.46l.65-1.357c.55-1.178,1.312-2.9,2.243-5.047,1.828-4.3,4.161-10.3,6.651-16.959s4.756-12.685,6.494-17.015c.852-2.1,1.548-3.825,2.064-5.115.224-.561.4-1.021.561-1.391a2.939,2.939,0,0,0,.157-.5,2.666,2.666,0,0,0-.258.46c-.146.314-.393.808-.651,1.346-.55,1.189-1.312,2.916-2.243,5.058-1.828,4.284-4.161,10.3-6.651,16.959s-4.756,12.685-6.494,17.015l-2.086,5.1-.561,1.4a2.938,2.938,0,0,0-.135.5Z" transform="translate(16.383 43.114)" fill="#263238"/>
    <path id="Caminho_395" data-name="Caminho 395" d="M91,382.74a2.123,2.123,0,0,0,.494.2l1.447.494,5.328,1.75c4.486,1.469,10.7,3.589,17.542,5.933s13.055,4.4,17.6,5.776c2.243.7,4.105,1.234,5.384,1.593l1.469.393a2.961,2.961,0,0,0,.527.1,2.072,2.072,0,0,0-.494-.213l-1.447-.482-5.339-1.795c-4.486-1.481-10.7-3.589-17.542-5.933s-13.067-4.408-17.6-5.787c-2.243-.7-4.105-1.234-5.384-1.581l-1.469-.393A1.6,1.6,0,0,0,91,382.74Z" transform="translate(10.987 46.54)" fill="#263238"/>
    <path id="Caminho_396" data-name="Caminho 396" d="M322.873,462.176h-156.1C147.9,462.1,132,446.014,132,427.149l1.66-393.131A34.153,34.153,0,0,1,168.037,0l156.81.729a34.153,34.153,0,0,1,34.007,34.3l-1.66,393.142a34.164,34.164,0,0,1-34.321,34.007Z" transform="translate(15.972 0.001)" fill="#263238"/>
    <path id="Caminho_397" data-name="Caminho 397" d="M323.49,14.078l-30.4-.146a7.537,7.537,0,0,0-7.447,7.649V27.1a7.537,7.537,0,0,1-7.414,7.683l-59.265-.28a7.56,7.56,0,0,1-7.346-7.75V21.245a7.571,7.571,0,0,0-7.346-7.761h-10.7l-26.6-.123a23.935,23.935,0,0,0-24.036,23.823L141.32,420.914a23.924,23.924,0,0,0,23.811,24.025l156.5.718a23.924,23.924,0,0,0,24.036-23.823l1.671-383.776a23.912,23.912,0,0,0-23.845-23.98Z" transform="translate(17.105 1.625)" fill="#f5f5f5"/>
    <path id="Caminho_398" data-name="Caminho 398" d="M244.572,334.234c-.179,4.632-.348,8.973-.482,12.6h22.432L263.819,333Z" transform="translate(29.602 40.492)" fill="#f5f5f5"/>
    <path id="Caminho_399" data-name="Caminho 399" d="M163.07,339.86l.191,6.819H251.7c.146-3.836.314-8.076.482-12.45Z" transform="translate(19.75 40.642)" fill="#f5f5f5"/>
    <path id="Caminho_400" data-name="Caminho 400" d="M262.68,333.249l2.77,13.885h41.443L306.4,330.49Z" transform="translate(31.862 40.187)" fill="#f5f5f5"/>
    <path id="Caminho_401" data-name="Caminho 401" d="M247.906,165.051l7.829-45.436L235.21,118.09v46.961Z" transform="translate(28.522 14.36)" fill="#f5f5f5"/>
    <path id="Caminho_402" data-name="Caminho 402" d="M163.842,316.76l-22.275,8.726-.067,15.781,23-1.458Z" transform="translate(17.127 38.517)" fill="#f5f5f5"/>
    <path id="Caminho_403" data-name="Caminho 403" d="M163.733,319.806l-1.223-42.318h-.022V262.56l-20.649,2.187-.269,63.718,22.152-8.681Z" transform="translate(17.136 31.927)" fill="#f5f5f5"/>
    <path id="Caminho_404" data-name="Caminho 404" d="M162.457,233.154l-20.492-2.714-.146,34.837,20.637-2.187Z" transform="translate(17.166 28.021)" fill="#f5f5f5"/>
    <path id="Caminho_405" data-name="Caminho 405" d="M299.128,263.186l-.864,12.136-24.2,2.6,1.873,9.6,27.479-2.075L303,271.687l2.2-9.107Z" transform="translate(33.246 31.929)" fill="#f5f5f5"/>
    <path id="Caminho_406" data-name="Caminho 406" d="M257.71,288.683l19.3-1.458-4.206-21.535-16.846,1.7Z" transform="translate(31.045 32.308)" fill="#f5f5f5"/>
    <path id="Caminho_407" data-name="Caminho 407" d="M257.68,288.582l1.48,17.957,2.613,24.63,1.077,5.395,44.09-2.782-1.469-48.812Z" transform="translate(31.254 34.652)" fill="#f5f5f5"/>
    <path id="Caminho_408" data-name="Caminho 408" d="M195.84,218.617l1.694,2.9-34,19.841V288.4l35.891-2.546,69.158-6.976-2.535-30.833-66.062-8.636.437-3.365,65.344,8.535-4.285-52.188L196.8,198.619l-.213-2.243,64.716-6.214-2.243-27.232H196.872l-54.644,9.937-.258,62.361,20.682,2.737Zm-28.825,65.288s.258-38.785,0-40.232l27.748-14.76,3.589,53.018Z" transform="translate(17.184 19.812)" fill="#f5f5f5"/>
    <path id="Caminho_409" data-name="Caminho 409" d="M297.115,263.33l-25.135,2.535,1.907,9.758,22.522-2.423Z" transform="translate(32.993 32.021)" fill="#f5f5f5"/>
    <path id="Caminho_410" data-name="Caminho 410" d="M244.836,326.69q-.112,3.062-.236,6.057l18.708-1.122-.965-4.834Z" transform="translate(29.664 39.725)" fill="#f5f5f5"/>
    <path id="Caminho_411" data-name="Caminho 411" d="M216.986,165.691l3.3-14.94H245.4v-32.1l-78.534-5.821v30.137l-24.529,5.552-.112,27.053,54.319-9.881Z" transform="translate(17.215 13.72)" fill="#f5f5f5"/>
    <path id="Caminho_412" data-name="Caminho 412" d="M258.251,86.168l-.673-2.748,30-11.866L268.065,32.387a6.73,6.73,0,0,1-1.122.09L233.8,32.32l.908,54.812Z" transform="translate(28.351 3.931)" fill="#f5f5f5"/>
    <path id="Caminho_413" data-name="Caminho 413" d="M299.655,67.407V13.941l-21.826-.1a7.537,7.537,0,0,0-7.481,7.683v5.518a7.851,7.851,0,0,1-3.208,6.326l19.527,39.189Z" transform="translate(32.405 1.684)" fill="#f5f5f5"/>
    <path id="Caminho_414" data-name="Caminho 414" d="M200.209,69.765l-2.535-56.293h-6.079l-23.711-.112L157.79,63.708Zm-5.417-50.6.819,45.851-31.539-4.61L170.98,19.17Z" transform="translate(19.108 1.625)" fill="#f5f5f5"/>
    <path id="Caminho_415" data-name="Caminho 415" d="M196.91,69.92v.471c.056,4.4.146,12.338.213,20.761l41.308-1.682-.908-54.857-25-.123a7.56,7.56,0,0,1-7.346-7.75V21.231a7.571,7.571,0,0,0-7.346-7.761h-3.5l2.535,56.45Z" transform="translate(23.551 1.639)" fill="#f5f5f5"/>
    <path id="Caminho_416" data-name="Caminho 416" d="M156.273,63.195l10-49.855a23.924,23.924,0,0,0-23.486,23.8l-.1,24.855.1-.729Z" transform="translate(17.272 1.623)" fill="#f5f5f5"/>
    <path id="Caminho_417" data-name="Caminho 417" d="M163.483,112.779l-21.007-1.559-.146,34.04,21.153-4.778Z" transform="translate(17.228 13.525)" fill="#f5f5f5"/>
    <path id="Caminho_418" data-name="Caminho 418" d="M156.074,58.978,142.716,57.06l-.236,55.126,2.871.213Z" transform="translate(17.246 6.939)" fill="#f5f5f5"/>
    <path id="Caminho_419" data-name="Caminho 419" d="M196.234,317.817l.348-44.247-35.341,2.5,1.245,43.35Z" transform="translate(19.528 33.266)" fill="#f5f5f5"/>
    <path id="Caminho_420" data-name="Caminho 420" d="M198.416,308.374l50.057,23.98c.594-15.7,1.122-30.283,1.122-31.259l1.122-.056.527-1.054c.718.348.718.348.336,11.036-.2,5.956-.5,13.885-.8,21.826H268.09l-2.636-24.058-3.365-41.5L196.7,273.885Z" transform="translate(23.839 32.502)" fill="#f5f5f5"/>
    <path id="Caminho_421" data-name="Caminho 421" d="M314.185,239.074l-.561-5.844-59.994,6.247,2.524,30.743,51.8-5.227Z" transform="translate(30.762 28.361)" fill="#f5f5f5"/>
    <path id="Caminho_422" data-name="Caminho 422" d="M236.917,149.64H214.507l-2.557,11.575h24.967Z" transform="translate(25.694 18.196)" fill="#f5f5f5"/>
    <path id="Caminho_423" data-name="Caminho 423" d="M305.683,153.541,249.6,149.66l-2.243,13.257,2.355,28.78,59.2-5.686Zm-54.061,9.354,3.006-8.367,48.756,3.084,2.826,23.935-52.939,6.281Z" transform="translate(29.999 18.199)" fill="#f5f5f5"/>
    <path id="Caminho_424" data-name="Caminho 424" d="M311.249,209.509l-2.468-25.449-59.231,5.686,2.221,27.1Z" transform="translate(30.266 22.382)" fill="#f5f5f5"/>
    <path id="Caminho_425" data-name="Caminho 425" d="M164.575,339.314l-22.982,1.458-.1-1.492-.022,6.786h23.3Z" transform="translate(17.124 41.256)" fill="#f5f5f5"/>
    <path id="Caminho_426" data-name="Caminho 426" d="M327.955,54.748l.336.864.1-17.631A23.924,23.924,0,0,0,304.547,14H297.1V67.029Z" transform="translate(36.048 1.703)" fill="#f5f5f5"/>
    <path id="Caminho_427" data-name="Caminho 427" d="M252.6,332.847l-51.1-24.484-1.795-35.072-2.142.213-.359,45.425-34.826,1.649v1.009h0L163.053,345l89.268-5.608C252.433,337.21,252.511,335.023,252.6,332.847Zm-88.034-9.41,48.745-3.365,31.708,14.7-80.452,4.363Z" transform="translate(19.666 33.232)" fill="#f5f5f5"/>
    <path id="Caminho_428" data-name="Caminho 428" d="M314.848,107.582l2.086-12.338c-18.316-6.539-19.583-25.651-19.538-31.4L285.44,68.506l18.013,36.149Z" transform="translate(34.63 7.763)" fill="#f5f5f5"/>
    <path id="Caminho_429" data-name="Caminho 429" d="M253.575,238.477l24.911-2.591-4.913-22.006-21.793,2.692Z" transform="translate(30.537 26.008)" fill="#f5f5f5"/>
    <path id="Caminho_430" data-name="Caminho 430" d="M305.472,119.812H258.949l-3.869-.292-5.249,30.474,55.227,3.813-1.279-13.246L309.207,121Z" transform="translate(30.3 14.534)" fill="#f5f5f5"/>
    <path id="Caminho_431" data-name="Caminho 431" d="M303.424,120.341,304,105.76,285.714,69.05,257.36,80.266l9.747,40.019ZM284.615,73.559l16.757,31.876-2.423,9.937-28.668-1.122L263.1,84.1Z" transform="translate(31.215 8.397)" fill="#f5f5f5"/>
    <path id="Caminho_432" data-name="Caminho 432" d="M304.88,272.543l.852,28.567,20.166-1.133.056,1.122-20.189,1.133,1.032,34.186,19.056-1.2L326,337.45l-19.134,1.211.5,17h18.574l.4-95.324-18.989,1.918Z" transform="translate(36.994 31.657)" fill="#f5f5f5"/>
    <path id="Caminho_433" data-name="Caminho 433" d="M201.426,65.324,158.738,59.2,148.06,112.386l53.545,3.97C201.829,108.169,201.639,83.045,201.426,65.324Z" transform="translate(17.925 7.199)" fill="#f5f5f5"/>
    <path id="Caminho_434" data-name="Caminho 434" d="M261.107,118.849h6.449L258.415,81.32,234.66,82.3l.572,34.646Z" transform="translate(28.455 9.889)" fill="#f5f5f5"/>
    <path id="Caminho_435" data-name="Caminho 435" d="M141.37,369.67v0Z" transform="translate(17.111 44.951)" fill="#f5f5f5"/>
    <path id="Caminho_436" data-name="Caminho 436" d="M196.78,113.635l41.936,3.107-.572-34.512-41.308,1.682C196.915,95.588,196.959,108.038,196.78,113.635Z" transform="translate(23.849 10)" fill="#f5f5f5"/>
    <path id="Caminho_437" data-name="Caminho 437" d="M308.808,209.74l-36.6,4.509,4.913,22.017,33.917-3.522Z" transform="translate(33.021 25.504)" fill="#f5f5f5"/>
    <path id="Caminho_438" data-name="Caminho 438" d="M315.708,95.451l2.344-13.908,10.094.785.123-29.958L297.112,64.708C296.484,85.782,309.73,93.2,315.708,95.451Z" transform="translate(36.047 6.369)" fill="#f5f5f5"/>
    <path id="Caminho_439" data-name="Caminho 439" d="M302.99,140.712l1.279,13.145,22.824,1.581.112-27.064-19.112-6.034Z" transform="translate(36.764 14.877)" fill="#f5f5f5"/>
    <path id="Caminho_440" data-name="Caminho 440" d="M313.331,239.483l-6,24.911,18.731-1.9.112-26.144c-5.754-1.514-10.767-2.737-13.459-3.264Z" transform="translate(37.292 28.344)" fill="#f5f5f5"/>
    <path id="Caminho_441" data-name="Caminho 441" d="M301.41,116.589l26.021,8.221.056-14.794-25.55-6.606Z" transform="translate(36.572 12.575)" fill="#f5f5f5"/>
    <path id="Caminho_442" data-name="Caminho 442" d="M312.375,235.915a135.8,135.8,0,0,1,13.807,3.2l.236-57.2-19.067,1.839Z" transform="translate(37.294 22.12)" fill="#f5f5f5"/>
    <path id="Caminho_443" data-name="Caminho 443" d="M307.471,185.009l19.314-1.862.123-28.118L304.42,153.47Z" transform="translate(36.938 18.662)" fill="#f5f5f5"/>
    <path id="Caminho_444" data-name="Caminho 444" d="M315.61,92.747a104.814,104.814,0,0,0,10.229,2.6V81.161l-8.221-.651Z" transform="translate(38.298 9.79)" fill="#f5f5f5"/>
    <path id="Caminho_445" data-name="Caminho 445" d="M313.6,104.669l12.416,3.208.056-12.82c-3.208-.651-6.73-1.514-10.4-2.647Z" transform="translate(38.054 11.237)" fill="#f5f5f5"/>
    <path id="Caminho_446" data-name="Caminho 446" d="M164.563,378.958l.191,6.73h1.122l-.191-6.819L254.8,373.26c-.168,4.374-.336,8.614-.482,12.45h2.243c.135-3.612.3-7.963.482-12.6l19.247-1.245,2.748,13.818h1.122l-2.748-13.818,43.742-2.759.493,16.644h5.608l-.5-17,19.134-1.211-.146-2.243-19.067,1.211-1.032-34.186,20.189-1.122-.056-1.122L325.579,331.2l-.852-28.567,2.479-10.285,18.977-1.974v-1.122l-18.7,1.862,6-24.933-.617-6.371c2.692.527,7.705,1.75,13.459,3.264v-3.488c-7.728-2.041-11.709-2.883-13.807-3.2l-5.047-52.132,19.067-1.839v-2.243l-19.314,1.862L324.177,170.5l22.488,1.559v-3.365l-22.824-1.581-1.211-13.134,5.1-18.383,19.067,6.034v-5.866l-26.021-8.221.527-13.179,25.55,6.606v-3.477l-12.416-3.208,2.075-12.259c3.724,1.122,7.189,2,10.4,2.647V103.55c-3.163-.628-6.561-1.492-10.229-2.6l2.064-12.237,8.221.651V87.119l-10.094-.785-2.344,13.908c-5.978-2.243-19.224-9.668-18.585-30.754L347.1,57.15V55.691l-.336-.864-30.72,12.2V14h-1.122V67.468l-12.988,5.148L282.409,33.428A7.01,7.01,0,0,1,279.28,34.7L298.8,73.861l-30,11.866.662,2.748-23.5.965-.909-54.812h-1.122l.908,54.857-41.308,1.682c-.067-8.457-.157-16.364-.213-20.761v-.471h0l-2.535-56.45h-1.122l2.535,56.293-42.43-6.09L169.857,13.34h-3.443l-10,49.855L142.95,61.266l-.1.729v.381l13.358,1.918-10.79,53.422-2.871-.213v5.608l21.007,1.559v27.7L142.4,157.162v3.455l24.529-5.608V124.928l78.512,5.821v32.1H220.362l-3.3,14.985H196.618l-54.33,9.881v3.365l54.633-9.881h62.226l2.243,27.232-64.716,6.214.213,2.243,64.682-6.225,4.284,52.188-65.344-8.535-.437,3.365,66.062,8.636,2.535,30.833-69.158,6.976-35.891,2.546V259.553l34-19.841-1.727-2.9-33.222,19.381-20.615-2.737v3.365l20.5,2.7v29.935l-20.649,2.187v3.365l20.66-2.187v14.928h0l1.223,42.318h0l-22.152,8.681v3.612l22.275-8.726.662,23.049-23,1.458v.751l.1,1.492Zm92.565-8.109q.112-2.995.236-6.057h17.508l.965,4.834Zm19.841-1.223-1.122-5.395-2.613-24.675-1.48-17.946,47.836-3.578,1.469,48.812Zm10.891-73.364,25.135-2.535-.7,9.87-22.533,2.423Zm-1.122.112,4.206,21.546-19.3,1.447-1.75-21.31Zm32.784,19.415-27.479,2.075-1.873-9.6,24.2-2.6.864-12.136,6.068-.606-2.243,9.107ZM287,238.3l4.913,22.006L267,262.9l-1.795-21.9Zm6.034,21.882-4.913-22.017,36.6-4.486,2.243,23Zm25.213-93.429-55.227-3.813,5.26-30.474,3.858.292h46.524l3.735,1.189-5.429,19.561Zm-3.365-96.827c0,5.787,1.223,24.9,19.538,31.4l-2.086,12.338-11.4-2.95-18-36.071Zm-15.1,5.978,18.282,36.71-.572,14.581H281.186L271.44,87.1ZM269.724,89.62l9.163,37.495h-6.449l-25.875-1.907-.572-34.646ZM244.847,90.64l.572,34.512-41.936-3.107c.179-5.608.135-18.046.056-29.722Zm-85.331-25.8L202.2,70.968c.213,17.721.4,42.845.179,51.033l-53.545-3.97ZM267.11,132.42l-7.851,45.436H246.6V130.827Zm-44.056,33.861h22.432v11.552H220.564Zm37.069,13.28,2.243-13.257,56.08,3.881,3.14,32.47-59.2,5.686ZM321.9,204.886l2.456,25.449-59.445,7.335-2.243-27.1Zm-54.644,61.329,59.994-6.247.561,5.844-6.236,25.92-51.8,5.227Zm4.9,73.453,2.557,24.058H257.408c.292-7.941.594-15.871.8-21.826.381-10.689.381-10.689-.336-11.036l-.527,1.054-1.122.056c.056.931-.482,15.59-1.122,31.259l-50.057-23.98-1.761-34.467,65.389-6.6Zm-73.184-34.455-.348,44.225-33.749,1.593-1.245-43.35Zm-34.029,48h0v-1.009l34.792-1.649.359-45.425,2.142-.213,1.795,35.072,51.1,24.484c-.09,2.176-.168,4.363-.247,6.539l-89.268,5.608Z" transform="translate(17.136 1.623)" fill="#fff"/>
    <path id="Caminho_447" data-name="Caminho 447" d="M213.075,314.98l-48.745,3.41v15.657l80.452-4.363Z" transform="translate(19.903 38.301)" fill="#ebebeb"/>
    <path id="Caminho_448" data-name="Caminho 448" d="M302.922,157.084,254.166,154l-3.006,8.367,1.649,24.933,52.939-6.281Z" transform="translate(30.462 18.727)" fill="#ebebeb"/>
    <path id="Caminho_449" data-name="Caminho 449" d="M165.148,404.528l156.5.718a23.924,23.924,0,0,0,24.036-23.823l.146-36.093H141.482l-.112,27.3v8.591A23.912,23.912,0,0,0,165.148,404.528Z" transform="translate(17.112 41.991)" fill="#ebebeb"/>
    <path id="Caminho_450" data-name="Caminho 450" d="M194.918,64.391l-.808-45.851H170.3L163.39,59.781Z" transform="translate(19.789 2.255)" fill="#ebebeb"/>
    <path id="Caminho_451" data-name="Caminho 451" d="M298.325,114.883l2.423-9.937L283.991,73.07l-21.5,10.588,7.167,30.148Z" transform="translate(31.839 8.886)" fill="#ebebeb"/>
    <path id="Caminho_452" data-name="Caminho 452" d="M164.33,236.524c.258,1.447,0,40.232,0,40.232l31.337-2.008-3.589-53.018Z" transform="translate(19.903 26.962)" fill="#ebebeb"/>
    <path id="Caminho_453" data-name="Caminho 453" d="M257.7,266.355l-1.649-24.036L309.8,235.41v4.15L303.3,261.667Z" transform="translate(31.056 28.626)" fill="#ebebeb"/>
    <path id="Caminho_454" data-name="Caminho 454" d="M223.49,85.98a6.55,6.55,0,1,1-6.539-6.55,6.55,6.55,0,0,1,6.539,6.55Z" transform="translate(25.504 9.659)" fill="#e8505b"/>
    <g id="Grupo_49" data-name="Grupo 49" transform="translate(235.901 89.095)" opacity="0.6">
      <path id="Caminho_455" data-name="Caminho 455" d="M223.489,85.677a6.55,6.55,0,1,1-6.808-6.236,6.55,6.55,0,0,1,6.808,6.236Z" transform="translate(-210.396 -79.435)" fill="#fff"/>
    </g>
    <circle id="Elipse_11" data-name="Elipse 11" cx="4.352" cy="4.352" r="4.352" transform="translate(238.104 91.063)" fill="#c40096"/>
    <path id="Caminho_456" data-name="Caminho 456" d="M307.066,318.724a2.793,2.793,0,1,1-.814-1.982,2.793,2.793,0,0,1,.814,1.982Z" transform="translate(36.58 38.415)" fill="#8c006b"/>
    <path id="Caminho_457" data-name="Caminho 457" d="M316.6,345.947l-.673-15.7-47.253,2.3a7.145,7.145,0,0,1-3.567-.763l-67.015-33.85a4.857,4.857,0,0,1-2.669-4.083L186.3,116.95a2.95,2.95,0,0,1,3.174-3.1l28.724,2.12V84.57h3.365v31.887a2.961,2.961,0,0,1-3.185,2.95l-28.69-2.12,9.1,176.382a1.458,1.458,0,0,0,.819,1.245l67.015,33.85a3.8,3.8,0,0,0,1.9.4l47.634-2.31a2.95,2.95,0,0,1,3.118,2.838l.7,16.072Z" transform="translate(22.574 10.284)" fill="#b6298f"/>
    <circle id="Elipse_12" data-name="Elipse 12" cx="8.479" cy="8.479" r="8.479" transform="translate(205.88 195.573)" fill="#b6298f"/>
    <circle id="Elipse_13" data-name="Elipse 13" cx="5.888" cy="5.888" r="5.888" transform="translate(208.471 198.164)" fill="#5e0048"/>
    <path id="Caminho_458" data-name="Caminho 458" d="M191.875,188.929a6.315,6.315,0,1,1,6.315-6.315,6.315,6.315,0,0,1-6.315,6.315Zm0-11.777a5.473,5.473,0,1,0,5.473,5.462,5.473,5.473,0,0,0-5.473-5.462Z" transform="translate(22.485 21.438)" fill="#5e0048"/>
    <path id="Caminho_459" data-name="Caminho 459" d="M240.493,150.22H200.115a3.555,3.555,0,0,0-3.555,3.555v14.581a3.555,3.555,0,0,0,3.555,3.555h.471V175.4l4.038-3.488h35.891a3.555,3.555,0,0,0,3.555-3.555V153.775a3.555,3.555,0,0,0-3.578-3.555Z" transform="translate(23.822 18.267)" fill="#8c006b"/>
    <g id="Grupo_50" data-name="Grupo 50" transform="translate(220.382 168.487)" opacity="0.4">
      <path id="Caminho_460" data-name="Caminho 460" d="M240.493,150.22H200.115a3.555,3.555,0,0,0-3.555,3.555v14.581a3.555,3.555,0,0,0,3.555,3.555h.471V175.4l4.038-3.488h35.891a3.555,3.555,0,0,0,3.555-3.555V153.775a3.555,3.555,0,0,0-3.578-3.555Z" transform="translate(-196.56 -150.22)" fill="#fff"/>
    </g>
    <path id="Caminho_461" data-name="Caminho 461" d="M204.65,159.975a2.434,2.434,0,1,1,2.434,2.333,2.322,2.322,0,0,1-2.434-2.333Zm4.206,0a1.772,1.772,0,1,0-1.772,1.761,1.716,1.716,0,0,0,1.772-1.761Z" transform="translate(24.806 19.145)" fill="#fff"/>
    <path id="Caminho_462" data-name="Caminho 462" d="M213.388,160.538a1.682,1.682,0,0,1-1.75,1.761,1.458,1.458,0,0,1-1.234-.583v.55h-.594V157.42h.628v1.907a1.458,1.458,0,0,1,1.2-.55,1.671,1.671,0,0,1,1.75,1.761Zm-.628,0a.475.475,0,1,1-.022,0Z" transform="translate(25.434 19.142)" fill="#fff"/>
    <path id="Caminho_463" data-name="Caminho 463" d="M212.69,163.362l.2-.482a.74.74,0,0,0,.5.168c.336,0,.516-.213.516-.606v-3.623h.628v3.612a1.032,1.032,0,0,1-1.122,1.122A1.222,1.222,0,0,1,212.69,163.362Zm1.122-5.608a.415.415,0,0,1,.426-.4.4.4,0,0,1,.426.393.426.426,0,0,1-.852,0Z" transform="translate(25.784 19.134)" fill="#fff"/>
    <path id="Caminho_464" data-name="Caminho 464" d="M218.552,160.593h-2.8a1.122,1.122,0,0,0,1.245,1.009,1.279,1.279,0,0,0,1-.415l.348.4a1.884,1.884,0,0,1-3.219-1.2,1.694,1.694,0,0,1,1.738-1.761,1.66,1.66,0,0,1,1.7,1.772S218.552,160.537,218.552,160.593Zm-2.8-.449h2.243a1.054,1.054,0,0,0-1.122-.987,1.122,1.122,0,0,0-1.122,1.009Z" transform="translate(26.079 19.289)" fill="#fff"/>
    <path id="Caminho_465" data-name="Caminho 465" d="M218.68,160.391a1.727,1.727,0,0,1,1.817-1.761,1.525,1.525,0,0,1,1.413.729l-.471.314a1.122,1.122,0,0,0-.942-.494,1.211,1.211,0,0,0,0,2.423,1.122,1.122,0,0,0,.942-.493l.471.3a1.537,1.537,0,0,1-1.413.74,1.727,1.727,0,0,1-1.817-1.761Z" transform="translate(26.512 19.289)" fill="#fff"/>
    <path id="Caminho_466" data-name="Caminho 466" d="M224.316,161.993a1.178,1.178,0,0,1-.751.236.987.987,0,0,1-1.122-1.122v-1.9h-.583V158.7h.583V158h.7v.763h1v.516h-1v1.862a.5.5,0,0,0,.538.583.808.808,0,0,0,.494-.157Z" transform="translate(26.899 19.213)" fill="#fff"/>
    <path id="Caminho_467" data-name="Caminho 467" d="M224.63,157.749a.426.426,0,1,1,.426.4.4.4,0,0,1-.426-.4Zm.112,1.122h.628v3.455h-.628Z" transform="translate(27.236 19.128)" fill="#fff"/>
    <path id="Caminho_468" data-name="Caminho 468" d="M229.478,158.66l-1.514,3.455h-.639l-1.514-3.455h.651l1.189,2.77,1.211-2.77Z" transform="translate(27.379 19.293)" fill="#fff"/>
    <path id="Caminho_469" data-name="Caminho 469" d="M232.662,160.593h-2.8A1.122,1.122,0,0,0,231.1,161.6a1.279,1.279,0,0,0,1-.415l.348.4a1.884,1.884,0,0,1-3.219-1.2,1.694,1.694,0,0,1,1.727-1.761,1.671,1.671,0,0,1,1.716,1.772S232.662,160.537,232.662,160.593Zm-2.8-.449H232.1a1.122,1.122,0,1,0-2.243,0Z" transform="translate(27.795 19.289)" fill="#fff"/>
    <path id="Caminho_470" data-name="Caminho 470" d="M225.661,66.574a8.4,8.4,0,1,0-15.635,4.24h0c.325.538.729.931,1.122,1.5l4.868,6.449a1.514,1.514,0,0,0,2.423,0l4.789-6.348A17.876,17.876,0,0,0,224.45,70.8h0A8.266,8.266,0,0,0,225.661,66.574Zm-8.4,3.656a3.69,3.69,0,1,1,2.62-1.081,3.7,3.7,0,0,1-2.62,1.081Z" transform="translate(25.318 7.071)" fill="#b6298f"/>
    <path id="Caminho_471" data-name="Caminho 471" d="M175.548,360.594H174V360h3.78v.572h-1.537v3.993H175.6Z" transform="translate(21.079 43.775)" fill="#263238"/>
    <path id="Caminho_472" data-name="Caminho 472" d="M177.3,362.747a1.795,1.795,0,1,1,1.795,1.772,1.716,1.716,0,0,1-1.795-1.772Zm2.961,0a1.122,1.122,0,1,0-.291.859A1.122,1.122,0,0,0,180.261,362.747Z" transform="translate(21.48 43.888)" fill="#263238"/>
    <path id="Caminho_473" data-name="Caminho 473" d="M183.269,364.345a1.121,1.121,0,0,1-.763.247.987.987,0,0,1-1.122-1.122v-1.9h-.594v-.493h.594v-.751H182v.751h1v.516h-1v1.873a.516.516,0,0,0,.55.583.785.785,0,0,0,.482-.168Z" transform="translate(21.905 43.815)" fill="#263238"/>
    <path id="Caminho_474" data-name="Caminho 474" d="M186.445,362.382v2.086h-.594v-.449a1.3,1.3,0,0,1-1.122.493c-.785,0-1.279-.415-1.279-1.021s.359-1.009,1.391-1.009h.987v-.123c0-.527-.3-.841-.92-.841a1.716,1.716,0,0,0-1.122.381l-.258-.471a2.243,2.243,0,0,1,1.424-.449C185.917,361,186.445,361.44,186.445,362.382Zm-.628,1.032v-.482h-.965c-.617,0-.8.247-.8.538s.292.561.763.561a1,1,0,0,0,1-.617Z" transform="translate(22.228 43.894)" fill="#263238"/>
    <path id="Caminho_475" data-name="Caminho 475" d="M187.16,359.78h.628v4.834h-.628Z" transform="translate(22.679 43.749)" fill="#263238"/>
    <path id="Caminho_476" data-name="Caminho 476" d="M193.625,359.78v4.834h-.606v-.55a1.447,1.447,0,0,1-1.223.594,1.772,1.772,0,0,1,0-3.533,1.469,1.469,0,0,1,1.2.561V359.78Zm-.617,3.107a1.122,1.122,0,1,0-.291.859A1.122,1.122,0,0,0,193.008,362.887Z" transform="translate(23.045 43.749)" fill="#263238"/>
    <path id="Caminho_477" data-name="Caminho 477" d="M194.21,360.1a.415.415,0,0,1,.426-.415.412.412,0,1,1-.426.415Zm.112,1.066h.628v3.455h-.628Z" transform="translate(23.537 43.738)" fill="#263238"/>
    <path id="Caminho_478" data-name="Caminho 478" d="M195.54,364.109l.258-.494a2.244,2.244,0,0,0,1.211.359c.583,0,.83-.179.83-.471,0-.774-2.243-.112-2.243-1.481,0-.628.55-1.043,1.436-1.043a2.58,2.58,0,0,1,1.267.314l-.269.494a1.817,1.817,0,0,0-1-.269c-.55,0-.819.2-.819.471,0,.819,2.187.157,2.187,1.492,0,.628-.572,1.032-1.492,1.032A2.524,2.524,0,0,1,195.54,364.109Z" transform="translate(23.698 43.894)" fill="#263238"/>
    <path id="Caminho_479" data-name="Caminho 479" d="M200.848,364.345a1.121,1.121,0,0,1-.763.247,1,1,0,0,1-1.122-1.122v-1.9h-.583v-.493h.583v-.751h.628v.751h1v.516h-1v1.873a.516.516,0,0,0,.538.583.819.819,0,0,0,.494-.168Z" transform="translate(24.044 43.815)" fill="#263238"/>
    <path id="Caminho_480" data-name="Caminho 480" d="M204.015,362.384v2.086h-.594v-.449a1.3,1.3,0,0,1-1.122.493c-.785,0-1.279-.415-1.279-1.021s.359-1.009,1.391-1.009h.987v-.123c0-.527-.3-.841-.92-.841a1.716,1.716,0,0,0-1.122.381l-.258-.471a2.243,2.243,0,0,1,1.424-.449,1.29,1.29,0,0,1,1.492,1.4Zm-.628,1.032v-.482h-.965c-.617,0-.8.247-.8.538s.292.561.763.561a1,1,0,0,0,1-.617Z" transform="translate(24.365 43.893)" fill="#263238"/>
    <path id="Caminho_481" data-name="Caminho 481" d="M208.007,362.485v1.985h-.628v-1.918c0-.673-.336-1.009-.931-1.009a1.032,1.032,0,0,0-1.122,1.122v1.772h-.617V361h.594v.527a1.469,1.469,0,0,1,1.245-.561,1.346,1.346,0,0,1,1.458,1.514Z" transform="translate(24.813 43.893)" fill="#263238"/>
    <path id="Caminho_482" data-name="Caminho 482" d="M208.42,362.741a1.727,1.727,0,0,1,1.828-1.761,1.537,1.537,0,0,1,1.4.74l-.471.3a1.122,1.122,0,0,0-.942-.493,1.223,1.223,0,0,0,0,2.434,1.122,1.122,0,0,0,.942-.493l.471.292a1.514,1.514,0,0,1-1.4.751,1.738,1.738,0,0,1-1.828-1.772Z" transform="translate(25.264 43.894)" fill="#263238"/>
    <path id="Caminho_483" data-name="Caminho 483" d="M215.122,362.954h-2.8a1.122,1.122,0,0,0,1.245,1.01,1.279,1.279,0,0,0,1-.415l.348.4a1.884,1.884,0,0,1-3.219-1.211,1.694,1.694,0,0,1,1.738-1.761,1.66,1.66,0,0,1,1.7,1.783C215.133,362.819,215.122,362.9,215.122,362.954Zm-2.8-.449h2.243a1.122,1.122,0,0,0-2.243,0Z" transform="translate(25.662 43.894)" fill="#263238"/>
    <path id="Caminho_484" data-name="Caminho 484" d="M179.509,368.66v10.891H177v-8.872H174.81V368.66Z" transform="translate(21.178 44.828)" fill="#263238"/>
    <path id="Caminho_485" data-name="Caminho 485" d="M183.676,377.283a3.6,3.6,0,0,1-.426,1.548l-.886,2.243h-1.537l.684-2.467a1.346,1.346,0,0,1-.841-1.323,1.5,1.5,0,0,1,3.006,0Z" transform="translate(21.89 45.694)" fill="#263238"/>
    <path id="Caminho_486" data-name="Caminho 486" d="M188.389,368.66v10.891h-2.524v-8.872H183.69V368.66Z" transform="translate(22.257 44.828)" fill="#263238"/>
    <path id="Caminho_487" data-name="Caminho 487" d="M189.57,374.118c0-3.589,2-5.608,4.666-5.608s4.677,2.041,4.677,5.608-1.985,5.608-4.677,5.608S189.57,377.707,189.57,374.118Zm6.8,0c0-2.468-.864-3.5-2.131-3.5s-2.109,1.032-2.109,3.5.864,3.5,2.109,3.5S196.367,376.6,196.367,374.118Z" transform="translate(22.972 44.81)" fill="#263238"/>
    <path id="Caminho_488" data-name="Caminho 488" d="M199,374.118c0-3.589,2-5.608,4.666-5.608s4.666,2.041,4.666,5.608-1.974,5.608-4.666,5.608S199,377.707,199,374.118Zm6.8,0c0-2.468-.864-3.5-2.131-3.5s-2.12,1.032-2.12,3.5.875,3.5,2.12,3.5,2.12-1.021,2.12-3.5Z" transform="translate(24.119 44.81)" fill="#263238"/>
    <path id="Caminho_489" data-name="Caminho 489" d="M226.935,374.5v4.8h-2.423v-4.419c0-1.357-.617-1.985-1.593-1.985s-1.851.707-1.851,2.243v4.206h-2.434v-4.419c0-1.357-.583-1.985-1.593-1.985s-1.839.707-1.839,2.243v4.206H212.78v-8.468H215.1v.965a3.365,3.365,0,0,1,2.625-1.122,3.129,3.129,0,0,1,2.759,1.368,3.746,3.746,0,0,1,3.017-1.368C225.5,370.794,226.935,371.949,226.935,374.5Z" transform="translate(25.795 45.083)" fill="#263238"/>
    <circle id="Elipse_14" data-name="Elipse 14" cx="9.388" cy="9.388" r="9.388" transform="matrix(0.229, -0.973, 0.973, 0.229, 168.912, 419.596)" fill="#8c006b"/>
    <path id="Caminho_490" data-name="Caminho 490" d="M157.388,370.066a14.506,14.506,0,0,1,2.411-.146c1.537,0,3.724-.079,6.348-.1l-.191.415-2.389-2.77-.157-.168.146-.191,2.367-2.95.224.471h-8.76l.258-.258c0,2.849-.056,5.249-.1,6.931a16.659,16.659,0,0,1-.157,2.658,16.659,16.659,0,0,1-.157-2.658c0-1.682-.079-4.083-.1-6.931v-.258h9.646l-.381.471-2.389,2.95v-.359l2.355,2.8.348.415h-.55c-2.625,0-4.812-.067-6.348-.1A13.6,13.6,0,0,1,157.388,370.066Z" transform="translate(19.028 44.275)" fill="#fafafa"/>
    <path id="Caminho_491" data-name="Caminho 491" d="M299.826,353.61H271.439a5.44,5.44,0,0,0-5.429,5.44v22.342a5.429,5.429,0,0,0,5.429,5.428h.718v5.361l6.18-5.328h21.49a5.429,5.429,0,0,0,5.429-5.429V359.05a5.44,5.44,0,0,0-5.429-5.44Z" transform="translate(32.267 42.998)" fill="#b6298f"/>
    <path id="Caminho_492" data-name="Caminho 492" d="M273.26,362.791v11.5a.449.449,0,0,0,.449.449h24.025a.46.46,0,0,0,.449-.46l-.056-4.195a.448.448,0,0,0-.09-.258l-3.443-4.61a.437.437,0,0,0-.359-.179h-3.97a.437.437,0,0,1-.437-.437v-1.738a.449.449,0,0,0-.449-.449h-15.7A.449.449,0,0,0,273.26,362.791Z" transform="translate(33.149 44.068)" fill="#fafafa"/>
    <path id="Caminho_493" data-name="Caminho 493" d="M289,365.626v3.668a.258.258,0,0,0,.269.258l5.339-.1a.258.258,0,0,0,.2-.4l-2.445-3.645a.281.281,0,0,0-.224-.112l-2.815.078a.258.258,0,0,0-.325.258Z" transform="translate(35.063 44.419)" fill="#b6298f"/>
    <rect id="Retângulo_47" data-name="Retângulo 47" width="25.875" height="0.796" transform="translate(305.926 419.119)" fill="#fafafa"/>
    <path id="Caminho_494" data-name="Caminho 494" d="M281.014,374.277a2.557,2.557,0,1,1-2.557-2.557,2.557,2.557,0,0,1,2.557,2.557Z" transform="translate(33.47 45.2)" fill="#b6298f"/>
    <path id="Caminho_495" data-name="Caminho 495" d="M279.858,374.163a1.514,1.514,0,1,1-1.514-1.5,1.514,1.514,0,0,1,1.514,1.5Z" transform="translate(33.583 45.315)" fill="#fafafa"/>
    <path id="Caminho_496" data-name="Caminho 496" d="M288.012,374.71c-.067,0-.112-2.77-.112-6.18a60.727,60.727,0,0,1,.112-6.18,58.642,58.642,0,0,1,.123,6.18C288.136,371.94,288.091,374.71,288.012,374.71Z" transform="translate(34.929 44.061)" fill="#b6298f"/>
    <path id="Caminho_497" data-name="Caminho 497" d="M293.454,374.277a2.557,2.557,0,1,1-2.557-2.557,2.557,2.557,0,0,1,2.557,2.557Z" transform="translate(34.982 45.2)" fill="#b6298f"/>
    <path id="Caminho_498" data-name="Caminho 498" d="M292.328,374.163a1.514,1.514,0,1,1-1.5-1.5A1.514,1.514,0,0,1,292.328,374.163Z" transform="translate(35.099 45.315)" fill="#fafafa"/>
    <path id="Caminho_499" data-name="Caminho 499" d="M290.8,369.753c0,.067-.359.112-.819.112s-.819,0-.819-.112.37-.123.819-.123S290.8,369.686,290.8,369.753Z" transform="translate(35.082 44.946)" fill="#b6298f"/>
    <path id="Caminho_500" data-name="Caminho 500" d="M529.424,202s18.1,3.062,19.549,3.443,7.189,3.107,7.481,4.857a52.488,52.488,0,0,1,0,6.9s-1.032.841-1.682-.841a17.172,17.172,0,0,1-.55-5.014l-3.208-1.234,1.75,3.107.292,7.279s-2.243-.2-2.669-1.94a17.173,17.173,0,0,1-.426-3.69l-2.344-1.974,1.75,2.367.594,5.238s-1.7.561-2.243-.606a18.056,18.056,0,0,1-.583-4.632l-6.595-2.31-4.363,2.434-8.176-4.6Z" transform="translate(64.124 24.563)" fill="#ffbe9d"/>
    <path id="Caminho_501" data-name="Caminho 501" d="M473.776,162.14c.078.359,21.8,30.283,21.8,30.283l43.63,13.571-1.985,16.387-53.478-10.767-18.977-21.77Z" transform="translate(56.436 19.716)" fill="#7f0e65"/>
    <g id="Grupo_51" data-name="Grupo 51" transform="translate(521.206 181.856)" opacity="0.2">
      <path id="Caminho_502" data-name="Caminho 502" d="M473.776,162.14c.078.359,21.8,30.283,21.8,30.283l43.63,13.571-1.985,16.387-53.478-10.767-18.977-21.77Z" transform="translate(-464.77 -162.14)" fill="#7f0e65"/>
    </g>
    <rect id="Retângulo_48" data-name="Retângulo 48" width="95.986" height="17.374" rx="3.05" transform="translate(361.647 223.008)" fill="#f5f5f5"/>
    <path id="Caminho_503" data-name="Caminho 503" d="M415.063,216.257a2.928,2.928,0,0,0,.561-.079,3.365,3.365,0,0,0,2.748-2.95c0-1.054,0-2.311,0-3.7v-7.3a3.241,3.241,0,0,0-2.411-3.062,5.149,5.149,0,0,0-1.514-.1H404.038l-78.074.09a3.118,3.118,0,0,0-2.31,1.021,3.219,3.219,0,0,0-.819,2.411v9.769a4.286,4.286,0,0,0,.112,1.279,3.163,3.163,0,0,0,2.669,2.3h22.051l35.106.067,23.666.09,6.427.056h-6.427l-23.666.09-35.106.067H325.56a3.623,3.623,0,0,1-1.391-.449,3.69,3.69,0,0,1-1.783-2.243,5.318,5.318,0,0,1-.135-1.436v-9.769a3.858,3.858,0,0,1,.965-2.8,3.724,3.724,0,0,1,2.748-1.211l78.074.09h10.408a6.5,6.5,0,0,1,1.6.135,3.433,3.433,0,0,1,1.38.74,3.567,3.567,0,0,1,1.245,2.636c0,.931,0,1.817,0,2.669V209.3c0,1.4,0,2.636-.056,3.724a3.466,3.466,0,0,1-1.357,2.344,3.364,3.364,0,0,1-1.548.639,2.017,2.017,0,0,1-.65.247Z" transform="translate(39.105 24.124)" fill="#263238"/>
    <circle id="Elipse_15" data-name="Elipse 15" cx="45.862" cy="45.862" r="45.862" transform="translate(646.066 372.962) rotate(-2.75)" fill="#263238"/>
    <path id="Caminho_504" data-name="Caminho 504" d="M578,370.72v.123a45.861,45.861,0,1,0,91.713,1.312v-.123Z" transform="translate(70.203 45.079)" fill="#263238"/>
    <path id="Caminho_505" data-name="Caminho 505" d="M590.19,374.44a32.19,32.19,0,1,0,32.65-31.73,32.19,32.19,0,0,0-32.65,31.73Z" transform="translate(71.686 41.673)" fill="#fafafa"/>
    <path id="Caminho_506" data-name="Caminho 506" d="M622.84,342.71a32.2,32.2,0,0,0-32.65,31.73l64.38.931a32.2,32.2,0,0,0-31.73-32.661Z" transform="translate(71.686 41.673)" fill="#e0e0e0"/>
    <path id="Caminho_507" data-name="Caminho 507" d="M601.41,373.267A19.617,19.617,0,1,0,621.3,353.93,19.617,19.617,0,0,0,601.41,373.267Z" transform="translate(73.05 43.037)" fill="#263238"/>
    <path id="Caminho_508" data-name="Caminho 508" d="M602.936,311.657s46.961-14.2,66.376,36.811l-98.252,30.44Z" transform="translate(69.36 37.676)" fill="#b6298f"/>
    <circle id="Elipse_16" data-name="Elipse 16" cx="45.862" cy="45.862" r="45.862" transform="translate(363.099 372.968) rotate(-2.75)" fill="#263238"/>
    <path id="Caminho_509" data-name="Caminho 509" d="M325.731,370.72v.123a45.859,45.859,0,1,0,91.708,1.312.534.534,0,0,1-.007-.124Z" transform="translate(39.528 45.079)" fill="#263238"/>
    <path id="Caminho_510" data-name="Caminho 510" d="M337.9,374.44a32.2,32.2,0,1,0,32.638-31.73A32.2,32.2,0,0,0,337.9,374.44Z" transform="translate(41.008 41.673)" fill="#fafafa"/>
    <path id="Caminho_511" data-name="Caminho 511" d="M370.538,342.71A32.2,32.2,0,0,0,337.9,374.44l64.391.931A32.2,32.2,0,0,0,370.538,342.71Z" transform="translate(41.009 41.673)" fill="#e0e0e0"/>
    <path id="Caminho_512" data-name="Caminho 512" d="M349.12,373.267a19.605,19.605,0,1,0,5.94-13.793,19.617,19.617,0,0,0-5.94,13.793Z" transform="translate(42.373 43.037)" fill="#263238"/>
    <path id="Caminho_513" data-name="Caminho 513" d="M433.244,355.4c-.258.135-24.137-3.69-24.137-3.69h0a14.581,14.581,0,0,1-10.891,5.7c-10.307.5-20.4.953-29.161,1.346A14.783,14.783,0,0,0,355,374.153h0a14.805,14.805,0,0,0,14.211,14.177l50.786,2c8.356.325,19.448-4.744,24.675-11.283h0Z" transform="translate(43.087 42.767)" fill="#455a64"/>
    <path id="Caminho_514" data-name="Caminho 514" d="M313.522,350.076s-2.187-44.7,39.817-54V290.34H500.481V304s-21.546,25.987-14.547,47.6,9.253,23.8,9.253,23.8h83.75a57.2,57.2,0,0,0,10.577-31.73c.437-18.955-7.436-51.358-13.313-72.074-5.339-18.843-8.726-34.59-8.726-34.59L592.6,228.63s46.49,60.791,48.386,64.2,8.356,11.4,6.842,28.87-43.294,71.39-54.308,77.469-20.9,6.46-30.765,7.975c-8.569,1.323-71.973.449-88.606.191a32.526,32.526,0,0,1-16.375-4.486c-4.957-3.006-8.692-7.986-12.809-16.151l-8.647-17.149Z" transform="translate(38.042 27.801)" fill="#b6298f"/>
    <path id="Caminho_515" data-name="Caminho 515" d="M325.659,334.14l-18.574,29a4.486,4.486,0,0,0,5.518,6.64,21.546,21.546,0,0,0,6.214-4.217c8.479-8.064,23.554-29.307,23.554-29.307Z" transform="translate(37.166 40.631)" fill="#455a64"/>
    <path id="Caminho_516" data-name="Caminho 516" d="M455.815,344.285a1.7,1.7,0,0,1,.112-.426l.37-1.223a31.115,31.115,0,0,0,.965-4.789,33.783,33.783,0,0,0-2.86-17.519,36.7,36.7,0,0,0-6.83-10.263,44.8,44.8,0,0,0-11.216-8.591,57.011,57.011,0,0,0-14.7-5.473,78.036,78.036,0,0,0-16.824-1.738A126.581,126.581,0,0,0,388,295.507c-5.428.729-10.644,1.626-15.545,2.748a92.064,92.064,0,0,0-25.012,9.242,62.439,62.439,0,0,0-14.267,10.891c-1.48,1.525-2.535,2.793-3.253,3.656l-.8,1a2.541,2.541,0,0,1-.28.325,36.9,36.9,0,0,1,4.161-5.137,60.687,60.687,0,0,1,14.233-11.093,91.175,91.175,0,0,1,25.034-9.4c4.924-1.122,10.15-2.053,15.59-2.793a127.6,127.6,0,0,1,16.959-1.256,77.256,77.256,0,0,1,16.914,1.761,57.46,57.46,0,0,1,14.828,5.608,45.3,45.3,0,0,1,11.339,8.681,37.124,37.124,0,0,1,6.842,10.431,33.647,33.647,0,0,1,2.725,17.721,29.517,29.517,0,0,1-1.122,4.789c-.179.516-.325.908-.426,1.211a2.366,2.366,0,0,1-.112.393Z" transform="translate(39.908 35.712)" fill="#263238"/>
    <path id="Caminho_517" data-name="Caminho 517" d="M438.049,333.256c-.056,0,.247-.707.561-1.985a14.739,14.739,0,0,0,.168-5.608,23.049,23.049,0,0,0-2.737-7.784,26.587,26.587,0,0,0-2.714-4.083,24.609,24.609,0,0,0-3.645-3.78,32.01,32.01,0,0,0-8.748-5.114,41.176,41.176,0,0,0-8.031-2.243,56.073,56.073,0,0,0-5.608-.639,16.536,16.536,0,0,1-2.075-.157,1.882,1.882,0,0,1,.538,0h1.537a41.962,41.962,0,0,1,5.664.46,38.863,38.863,0,0,1,8.154,2.1,31.978,31.978,0,0,1,8.973,5.171,25.16,25.16,0,0,1,3.724,3.87,27.254,27.254,0,0,1,2.737,4.184,22.546,22.546,0,0,1,2.669,7.986,13.785,13.785,0,0,1-.359,5.675,7.389,7.389,0,0,1-.527,1.447C438.15,333.1,438.072,333.267,438.049,333.256Z" transform="translate(49.195 36.704)" fill="#f5f5f5"/>
    <g id="Grupo_52" data-name="Grupo 52" transform="translate(458.43 330.759)" opacity="0.4">
      <path id="Caminho_518" data-name="Caminho 518" d="M408.8,294.945a59.053,59.053,0,0,1,22.163,8.973A39.256,39.256,0,0,1,445.8,322.357c2.939,7.56,2.49,17.575-.594,23.834l10.4.864c3.5-11.676-.314-26-8.726-35.14A51.594,51.594,0,0,0,408.8,294.9" transform="translate(-408.8 -294.9)"/>
    </g>
    <rect id="Retângulo_49" data-name="Retângulo 49" width="110.197" height="78.635" rx="8.58" transform="translate(354.536 239.506)" fill="#455a64"/>
    <path id="Caminho_519" data-name="Caminho 519" d="M426.428,229.212c0,.168-24.776.292-55.34.292s-55.328-.123-55.328-.292,24.765-.292,55.328-.292S426.428,229.01,426.428,229.212Z" transform="translate(38.317 27.836)" fill="#263238"/>
    <path id="Caminho_520" data-name="Caminho 520" d="M496.165,288.322c0,.157-33.076.292-73.857.292s-73.868-.135-73.868-.292,33.065-.292,73.868-.292S496.165,288.165,496.165,288.322Z" transform="translate(42.29 35.024)" fill="#263238"/>
    <path id="Caminho_521" data-name="Caminho 521" d="M487.635,285.266a12.753,12.753,0,0,0,2.658-6.595c.235-3.69-1.447-8.311-5.429-8.311H434.056a14.906,14.906,0,0,0-14.906,14.906Z" transform="translate(50.888 32.875)" fill="#455a64"/>
    <path id="Caminho_522" data-name="Caminho 522" d="M541.01,241.5l-8.838-18.428a11.283,11.283,0,0,1,4.486-14.413l26.414-15.7a8.871,8.871,0,0,1,4.576-1.267h5.709l2.243,37.248-8.816,3.365,5.608,9.063Z" transform="translate(64.506 23.309)" fill="#b6298f"/>
    <path id="Caminho_523" data-name="Caminho 523" d="M568.84,192.85s9.04,2.075,10.184,16.005-7.975,18.282-7.975,18.282Z" transform="translate(69.09 23.451)" fill="#ebebeb"/>
    <path id="Caminho_524" data-name="Caminho 524" d="M545.145,213.386s-18.282,8.67-20.5,10.094c-1.548.987-2.883,2.714-1.671,5.754,2.075,5.171,10.621.3,10.621.3l17-8.558s6.539-3.084,4.127-6.954C552.02,209.763,545.145,213.386,545.145,213.386Z" transform="translate(63.455 25.773)" fill="#263238"/>
    <path id="Caminho_525" data-name="Caminho 525" d="M519.747,210.42s17.16,2.939,18.618,3.365,7.189,3.107,7.481,4.857a52.488,52.488,0,0,1,0,6.9s-1.032.841-1.682-.841a17.264,17.264,0,0,1-.55-5.025l-3.208-1.234,1.75,3.118.292,7.279s-2.243-.2-2.669-1.952a17.444,17.444,0,0,1-.437-3.679l-2.355-2.041,1.75,2.367.583,5.249s-1.7.55-2.243-.617a18.381,18.381,0,0,1-.572-4.632l-6.595-2.243-4.374,2.434-6.864-3.769Z" transform="translate(62.99 25.587)" fill="#ffbe9d"/>
    <path id="Caminho_526" data-name="Caminho 526" d="M545.018,190.464c0,6.954-3.2,12.584-7.145,12.584s-7.133-5.608-7.133-12.584,3.2-12.584,7.133-12.584S545.018,183.522,545.018,190.464Z" transform="translate(64.457 21.63)" fill="#263238"/>
    <path id="Caminho_527" data-name="Caminho 527" d="M538.15,197.082l3.914,13.594a3.511,3.511,0,0,0,1.828-4.015c-.987-4.655-1.537-7.963-2.613-12.046-.135-.4-3.129,2.467-3.129,2.467" transform="translate(65.358 23.66)" fill="#263238"/>
    <g id="Grupo_53" data-name="Grupo 53" transform="translate(520.741 258.618)" opacity="0.4">
      <path id="Caminho_528" data-name="Caminho 528" d="M469.565,357.175c-.393-1.122-.785-2.243-1.122-3.443s-.763-2.243-1.066-3.365a35.9,35.9,0,0,1-.976-5.126c-6.617,26.918,3.477,45.907,20.828,47.242,25.337,1.952,56.237,3.365,68.743.09,22.768-5.978,31.136-24.978,33.121-28.107s20.121-36.25,8.973-68.137S567.6,230.58,567.6,230.58l-18.45,6.146s3.365,15.7,8.726,34.59c5.9,20.761,13.751,53.164,13.291,72.119a57.2,57.2,0,0,1-10.577,31.73h-83.75s-1.795-1.795-7.313-17.946" transform="translate(-464.356 -230.58)"/>
    </g>
    <path id="Caminho_529" data-name="Caminho 529" d="M310.544,331.353l.583-6.393,152.851,17.609A15.1,15.1,0,0,1,477.057,360.2l-.684,3.87L318.227,341.089A8.973,8.973,0,0,1,310.544,331.353Z" transform="translate(37.677 39.515)" fill="#e8505b"/>
    <g id="Grupo_54" data-name="Grupo 54" transform="translate(348.181 364.475)" opacity="0.6">
      <path id="Caminho_530" data-name="Caminho 530" d="M310.544,331.353l.583-6.393,152.851,17.609A15.1,15.1,0,0,1,477.057,360.2l-.684,3.87L318.227,341.089A8.973,8.973,0,0,1,310.544,331.353Z" transform="translate(-310.504 -324.96)"/>
    </g>
    <g id="Grupo_55" data-name="Grupo 55" transform="translate(645.411 347.515)" opacity="0.3">
      <path id="Caminho_531" data-name="Caminho 531" d="M575.51,375.947s33.648-37.013,40.591-66.107a65.317,65.317,0,0,1,10.42.774S606.623,364.709,575.51,375.947Z" transform="translate(-575.51 -309.839)"/>
    </g>
    <path id="Caminho_532" data-name="Caminho 532" d="M615.8,298.22a7.311,7.311,0,0,1,.179.931c.09.617.269,1.525.381,2.7a42.371,42.371,0,0,1-.258,10.094,51.369,51.369,0,0,1-4.486,14.222,165.89,165.89,0,0,1-8.905,15.927,212.658,212.658,0,0,1-19.65,26.537c-2.748,3.241-5,5.821-6.573,7.593l-1.828,2.03a6.169,6.169,0,0,1-.662.684,6.282,6.282,0,0,1,.572-.751l1.739-2.109,6.427-7.705a228.591,228.591,0,0,0,19.516-26.66,168.367,168.367,0,0,0,8.917-15.848,51.663,51.663,0,0,0,4.486-14.065,44.258,44.258,0,0,0,.449-9.96c-.078-1.178-.224-2.086-.28-2.714A5.4,5.4,0,0,1,615.8,298.22Z" transform="translate(69.718 36.263)" fill="#263238"/>
    <path id="Caminho_533" data-name="Caminho 533" d="M560.524,369.64a44.406,44.406,0,0,1-5.384-4.868,45.1,45.1,0,0,1-4.98-5.283,45.586,45.586,0,0,1,5.384,4.868,44.959,44.959,0,0,1,4.98,5.283Z" transform="translate(66.819 43.713)" fill="#263238"/>
    <path id="Caminho_534" data-name="Caminho 534" d="M470.37,368.491a22.432,22.432,0,0,1,6.012-8.861c.123.123-1.413,1.963-3.062,4.4S470.527,368.558,470.37,368.491Z" transform="translate(57.117 43.73)" fill="#263238"/>
    <path id="Caminho_535" data-name="Caminho 535" d="M414.468,390.284a22.59,22.59,0,0,0,4.587-5.832,20.278,20.278,0,0,0,2.243-7.672,17.845,17.845,0,0,0-8.053-16.88,20.121,20.121,0,0,0-7.38-3.084,23.039,23.039,0,0,0-7.425-.1,2.449,2.449,0,0,1,.5-.146,11.946,11.946,0,0,1,1.469-.292,17.6,17.6,0,0,1,5.518.135,20.189,20.189,0,0,1,7.616,3.039,18.091,18.091,0,0,1,8.277,17.374,20,20,0,0,1-2.423,7.851,17.82,17.82,0,0,1-3.365,4.374,12.616,12.616,0,0,1-1.122.965A2.243,2.243,0,0,1,414.468,390.284Z" transform="translate(48.37 43.304)" fill="#263238"/>
    <path id="Caminho_536" data-name="Caminho 536" d="M363.075,377.3a25.8,25.8,0,0,1-.55-5.384,26.382,26.382,0,0,1,0-5.428,50.338,50.338,0,0,1,.516,10.812Z" transform="translate(43.986 44.564)" fill="#263238"/>
    <path id="Caminho_537" data-name="Caminho 537" d="M366.732,377.315a25.72,25.72,0,0,1-.987-5.384,26.106,26.106,0,0,1-.4-5.451,25.067,25.067,0,0,1,.987,5.384,26.112,26.112,0,0,1,.4,5.451Z" transform="translate(44.344 44.563)" fill="#263238"/>
    <path id="Caminho_538" data-name="Caminho 538" d="M431.778,283.682c0,.157-18.585.292-41.5.292s-41.5-.135-41.5-.292,18.574-.292,41.5-.292S431.778,283.525,431.778,283.682Z" transform="translate(42.332 34.46)" fill="#263238"/>
    <path id="Caminho_539" data-name="Caminho 539" d="M369.152,293.908c-.157,0-.292-21.31-.292-47.533s.135-47.544.292-47.544.292,21.31.292,47.544S369.32,293.908,369.152,293.908Z" transform="translate(44.773 24.178)" fill="#263238"/>
    <path id="Caminho_540" data-name="Caminho 540" d="M359,293.829c-.157,0,.628-21.31,1.772-47.511s2.243-47.5,2.367-47.488-.639,21.31-1.783,47.511S359.137,293.84,359,293.829Z" transform="translate(43.572 24.178)" fill="#263238"/>
    <path id="Caminho_541" data-name="Caminho 541" d="M337.31,405.971a2.648,2.648,0,0,1-.493-.493c-.3-.348-.774-.83-1.312-1.514a43.337,43.337,0,0,1-4.139-6.079,46.546,46.546,0,0,1,.191-46.524,43.068,43.068,0,0,1,4.195-6.045c.538-.684,1.021-1.122,1.323-1.5s.482-.5.494-.482a3.613,3.613,0,0,1-.4.561c-.28.37-.729.864-1.234,1.57a47.443,47.443,0,0,0-4.206,52.221,50.319,50.319,0,0,0,3.959,6.135c.5.707.953,1.211,1.223,1.581a2.881,2.881,0,0,1,.4.572Z" transform="translate(39.468 41.748)" fill="#455a64"/>
    <path id="Caminho_542" data-name="Caminho 542" d="M481.086,323l-.348.651-6.73,12.719-9.489,9.063,18.91,25.191,15.77-2.613s-1.772-3.6-9.679-4.3l-3.028-15.052,11.093-17.194" transform="translate(56.405 39.276)" fill="#455a64"/>
    <path id="Caminho_543" data-name="Caminho 543" d="M464.52,343.24l18.91,25.191,15.77-2.613-2.165-2.075-12.943,1.413L466.528,341.3Z" transform="translate(56.405 41.501)" fill="#e0e0e0"/>
    <path id="Caminho_544" data-name="Caminho 544" d="M486.176,353.241c-.09.179-1.122-.191-2.3,0s-2.019.886-2.165.751.561-1.189,2.041-1.447S486.3,353.062,486.176,353.241Z" transform="translate(58.493 42.863)" fill="#263238"/>
    <path id="Caminho_545" data-name="Caminho 545" d="M485.415,350c-.146.135-1-.673-2.3-.707s-2.243.7-2.333.55.067-.348.471-.662a3,3,0,0,1,1.884-.594,2.928,2.928,0,0,1,1.839.707C485.359,349.644,485.516,349.947,485.415,350Z" transform="translate(58.38 42.388)" fill="#263238"/>
    <path id="Caminho_546" data-name="Caminho 546" d="M484.746,345.717c-.157.112-.841-.707-2.008-.908s-2.086.325-2.243.157.112-.325.527-.561a2.759,2.759,0,0,1,3.365.606C484.757,345.37,484.824,345.661,484.746,345.717Z" transform="translate(58.342 41.839)" fill="#263238"/>
    <path id="Caminho_547" data-name="Caminho 547" d="M487.914,341.808c-.18.09-.763-.729-1.851-1.2s-2.064-.4-2.064-.572a2.194,2.194,0,0,1,2.411,0C487.7,340.686,488.105,341.752,487.914,341.808Z" transform="translate(58.774 41.308)" fill="#263238"/>
    <path id="Caminho_548" data-name="Caminho 548" d="M489.313,339.023a7.178,7.178,0,0,1-1.649-1.424l-1.649-1.671a5.485,5.485,0,0,1-.942-1.122,1.313,1.313,0,0,1-.056-.976.976.976,0,0,1,.864-.65,2.906,2.906,0,0,1,1.6.516,5.373,5.373,0,0,1,2.344,3.073,3.006,3.006,0,0,1,0,2.243,19.952,19.952,0,0,0-.471-2.052,5.461,5.461,0,0,0-1.211-1.851,4.835,4.835,0,0,0-1.021-.785,2.535,2.535,0,0,0-1.178-.415.314.314,0,0,0-.28.191.662.662,0,0,0,0,.46,5.957,5.957,0,0,0,.8,1L488,337.33C488.887,338.283,489.392,338.956,489.313,339.023Z" transform="translate(58.889 40.514)" fill="#263238"/>
    <path id="Caminho_549" data-name="Caminho 549" d="M489.441,339.123c-.078,0-.157-.83.538-1.918a3.993,3.993,0,0,1,4.486-1.626.729.729,0,0,1,.336.527.863.863,0,0,1-.1.527,2.5,2.5,0,0,1-.482.594,8.281,8.281,0,0,1-1.009.819,6.728,6.728,0,0,1-1.974.92,3.275,3.275,0,0,1-1.985.146c0-.112.74-.179,1.817-.606a8.685,8.685,0,0,0,1.772-.987,6.358,6.358,0,0,0,.886-.785,1.784,1.784,0,0,0,.348-.415c.056-.157,0-.112,0-.146a1.244,1.244,0,0,0-.482-.1,3.649,3.649,0,0,0-.606,0,3.937,3.937,0,0,0-2.658,1.413,13.922,13.922,0,0,0-.886,1.637Z" transform="translate(59.412 40.785)" fill="#263238"/>
    <path id="Caminho_550" data-name="Caminho 550" d="M476.068,340.913a1.907,1.907,0,1,1-.793-1.253,1.9,1.9,0,0,1,.793,1.253Z" transform="translate(57.351 41.261)" fill="#e0e0e0"/>
    <path id="Caminho_551" data-name="Caminho 551" d="M530.49,334.113l5.058,32.84,40.893-6.079c-.819-3.87-23.139-8.569-23.139-8.569l-2.378-21.176Z" transform="translate(64.427 40.265)" fill="#455a64"/>
    <path id="Caminho_552" data-name="Caminho 552" d="M539.425,350.127a1.682,1.682,0,0,0-.875,2.075,1.638,1.638,0,0,0,2.053.886,1.783,1.783,0,0,0,.908-2.243,1.682,1.682,0,0,0-2.243-.684" transform="translate(65.396 42.556)" fill="#e0e0e0"/>
    <path id="Caminho_553" data-name="Caminho 553" d="M535.041,363.93l-.381-3.365L574.017,356s1.929.527,1.918,1.839Z" transform="translate(64.934 43.289)" fill="#e0e0e0"/>
    <path id="Caminho_554" data-name="Caminho 554" d="M551.759,349.752c0,.2-.965.437-1.851,1.223s-1.29,1.7-1.481,1.66-.067-1.256,1.021-2.187S551.77,349.561,551.759,349.752Z" transform="translate(66.599 42.516)" fill="#263238"/>
    <path id="Caminho_555" data-name="Caminho 555" d="M555.7,350.756c.067.191-.74.651-1.29,1.6s-.617,1.862-.819,1.884-.494-1.122.213-2.243S555.67,350.565,555.7,350.756Z" transform="translate(67.208 42.645)" fill="#263238"/>
    <path id="Caminho_556" data-name="Caminho 556" d="M558.341,355.4c-.168.079-.594-.886-.247-2.053s1.211-1.738,1.323-1.593-.381.83-.651,1.795S558.543,355.4,558.341,355.4Z" transform="translate(67.767 42.77)" fill="#263238"/>
    <path id="Caminho_557" data-name="Caminho 557" d="M550.887,345.541c0,.191-1.021.056-2.131.292s-1.952.74-2.075.583.606-1,1.929-1.267S550.955,345.362,550.887,345.541Z" transform="translate(66.394 41.96)" fill="#263238"/>
    <path id="Caminho_558" data-name="Caminho 558" d="M549.633,341.566a3.925,3.925,0,0,1-2.052.292,9.309,9.309,0,0,1-2.243-.336,8.575,8.575,0,0,1-1.267-.449,2.478,2.478,0,0,1-.7-.393.886.886,0,0,1-.247-1.043,1.122,1.122,0,0,1,.807-.594,3.051,3.051,0,0,1,.785,0,6.259,6.259,0,0,1,1.335.247,7.288,7.288,0,0,1,2.075.953c1.122.74,1.514,1.436,1.458,1.492s-.639-.482-1.716-1.066a7.714,7.714,0,0,0-1.974-.752,7.272,7.272,0,0,0-1.234-.191c-.449,0-.819,0-.9.213s0,.1.078.224a2.073,2.073,0,0,0,.5.28,11.049,11.049,0,0,0,1.122.46,11.624,11.624,0,0,0,2.086.46A14.77,14.77,0,0,1,549.633,341.566Z" transform="translate(65.954 41.224)" fill="#263238"/>
    <path id="Caminho_559" data-name="Caminho 559" d="M548.824,342.306a3.548,3.548,0,0,1-.83-1.9,6.653,6.653,0,0,1-.056-2.243,6.732,6.732,0,0,1,.336-1.323,1.7,1.7,0,0,1,1.122-1.223.976.976,0,0,1,.942.437,2.86,2.86,0,0,1,.314.729,4.59,4.59,0,0,1,.213,1.38,4.766,4.766,0,0,1-.561,2.243c-.639,1.122-1.447,1.537-1.469,1.469a15.106,15.106,0,0,0,1.021-1.682,4.845,4.845,0,0,0,.359-2.019A3.956,3.956,0,0,0,550,337c-.123-.426-.348-.751-.5-.684a1.52,1.52,0,0,0-.617.774,8.256,8.256,0,0,0-.336,1.189,7.165,7.165,0,0,0-.09,2.1A19.55,19.55,0,0,1,548.824,342.306Z" transform="translate(66.54 40.81)" fill="#263238"/>
    <path id="Caminho_560" data-name="Caminho 560" d="M505.6,265.186,470.52,341.612l23.172,13.908,48.487-91.96" transform="translate(57.135 32.049)" fill="#263238"/>
    <path id="Caminho_561" data-name="Caminho 561" d="M568.315,360.177l-25.169,4.038L528.095,274.33l-74.418,5.395a18.125,18.125,0,0,1-5.866-.561c-20.907-5.731-18.08-32.381-16.061-36.654l102.974-2.95a21.938,21.938,0,0,1,22.353,18.876Z" transform="translate(52.252 29.129)" fill="#263238"/>
    <path id="Caminho_562" data-name="Caminho 562" d="M431.5,257.65l.37-38s-4.9-24.675-6.348-34.422c-2.243-15.074-5.339-22.241,19.359-32.952l5.395-2.086,8.356.112c9.971.751,20.469,9.758,20.7,15.7l9.623,85.634Z" transform="translate(51.483 18.263)" fill="#b6298f"/>
    <path id="Caminho_563" data-name="Caminho 563" d="M432.7,159.88s-6.965,15.007-5.608,28.679L453.065,213.5c5.832,6.483,13.111,9.242,22.432,9.8l53.837,5.877,1.492-14.065-51.156-14.491c-2.03-.381-3.051-2.5-4.61-3.869l-42.34-36.878" transform="translate(51.832 19.441)" fill="#b6298f"/>
    <path id="Caminho_564" data-name="Caminho 564" d="M428.33,163.947a3.712,3.712,0,0,1,1.021-.7,12.942,12.942,0,0,1,3.477-.976,17.945,17.945,0,0,1,5.81,0,5.911,5.911,0,0,1,1.7.583,13.22,13.22,0,0,1,1.581,1.122,39.725,39.725,0,0,1,3.152,2.737c2.153,2.008,4.184,4.554,6.573,7.133s5.014,5.35,7.851,8.255,5.9,5.944,9.186,9.085c1.649,1.57,3.365,3.163,5.137,4.722.92.74,1.817,1.615,2.681,2.434a6.4,6.4,0,0,0,3.051,1.783h0L530.72,214.6l.236.067v.247c-.112,1-.224,2.075-.336,3.152-.4,3.735-.8,7.436-1.122,10.913v.292h-.292l-22.757-2.5-10.779-1.122-10.3-1.043c-3.365-.37-6.606-.751-9.769-1.211a44,44,0,0,1-9.029-2.1,33.366,33.366,0,0,1-7.616-4.094c-2.243-1.581-4.341-3.23-6.281-4.845-7.683-6.561-13.325-12.427-17.239-16.42-1.952-2.008-3.432-3.589-4.43-4.666l-1.122-1.234a5.2,5.2,0,0,1-.37-.437l.4.393,1.122,1.2,4.486,4.6c3.959,3.937,9.646,9.758,17.34,16.252,1.94,1.6,4.015,3.241,6.281,4.8a32.773,32.773,0,0,0,7.526,4.015,44.169,44.169,0,0,0,8.973,2.041c3.141.449,6.393.83,9.747,1.189l10.3,1.009,10.779,1.178,22.757,2.479-.314.258c.37-3.477.763-7.178,1.122-10.924.112-1.122.224-2.153.336-3.152l.213.314-51.145-14.525h0a6.864,6.864,0,0,1-3.275-1.9c-.9-.864-1.727-1.671-2.658-2.445-1.795-1.57-3.5-3.174-5.137-4.744-3.286-3.152-6.337-6.214-9.163-9.13s-5.451-5.7-7.851-8.311-4.4-5.148-6.528-7.156a39.526,39.526,0,0,0-3.073-2.8,14.7,14.7,0,0,0-1.537-1.122,5.518,5.518,0,0,0-1.626-.572,17.463,17.463,0,0,0-5.743-.09,12.854,12.854,0,0,0-3.454.886,7.01,7.01,0,0,0-1.066.606Z" transform="translate(52.005 19.704)" fill="#263238"/>
    <path id="Caminho_565" data-name="Caminho 565" d="M440.3,122.707l2.613,37.013a11.53,11.53,0,0,0,11.508,10.711h0a11.53,11.53,0,0,0,11.508-12.338c-.236-3.522-.449-6.4-.449-6.4s8.973-1.391,9.074-10.352c.056-5.171-.83-16.9-1.593-25.9a11.743,11.743,0,0,0-11.676-10.689h-5.406A16.566,16.566,0,0,0,440.3,122.707Z" transform="translate(53.452 12.738)" fill="#ffbe9d"/>
    <path id="Caminho_566" data-name="Caminho 566" d="M464.026,146.885a20.862,20.862,0,0,1-11.676-3.365s2.759,6.438,11.7,5.608Z" transform="translate(54.925 17.452)" fill="#eb996e"/>
    <path id="Caminho_567" data-name="Caminho 567" d="M467.886,124.7a1.267,1.267,0,0,1-1.234,1.29,1.2,1.2,0,0,1-1.312-1.122,1.29,1.29,0,0,1,1.223-1.3,1.234,1.234,0,0,1,1.323,1.133Z" transform="translate(56.505 15.026)" fill="#263238"/>
    <path id="Caminho_568" data-name="Caminho 568" d="M468.551,122.476c-.157.168-1.122-.55-2.5-.55s-2.389.7-2.535.527.09-.37.527-.7a3.6,3.6,0,0,1,2.03-.628,3.421,3.421,0,0,1,2,.651C468.551,122.106,468.663,122.4,468.551,122.476Z" transform="translate(56.278 14.73)" fill="#263238"/>
    <path id="Caminho_569" data-name="Caminho 569" d="M456.366,124.7a1.267,1.267,0,0,1-1.234,1.29,1.211,1.211,0,0,1-1.312-1.122,1.29,1.29,0,0,1,1.234-1.3,1.223,1.223,0,0,1,1.312,1.133Z" transform="translate(55.104 15.026)" fill="#263238"/>
    <path id="Caminho_570" data-name="Caminho 570" d="M456.551,122.707c-.157.168-1.122-.55-2.5-.55s-2.389.7-2.535.527.09-.381.527-.7a3.511,3.511,0,0,1,4.026,0A1.288,1.288,0,0,1,456.551,122.707Z" transform="translate(54.819 14.757)" fill="#263238"/>
    <path id="Caminho_571" data-name="Caminho 571" d="M460.488,132.9a9.368,9.368,0,0,1,2.243-.4c.348,0,.684-.112.74-.348a1.85,1.85,0,0,0-.236-1.043c-.325-.852-.673-1.738-1.043-2.669a48.231,48.231,0,0,1-2.333-7,46.125,46.125,0,0,1,2.894,6.73l1,2.692a2.031,2.031,0,0,1,.179,1.38.841.841,0,0,1-.572.516,2.042,2.042,0,0,1-.606.079A9.051,9.051,0,0,1,460.488,132.9Z" transform="translate(55.839 14.767)" fill="#263238"/>
    <path id="Caminho_572" data-name="Caminho 572" d="M456.831,132.51c.224,0,.236,1.481,1.514,2.535s2.86.9,2.871,1.122-.348.28-1.021.3a3.69,3.69,0,0,1-2.4-.841,3.185,3.185,0,0,1-1.122-2.131C456.562,132.869,456.73,132.5,456.831,132.51Z" transform="translate(55.447 16.113)" fill="#263238"/>
    <path id="Caminho_573" data-name="Caminho 573" d="M456.975,117.862c-.135.381-1.514.2-3.129.393s-2.916.639-3.129.3.135-.516.662-.875a5.249,5.249,0,0,1,2.322-.819,5.361,5.361,0,0,1,2.445.292C456.74,117.391,457.031,117.682,456.975,117.862Z" transform="translate(54.719 14.207)" fill="#263238"/>
    <path id="Caminho_574" data-name="Caminho 574" d="M468.093,118.932c-.247.314-1.189,0-2.333,0s-2.1.2-2.322-.123.056-.471.471-.763a3.174,3.174,0,0,1,1.9-.516,3.275,3.275,0,0,1,1.862.628C468.071,118.461,468.205,118.775,468.093,118.932Z" transform="translate(56.264 14.291)" fill="#263238"/>
    <path id="Caminho_575" data-name="Caminho 575" d="M443.646,126.791c-.146-.067-6.146-1.828-5.956,4.3s6.3,4.666,6.3,4.486S443.646,126.791,443.646,126.791Z" transform="translate(53.142 15.383)" fill="#ffbe9d"/>
    <path id="Caminho_576" data-name="Caminho 576" d="M441.868,133.105a1.832,1.832,0,0,1-.28.168,1.122,1.122,0,0,1-.8,0,2.647,2.647,0,0,1-1.3-2.322,3.365,3.365,0,0,1,.258-1.537,1.245,1.245,0,0,1,.774-.852.561.561,0,0,1,.639.28c.09.168,0,.292.079.3s.135-.112.079-.359a.729.729,0,0,0-.258-.381.808.808,0,0,0-.594-.135,1.492,1.492,0,0,0-1.122.987,3.7,3.7,0,0,0-.314,1.716,2.759,2.759,0,0,0,1.649,2.591,1.122,1.122,0,0,0,.965-.191C441.857,133.251,441.891,133.116,441.868,133.105Z" transform="translate(53.305 15.597)" fill="#eb996e"/>
    <path id="Caminho_577" data-name="Caminho 577" d="M440.129,129.358a3.208,3.208,0,0,1,2.939,1.514c.4.875.493,1.862.886,2.737a2.154,2.154,0,0,0,2.243,1.447,1.9,1.9,0,0,0,1.267-1.4,5.08,5.08,0,0,0,0-1.974c-.359-2.86-.965-5.686-1.122-8.569a14.7,14.7,0,0,1,1.806-8.322,8.042,8.042,0,0,1,7.167-4.027c1.9.157,3.645,1.122,5.529,1.413a7.492,7.492,0,0,0,6.2-2.075c.213-.2,1.122-.841,1.122-.841a3.5,3.5,0,0,0-.651-1.884c-3.746-3.477-10.5-4.486-15.456-3.2a17.833,17.833,0,0,0-11.721,9.388c-2.131,4.643-1.5,11.093-.325,15.792" transform="translate(53.294 12.603)" fill="#263238"/>
    <path id="Caminho_578" data-name="Caminho 578" d="M473.312,114.42s-23.5-7.548-33.648,12.764a38.137,38.137,0,0,1-1.514-7.851c0-1.817,1.122-12.663,12.248-16.072C450.387,103.305,467.2,96.89,473.312,114.42Z" transform="translate(53.199 12.422)" fill="#e8505b"/>
    <path id="Caminho_579" data-name="Caminho 579" d="M451.555,114a5.114,5.114,0,0,0,8.132.729,3.017,3.017,0,0,0,5.7-.292,6.964,6.964,0,0,0,2.243,1.671,2.322,2.322,0,0,0,2.6-.55,2.243,2.243,0,0,0-.157-2.692,5.529,5.529,0,0,0-2.378-1.6,17.239,17.239,0,0,0-8.872-1.346,11.967,11.967,0,0,0-7.773,4.228" transform="translate(54.767 13.353)" fill="#263238"/>
    <g id="Grupo_56" data-name="Grupo 56" transform="translate(491.337 114.577)" opacity="0.4">
      <path id="Caminho_580" data-name="Caminho 580" d="M473.313,114.42a10.947,10.947,0,0,0-7.47-3.365c-6.931-.3-19.9,3.589-26.189,16.151a38.133,38.133,0,0,1-1.514-7.851c0-1.817,1.122-12.663,12.248-16.072C450.388,103.3,467.2,96.889,473.313,114.42Z" transform="translate(-438.14 -102.155)"/>
    </g>
    <path id="Caminho_581" data-name="Caminho 581" d="M440.37,124.748a44.1,44.1,0,0,1,13.683-13.1c5.395-3.365,14.323-6.73,20.48-8.345a13.324,13.324,0,0,1,5.608-.594,5.092,5.092,0,0,1,4.195,3.432c.583,2.322-3.533,5.9-5.462,7.3A63.434,63.434,0,0,1,473,116.919s0-4.307-6.842-5.193C456.835,110.526,440.37,124.748,440.37,124.748Z" transform="translate(53.469 12.48)" fill="#b6298f"/>
    <g id="Grupo_57" data-name="Grupo 57" transform="translate(485.573 213.519)" opacity="0.3">
      <path id="Caminho_582" data-name="Caminho 582" d="M433,190.4c2.423,5.844,4.857,13.055,8.367,18.316s8.21,9.937,14.042,12.338c7.324,3.073,15.994,3.567,23.284.426.594-.258,1.761-.583,1.66-1.223,0,0-2.423-.269-3.163-.4-14.738-2.479-16.33-4.3-23.385-9.87C449.409,206.51,439.662,196,433,190.37" transform="translate(-433 -190.37)"/>
    </g>
    <path id="Caminho_583" data-name="Caminho 583" d="M478.354,228.34a5.723,5.723,0,0,1-.606,1.368,17.252,17.252,0,0,1-2.389,3.365,25.639,25.639,0,0,1-11.407,6.988,52.256,52.256,0,0,1-13.28,1.985c-1.716.067-3.107.078-4.071.078a8.8,8.8,0,0,1-1.492-.067,6.731,6.731,0,0,1,1.481-.168l4.06-.258a57.931,57.931,0,0,0,13.123-2.131,26.627,26.627,0,0,0,11.283-6.73,28.755,28.755,0,0,0,3.3-4.43Z" transform="translate(54.045 27.766)" fill="#263238"/>
    <path id="Caminho_584" data-name="Caminho 584" d="M537.862,363.153a1.121,1.121,0,0,1-.09-.348,8.5,8.5,0,0,0-.2-1.032c-.179-.942-.415-2.243-.729-3.97-.606-3.5-1.469-8.491-2.546-14.648-2.1-12.4-4.991-29.487-8.188-48.352-1.424-8.535-2.793-16.712-4.027-24.17l.28.236-32.19,2.355-9.253.628-2.456.135h-.639l.628-.079,2.456-.224,9.242-.785,32.179-2.568h.247v.247c1.245,7.459,2.625,15.624,4.06,24.159,3.129,18.876,5.967,35.97,8.019,48.386,1,6.169,1.806,11.216,2.367,14.67.269,1.7.471,3.051.617,4,.056.426.112.774.146,1.032a2.843,2.843,0,0,1,.079.325Z" transform="translate(57.997 32.872)" fill="#455a64"/>
    <path id="Caminho_585" data-name="Caminho 585" d="M525.108,263.42c.112.135-1.851,1.817-4.071,4.083s-3.892,4.251-4.027,4.139a27.39,27.39,0,0,1,8.1-8.221Z" transform="translate(62.788 32.032)" fill="#455a64"/>
    <path id="Caminho_586" data-name="Caminho 586" d="M465.52,153.076a1.268,1.268,0,0,1,.135.37,7.319,7.319,0,0,1,.213,1.122,9.243,9.243,0,0,1-.55,4.083,10.5,10.5,0,0,1-3.69,4.845,11.216,11.216,0,0,1-7.2,1.929,13.055,13.055,0,0,1-6.988-2.625,15.143,15.143,0,0,1-3.97-4.632,15.9,15.9,0,0,1-1.514-3.813,9.425,9.425,0,0,1-.224-1.122,1.732,1.732,0,0,1,0-.393,26.02,26.02,0,0,0,2.131,5.092,15.376,15.376,0,0,0,3.937,4.408,12.663,12.663,0,0,0,6.73,2.467,10.846,10.846,0,0,0,6.853-1.783A10.3,10.3,0,0,0,465,158.47a9.913,9.913,0,0,0,.707-3.914A8.1,8.1,0,0,1,465.52,153.076Z" transform="translate(53.633 18.585)" fill="#263238"/>
    <path id="Caminho_587" data-name="Caminho 587" d="M477.377,199.971a4.926,4.926,0,0,1-.236-1.122c-.123-.886-.28-1.952-.449-3.208-.381-2.86-.852-6.539-1.38-10.6s-.909-7.918-1.122-10.644c-.123-1.357-.213-2.467-.258-3.23a5.092,5.092,0,0,1,0-1.189,4.161,4.161,0,0,1,.236,1.122c.123.886.269,1.952.449,3.208.348,2.86.808,6.539,1.312,10.61s.953,7.851,1.211,10.633c.135,1.357.224,2.467.269,3.23A4.413,4.413,0,0,1,477.377,199.971Z" transform="translate(57.546 20.67)" fill="#263238"/>
  </g>
</svg>
