<svg xmlns="http://www.w3.org/2000/svg" width="234.082" height="42.929" viewBox="0 0 234.082 42.929">
  <g id="logo" transform="translate(0 0.005)">
    <g id="Camada_1" data-name="Camada 1" transform="translate(0 -0.005)">
      <path id="Caminho_15" data-name="Caminho 15" d="M21.041,41.755h0a21.1,21.1,0,0,1-9.454-2.246l-9,2.05a1.675,1.675,0,0,1-1.526-.44A1.647,1.647,0,0,1,.618,39.6l1.947-8.864A20.807,20.807,0,0,1,0,20.9H0A20.592,20.592,0,0,1,6.2,6.112a21.051,21.051,0,0,1,29.671,0,20.592,20.592,0,0,1,2.6,26.442,1.649,1.649,0,1,1-2.714-1.872A17.316,17.316,0,0,0,33.546,8.424,17.784,17.784,0,0,0,3.285,20.844h0a17.559,17.559,0,0,0,2.443,8.789,1.619,1.619,0,0,1,.178,1.254L4.38,37.777l7.057-1.61a1.694,1.694,0,0,1,1.151.159,17.718,17.718,0,0,0,8.424,2.143h0a17.785,17.785,0,0,0,9.108-2.509,1.647,1.647,0,1,1,1.684,2.808,21.135,21.135,0,0,1-10.792,2.967Z" transform="translate(0 0.005)" fill="#010101"/>
      <path id="Caminho_16" data-name="Caminho 16" d="M29.142,25.783l2.34-10.923H13.53l2.611,10.923Z" transform="translate(-0.866 -0.947)" fill="#feca1c"/>
      <path id="Caminho_17" data-name="Caminho 17" d="M31.482,14.86H13.53l.4,1.741H30.949Z" transform="translate(-0.866 -0.947)" fill="#e9af20"/>
      <path id="Caminho_18" data-name="Caminho 18" d="M29.1,26.476h-13a.655.655,0,0,1-.665-.543L12.818,14.945a.543.543,0,0,1,.131-.543.833.833,0,0,1,.534-.262H31.435a.627.627,0,0,1,.543.262.665.665,0,0,1,.131.608L29.76,25.868A.711.711,0,0,1,29.1,26.476ZM16.637,25.063H28.562l2-9.575H14.353Z" transform="translate(-0.819 -0.901)" fill="#010101"/>
      <path id="Caminho_19" data-name="Caminho 19" d="M13.246,15.319a.655.655,0,0,1-.665-.534l-.534-1.947H9.765a.665.665,0,0,1-.665-.665.711.711,0,0,1,.665-.674h2.808a.636.636,0,0,1,.665.534l.674,2.48a.721.721,0,0,1-.468.8Z" transform="translate(-0.582 -0.732)" fill="#010101"/>
      <path id="Caminho_20" data-name="Caminho 20" d="M28.334,30.67h-14.5a2.415,2.415,0,1,1,0-4.83h14.5a.674.674,0,0,1,.674.674.711.711,0,0,1-.674.665h-14.5a1.076,1.076,0,0,0,0,2.143h14.5a.674.674,0,0,1,.674.674A.619.619,0,0,1,28.334,30.67Z" transform="translate(-0.731 -1.65)" fill="#010101"/>
      <circle id="Elipse_1" data-name="Elipse 1" cx="1.947" cy="1.947" r="1.947" transform="translate(24.121 26.437)" fill="#c0d0d7"/>
      <circle id="Elipse_2" data-name="Elipse 2" cx="0.674" cy="0.674" r="0.674" transform="translate(25.394 27.71)" fill="#869eaa"/>
      <path id="Caminho_21" data-name="Caminho 21" d="M27.667,32.744a2.677,2.677,0,1,1,2.677-2.677,2.677,2.677,0,0,1-2.677,2.677Zm0-3.884a1.273,1.273,0,0,0,0,2.546,1.32,1.32,0,0,0,1.273-1.273A1.273,1.273,0,0,0,27.667,28.9Z" transform="translate(-1.599 -1.749)" fill="#010101"/>
      <circle id="Elipse_3" data-name="Elipse 3" cx="1.947" cy="1.947" r="1.947" transform="translate(13.469 26.437)" fill="#c0d0d7"/>
      <circle id="Elipse_4" data-name="Elipse 4" cx="0.674" cy="0.674" r="0.674" transform="translate(14.742 27.71)" fill="#869eaa"/>
      <path id="Caminho_22" data-name="Caminho 22" d="M16.287,32.744a2.677,2.677,0,1,1,2.677-2.677A2.677,2.677,0,0,1,16.287,32.744Zm0-3.884a1.273,1.273,0,0,0,0,2.546,1.32,1.32,0,0,0,1.273-1.273A1.236,1.236,0,0,0,16.287,28.9Z" transform="translate(-0.871 -1.749)" fill="#010101"/>
      <path id="Caminho_23" data-name="Caminho 23" d="M19.785,22.808a.665.665,0,0,1-.665-.674v-3.95a.665.665,0,0,1,.665-.674.674.674,0,0,1,.674.674v3.95a.636.636,0,0,1-.674.674Z" transform="translate(-1.224 -1.116)" fill="#010101"/>
      <path id="Caminho_24" data-name="Caminho 24" d="M23.074,22.8a.665.665,0,0,1-.665-.674v-3.95a.674.674,0,1,1,1.338,0v3.95a.636.636,0,0,1-.674.674Z" transform="translate(-1.434 -1.111)" fill="#010101"/>
      <path id="Caminho_25" data-name="Caminho 25" d="M26.374,22.8a.674.674,0,0,1-.674-.674v-3.95a.674.674,0,1,1,1.338,0v3.95a.636.636,0,0,1-.665.674Z" transform="translate(-1.644 -1.111)" fill="#010101"/>
      <path id="Caminho_26" data-name="Caminho 26" d="M27.492,25.713a4.352,4.352,0,1,1-3.079-1.277,4.352,4.352,0,0,1,3.079,1.277Z" transform="translate(-1.284 -1.56)" fill="#4daf50"/>
      <path id="Caminho_27" data-name="Caminho 27" d="M38.623,26.969l4.455,4.455a5.26,5.26,0,0,1,0,7.432l-3.557,3.557c-1.75,1.75-5.916,3.323-9.847-.627a3.239,3.239,0,0,1,0-4.418h0a1.2,1.2,0,0,1,1.076-.328l-6.683-6.692a1.572,1.572,0,0,1,0-2.228,1.61,1.61,0,0,1,1.03-.449,1.582,1.582,0,0,1,1.2.449l4.09,4.09a1.575,1.575,0,0,1,2.228-2.228l.739.739a1.563,1.563,0,0,1,1.03-2.677,1.544,1.544,0,0,1,1.2.449l.739.739a1.516,1.516,0,0,1-.449-1.189,1.563,1.563,0,0,1,.524-1.076A1.591,1.591,0,0,1,38.623,26.969Z" transform="translate(-1.511 -1.693)" fill="#fccc82"/>
      <path id="Caminho_28" data-name="Caminho 28" d="M32.428,39.085a.786.786,0,0,1-1.114,0l-8.171-8.171a2.363,2.363,0,0,1,3.342-3.342L33.907,35a.788.788,0,0,1-1.114,1.114L25.37,28.687A.788.788,0,1,0,24.257,29.8l8.171,8.171a.786.786,0,0,1,0,1.114Z" transform="translate(-1.437 -1.716)" fill="#010101"/>
      <path id="Caminho_29" data-name="Caminho 29" d="M36.591,34.034a.786.786,0,0,1-1.114,0L32.51,31.067A.788.788,0,1,0,31.4,32.18l.739.739a.788.788,0,0,1-1.114,1.114l-.739-.739a2.363,2.363,0,0,1,3.342-3.342l2.967,2.967a.786.786,0,0,1,0,1.114Z" transform="translate(-1.894 -1.868)" fill="#010101"/>
      <path id="Caminho_30" data-name="Caminho 30" d="M39.031,31.723a.8.8,0,0,1-1.123,0L35.68,29.477a.788.788,0,0,0-1.114,1.114l.562.562a.788.788,0,0,1-1.114,1.114l-.562-.562a2.363,2.363,0,0,1,3.342-3.342l2.237,2.228a.8.8,0,0,1,0,1.133Z" transform="translate(-2.097 -1.767)" fill="#010101"/>
      <path id="Caminho_31" data-name="Caminho 31" d="M43.924,38.287l-4.109,4.118c-2.406,2.4-6.393,3.557-10.371-.4a4.2,4.2,0,0,1-1.254-2.976,4.109,4.109,0,0,1,1.207-2.92l.234-.225a.786.786,0,0,1,1.114,0,.8.8,0,0,1,0,1.114l-.234.225a2.537,2.537,0,0,0-.739,1.8,2.593,2.593,0,0,0,.777,1.872c3.978,3.959,7.245,1.31,8.153.412l4.109-4.118a3.416,3.416,0,0,0,0-4.82l-4.446-4.483a.788.788,0,1,0-1.114,1.114l.552.552a.8.8,0,1,1-1.114,1.142l-.552-.552a2.363,2.363,0,1,1,3.342-3.342l4.446,4.446a4.98,4.98,0,0,1,0,7.048Z" transform="translate(-1.804 -1.666)" fill="#010101"/>
      <path id="Caminho_32" data-name="Caminho 32" d="M28.1,26.212a.786.786,0,0,1-1.114,0,3.683,3.683,0,1,0-5.167,5.251.786.786,0,0,1,0,1.114.8.8,0,0,1-1.114,0,5.255,5.255,0,0,1,7.432-7.432A.786.786,0,0,1,28.1,26.212Z" transform="translate(-1.226 -1.507)" fill="#010101"/>
      <text id="MinhaVitrine.Shop" transform="translate(49.082 27.645)" fill="#fff" font-size="20" font-family="GothamRounded-Bold, Gotham Rounded" font-weight="700"><tspan x="0" y="0">Minha</tspan><tspan y="0" letter-spacing="-0.02em">V</tspan><tspan y="0">itrin</tspan><tspan y="0" letter-spacing="-0.01em">e</tspan><tspan y="0" fill="#1d1d1b">.</tspan><tspan y="0" fill="#feca1c">Shop</tspan></text>
    </g>
  </g>
</svg>
